<?xml version="1.0" encoding="utf-8" standalone="no"?>
<!DOCTYPE svg PUBLIC "-//W3C//DTD SVG 1.1//EN"
  "http://www.w3.org/Graphics/SVG/1.1/DTD/svg11.dtd">
<svg xmlns:xlink="http://www.w3.org/1999/xlink" width="689.972893pt" height="443.964068pt" viewBox="0 0 689.972893 443.964068" xmlns="http://www.w3.org/2000/svg" version="1.1">
 <metadata>
  <rdf:RDF xmlns:dc="http://purl.org/dc/elements/1.1/" xmlns:cc="http://creativecommons.org/ns#" xmlns:rdf="http://www.w3.org/1999/02/22-rdf-syntax-ns#">
   <cc:Work>
    <dc:type rdf:resource="http://purl.org/dc/dcmitype/StillImage"/>
    <dc:date>2025-05-11T11:06:37.313066</dc:date>
    <dc:format>image/svg+xml</dc:format>
    <dc:creator>
     <cc:Agent>
      <dc:title>Matplotlib v3.10.1, https://matplotlib.org/</dc:title>
     </cc:Agent>
    </dc:creator>
   </cc:Work>
  </rdf:RDF>
 </metadata>
 <defs>
  <style type="text/css">*{stroke-linejoin: round; stroke-linecap: butt}</style>
 </defs>
 <g id="figure_1">
  <g id="patch_1">
   <path d="M 0 443.964068 
L 689.972893 443.964068 
L 689.972893 0 
L 0 0 
z
" style="fill: #ffffff"/>
  </g>
  <g id="axes_1">
   <g id="patch_2">
    <path d="M 45.050543 398.311504 
L 682.772893 398.311504 
L 682.772893 41.229068 
L 45.050543 41.229068 
z
" style="fill: #ffffff"/>
   </g>
   <g id="matplotlib.axis_1">
    <g id="xtick_1">
     <g id="line2d_1">
      <path d="M 74.037923 398.311504 
L 74.037923 41.229068 
" clip-path="url(#pdc68288f81)" style="fill: none; stroke-dasharray: 2.96,1.28; stroke-dashoffset: 0; stroke: #cccccc; stroke-opacity: 0.7; stroke-width: 0.8"/>
     </g>
     <g id="text_1">
      <!-- 1K -->
      <g style="fill: #262626" transform="translate(66.501746 414.305532) scale(0.13 -0.13)">
       <defs>
        <path id="CMSS17-31" d="M 1818 4288 
L 1696 4288 
C 1350 3940 947 3890 538 3890 
L 538 3520 
C 723 3520 1024 3520 1325 3667 
L 1325 369 
L 570 369 
L 570 0 
L 2573 0 
L 2573 369 
L 1818 369 
L 1818 4288 
z
" transform="scale(0.015625)"/>
        <path id="CMSS17-4b" d="M 2234 2666 
L 3827 4416 
L 3213 4416 
L 1101 2106 
L 1101 4416 
L 563 4416 
L 563 0 
L 1101 0 
L 1101 1432 
L 1875 2278 
L 3315 0 
L 3910 0 
L 2234 2666 
z
" transform="scale(0.015625)"/>
       </defs>
       <use xlink:href="#CMSS17-31" transform="scale(0.996264)"/>
       <use xlink:href="#CMSS17-4b" transform="translate(46.843624 0) scale(0.996264)"/>
      </g>
     </g>
    </g>
    <g id="xtick_2">
     <g id="line2d_2">
      <path d="M 156.859007 398.311504 
L 156.859007 41.229068 
" clip-path="url(#pdc68288f81)" style="fill: none; stroke-dasharray: 2.96,1.28; stroke-dashoffset: 0; stroke: #cccccc; stroke-opacity: 0.7; stroke-width: 0.8"/>
     </g>
     <g id="text_2">
      <!-- 2K -->
      <g style="fill: #262626" transform="translate(149.32283 414.305532) scale(0.13 -0.13)">
       <defs>
        <path id="CMSS17-32" d="M 1651 1357 
C 1830 1541 2099 1764 2285 1987 
C 2464 2204 2701 2511 2701 2957 
C 2701 3657 2227 4288 1421 4288 
C 787 4288 422 3893 250 3274 
L 499 2929 
C 640 3510 838 3880 1338 3880 
C 1888 3880 2195 3433 2195 2942 
C 2195 2355 1747 1901 1408 1563 
C 1030 1187 659 804 301 408 
L 301 0 
L 2701 0 
L 2701 433 
L 1613 433 
C 1536 433 1459 433 1382 433 
L 742 433 
L 742 439 
L 1651 1357 
z
" transform="scale(0.015625)"/>
       </defs>
       <use xlink:href="#CMSS17-32" transform="scale(0.996264)"/>
       <use xlink:href="#CMSS17-4b" transform="translate(46.843624 0) scale(0.996264)"/>
      </g>
     </g>
    </g>
    <g id="xtick_3">
     <g id="line2d_3">
      <path d="M 239.680092 398.311504 
L 239.680092 41.229068 
" clip-path="url(#pdc68288f81)" style="fill: none; stroke-dasharray: 2.96,1.28; stroke-dashoffset: 0; stroke: #cccccc; stroke-opacity: 0.7; stroke-width: 0.8"/>
     </g>
     <g id="text_3">
      <!-- 4K -->
      <g style="fill: #262626" transform="translate(232.143914 414.305532) scale(0.13 -0.13)">
       <defs>
        <path id="CMSS17-34" d="M 2253 1088 
L 2835 1088 
L 2835 1477 
L 2253 1477 
L 2253 4192 
L 1690 4192 
L 166 1477 
L 166 1088 
L 1747 1088 
L 1747 0 
L 2253 0 
L 2253 1088 
z
M 659 1477 
C 1030 2127 1766 3439 1766 3885 
L 1766 1477 
L 659 1477 
z
" transform="scale(0.015625)"/>
       </defs>
       <use xlink:href="#CMSS17-34" transform="scale(0.996264)"/>
       <use xlink:href="#CMSS17-4b" transform="translate(46.843624 0) scale(0.996264)"/>
      </g>
     </g>
    </g>
    <g id="xtick_4">
     <g id="line2d_4">
      <path d="M 322.501176 398.311504 
L 322.501176 41.229068 
" clip-path="url(#pdc68288f81)" style="fill: none; stroke-dasharray: 2.96,1.28; stroke-dashoffset: 0; stroke: #cccccc; stroke-opacity: 0.7; stroke-width: 0.8"/>
     </g>
     <g id="text_4">
      <!-- 8K -->
      <g style="fill: #262626" transform="translate(314.964999 414.305532) scale(0.13 -0.13)">
       <defs>
        <path id="CMSS17-38" d="M 1933 2222 
C 2419 2380 2669 2760 2669 3134 
C 2669 3722 2157 4229 1504 4229 
C 826 4229 333 3708 333 3144 
C 333 2780 576 2403 1069 2241 
C 442 1997 250 1512 250 1149 
C 250 446 819 -128 1498 -128 
C 2202 -128 2752 455 2752 1138 
C 2752 1557 2502 2000 1933 2222 
z
M 1504 2432 
C 1075 2432 787 2712 787 3136 
C 787 3566 1075 3840 1504 3840 
C 1901 3840 2214 3591 2214 3136 
C 2214 2687 1907 2432 1504 2432 
z
M 1504 267 
C 1139 267 749 517 749 1156 
C 749 1813 1184 2043 1498 2043 
C 1843 2043 2253 1800 2253 1156 
C 2253 491 1830 267 1504 267 
z
" transform="scale(0.015625)"/>
       </defs>
       <use xlink:href="#CMSS17-38" transform="scale(0.996264)"/>
       <use xlink:href="#CMSS17-4b" transform="translate(46.843624 0) scale(0.996264)"/>
      </g>
     </g>
    </g>
    <g id="xtick_5">
     <g id="line2d_5">
      <path d="M 405.32226 398.311504 
L 405.32226 41.229068 
" clip-path="url(#pdc68288f81)" style="fill: none; stroke-dasharray: 2.96,1.28; stroke-dashoffset: 0; stroke: #cccccc; stroke-opacity: 0.7; stroke-width: 0.8"/>
     </g>
     <g id="text_5">
      <!-- 16K -->
      <g style="fill: #262626" transform="translate(394.615713 414.305532) scale(0.13 -0.13)">
       <defs>
        <path id="CMSS17-36" d="M 2496 4101 
C 2227 4210 2035 4229 1856 4229 
C 1024 4229 250 3368 250 2006 
C 250 265 986 -128 1510 -128 
C 1798 -128 2086 -39 2362 280 
C 2643 617 2752 898 2752 1389 
C 2752 2179 2362 2880 1779 2880 
C 1357 2880 992 2657 768 2376 
C 832 3258 1254 3840 1862 3840 
C 2029 3840 2246 3816 2496 3710 
L 2496 4101 
z
M 774 1369 
C 774 1420 774 1452 781 1548 
C 781 2045 1069 2491 1536 2491 
C 1837 2491 1990 2332 2106 2135 
C 2240 1886 2246 1650 2246 1388 
C 2246 1140 2246 891 2099 637 
C 1978 439 1818 267 1510 267 
C 902 267 800 1114 774 1369 
z
" transform="scale(0.015625)"/>
       </defs>
       <use xlink:href="#CMSS17-31" transform="scale(0.996264)"/>
       <use xlink:href="#CMSS17-36" transform="translate(46.843624 0) scale(0.996264)"/>
       <use xlink:href="#CMSS17-4b" transform="translate(93.687247 0) scale(0.996264)"/>
      </g>
     </g>
    </g>
    <g id="xtick_6">
     <g id="line2d_6">
      <path d="M 488.143345 398.311504 
L 488.143345 41.229068 
" clip-path="url(#pdc68288f81)" style="fill: none; stroke-dasharray: 2.96,1.28; stroke-dashoffset: 0; stroke: #cccccc; stroke-opacity: 0.7; stroke-width: 0.8"/>
     </g>
     <g id="text_6">
      <!-- 32K -->
      <g style="fill: #262626" transform="translate(477.436798 414.305532) scale(0.13 -0.13)">
       <defs>
        <path id="CMSS17-33" d="M 1005 2025 
L 1440 2025 
C 2042 2025 2214 1507 2214 1146 
C 2214 653 1933 267 1472 267 
C 1114 267 608 444 320 912 
C 275 691 275 678 250 526 
C 550 88 1037 -128 1485 -128 
C 2214 -128 2752 473 2752 1138 
C 2752 1638 2400 2057 1920 2215 
C 2304 2424 2586 2816 2586 3273 
C 2586 3805 2093 4229 1491 4229 
C 941 4229 512 3892 333 3530 
C 378 3468 493 3284 550 3189 
C 691 3562 1056 3840 1485 3840 
C 1843 3840 2080 3607 2080 3271 
C 2080 2923 1856 2543 1478 2455 
C 1453 2455 1056 2417 1005 2411 
L 1005 2025 
z
" transform="scale(0.015625)"/>
       </defs>
       <use xlink:href="#CMSS17-33" transform="scale(0.996264)"/>
       <use xlink:href="#CMSS17-32" transform="translate(46.843624 0) scale(0.996264)"/>
       <use xlink:href="#CMSS17-4b" transform="translate(93.687247 0) scale(0.996264)"/>
      </g>
     </g>
    </g>
    <g id="xtick_7">
     <g id="line2d_7">
      <path d="M 570.964429 398.311504 
L 570.964429 41.229068 
" clip-path="url(#pdc68288f81)" style="fill: none; stroke-dasharray: 2.96,1.28; stroke-dashoffset: 0; stroke: #cccccc; stroke-opacity: 0.7; stroke-width: 0.8"/>
     </g>
     <g id="text_7">
      <!-- 64K -->
      <g style="fill: #262626" transform="translate(560.257882 414.305532) scale(0.13 -0.13)">
       <use xlink:href="#CMSS17-36" transform="scale(0.996264)"/>
       <use xlink:href="#CMSS17-34" transform="translate(46.843624 0) scale(0.996264)"/>
       <use xlink:href="#CMSS17-4b" transform="translate(93.687247 0) scale(0.996264)"/>
      </g>
     </g>
    </g>
    <g id="xtick_8">
     <g id="line2d_8">
      <path d="M 653.785513 398.311504 
L 653.785513 41.229068 
" clip-path="url(#pdc68288f81)" style="fill: none; stroke-dasharray: 2.96,1.28; stroke-dashoffset: 0; stroke: #cccccc; stroke-opacity: 0.7; stroke-width: 0.8"/>
     </g>
     <g id="text_8">
      <!-- 128K -->
      <g style="fill: #262626" transform="translate(639.908597 414.305532) scale(0.13 -0.13)">
       <use xlink:href="#CMSS17-31" transform="scale(0.996264)"/>
       <use xlink:href="#CMSS17-32" transform="translate(46.843624 0) scale(0.996264)"/>
       <use xlink:href="#CMSS17-38" transform="translate(93.687247 0) scale(0.996264)"/>
       <use xlink:href="#CMSS17-4b" transform="translate(140.530871 0) scale(0.996264)"/>
      </g>
     </g>
    </g>
    <g id="xtick_9"/>
    <g id="xtick_10"/>
    <g id="xtick_11"/>
    <g id="xtick_12"/>
    <g id="xtick_13"/>
    <g id="xtick_14"/>
    <g id="xtick_15"/>
    <g id="xtick_16"/>
    <g id="xtick_17"/>
    <g id="xtick_18"/>
    <g id="xtick_19"/>
    <g id="xtick_20"/>
    <g id="xtick_21"/>
    <g id="xtick_22"/>
    <g id="xtick_23"/>
    <g id="text_9">
     <!-- Context Size [log scale] -->
     <g style="fill: #262626" transform="translate(287.866208 432.779012) scale(0.16 -0.16)">
      <defs>
       <path id="CMSS17-43" d="M 3501 714 
C 3072 427 2874 344 2355 344 
C 1459 344 934 1303 934 2179 
C 934 3112 1472 4032 2381 4032 
C 2790 4032 3059 3918 3386 3715 
L 3475 4217 
C 3168 4370 2778 4440 2387 4440 
C 1158 4440 397 3316 397 2179 
C 397 927 1299 -64 2323 -64 
C 2874 -64 3066 -19 3539 280 
L 3501 714 
z
" transform="scale(0.015625)"/>
       <path id="CMSS17-6f" d="M 2829 1356 
C 2829 2176 2221 2816 1504 2816 
C 768 2816 173 2157 173 1356 
C 173 544 787 -64 1498 -64 
C 2227 -64 2829 563 2829 1356 
z
M 1504 337 
C 1050 337 659 709 659 1408 
C 659 2151 1114 2427 1498 2427 
C 1914 2427 2342 2126 2342 1408 
C 2342 683 1926 337 1504 337 
z
" transform="scale(0.015625)"/>
       <path id="CMSS17-6e" d="M 2618 1877 
C 2618 2283 2522 2816 1798 2816 
C 1389 2816 1120 2606 941 2389 
L 941 2758 
L 474 2758 
L 474 0 
L 960 0 
L 960 1559 
C 960 1964 1114 2428 1549 2428 
C 2112 2428 2131 2048 2131 1829 
L 2131 0 
L 2618 0 
L 2618 1877 
z
" transform="scale(0.015625)"/>
       <path id="CMSS17-74" d="M 1069 2368 
L 1901 2368 
L 1901 2737 
L 1069 2737 
L 1069 3520 
L 614 3520 
L 614 2737 
L 109 2737 
L 109 2368 
L 602 2368 
L 602 749 
C 602 384 685 -64 1107 -64 
C 1427 -64 1722 25 2003 172 
L 1901 548 
C 1747 414 1562 337 1363 337 
C 1082 337 1069 696 1069 856 
L 1069 2368 
z
" transform="scale(0.015625)"/>
       <path id="CMSS17-65" d="M 2502 1377 
C 2502 1590 2490 2003 2285 2345 
C 2061 2713 1696 2816 1421 2816 
C 755 2816 192 2188 192 1375 
C 192 582 774 -64 1510 -64 
C 1798 -64 2150 19 2470 248 
C 2470 274 2458 414 2451 420 
C 2451 433 2432 630 2432 656 
C 2125 407 1773 325 1517 325 
C 1107 325 666 667 646 1377 
L 2502 1377 
z
M 698 1728 
C 781 2084 1062 2421 1421 2421 
C 1517 2421 1965 2421 2080 1728 
L 698 1728 
z
" transform="scale(0.015625)"/>
       <path id="CMSS17-78" d="M 1587 1414 
L 2656 2739 
L 2099 2739 
L 1363 1777 
L 602 2739 
L 32 2739 
L 1139 1414 
L 0 0 
L 563 0 
L 1363 1121 
L 2195 0 
L 2758 0 
L 1587 1414 
z
" transform="scale(0.015625)"/>
       <path id="CMSS17-53" d="M 2797 4169 
C 2515 4334 2208 4480 1690 4480 
C 864 4480 333 3879 333 3266 
C 333 3025 403 2753 653 2475 
C 902 2196 1184 2121 1542 2033 
C 1690 1994 1939 1924 1984 1906 
C 2342 1767 2515 1444 2515 1140 
C 2515 742 2202 318 1645 318 
C 1453 318 890 318 358 819 
L 269 318 
C 794 -64 1363 -128 1651 -128 
C 2438 -128 3002 488 3002 1186 
C 3002 1440 2925 1763 2656 2061 
C 2394 2347 2163 2410 1638 2549 
C 1338 2626 1146 2677 986 2873 
C 877 3013 819 3146 819 3317 
C 819 3673 1126 4060 1690 4060 
C 1971 4060 2336 4002 2707 3660 
L 2797 4169 
z
" transform="scale(0.015625)"/>
       <path id="CMSS17-69" d="M 979 4183 
L 442 4183 
L 442 3648 
L 979 3648 
L 979 4183 
z
M 947 2739 
L 474 2739 
L 474 0 
L 947 0 
L 947 2739 
z
" transform="scale(0.015625)"/>
       <path id="CMSS17-7a" d="M 2400 2502 
L 2400 2750 
L 250 2750 
L 250 2368 
L 1069 2368 
C 1146 2368 1222 2368 1299 2368 
L 1747 2368 
L 166 261 
L 166 0 
L 2419 0 
L 2419 395 
L 1549 395 
C 1472 395 1395 395 1318 395 
L 826 395 
L 2400 2502 
z
" transform="scale(0.015625)"/>
       <path id="CMSS17-5b" d="M 1613 -1600 
L 1613 -1212 
L 1062 -1212 
L 1062 4352 
L 1613 4352 
L 1613 4741 
L 595 4741 
L 595 -1600 
L 1613 -1600 
z
" transform="scale(0.015625)"/>
       <path id="CMSS17-6c" d="M 947 4416 
L 474 4416 
L 474 0 
L 947 0 
L 947 4416 
z
" transform="scale(0.015625)"/>
       <path id="CMSS17-67" d="M 2848 2808 
C 2483 2808 2170 2738 1914 2617 
C 1702 2777 1485 2808 1338 2808 
C 781 2808 358 2349 358 1814 
C 358 1468 550 1207 563 1195 
C 448 1035 384 863 384 672 
C 384 448 474 289 544 200 
C 211 -3 166 -314 166 -435 
C 166 -898 749 -1280 1498 -1280 
C 2253 -1280 2835 -898 2835 -428 
C 2835 448 1856 448 1587 448 
L 1069 448 
C 973 448 717 448 717 791 
C 717 921 774 1004 781 1010 
C 877 940 1075 832 1338 832 
C 1869 832 2310 1278 2310 1827 
C 2310 2132 2170 2355 2112 2432 
L 2131 2432 
C 2150 2432 2419 2432 2515 2432 
C 2720 2432 2739 2429 2918 2419 
L 2848 2808 
z
M 1338 1182 
C 1120 1182 813 1315 813 1823 
C 813 2375 1165 2464 1331 2464 
C 1549 2464 1856 2331 1856 1823 
C 1856 1271 1504 1182 1338 1182 
z
M 1581 -10 
C 1734 -10 2381 -10 2381 -442 
C 2381 -714 1984 -929 1504 -929 
C 1018 -929 621 -720 621 -435 
C 621 -403 621 -10 1062 -10 
L 1581 -10 
z
" transform="scale(0.015625)"/>
       <path id="CMSS17-73" d="M 2061 2627 
C 1683 2807 1389 2807 1197 2807 
C 742 2807 198 2648 198 2003 
C 198 1359 902 1218 1094 1179 
C 1389 1122 1715 1058 1715 740 
C 1715 337 1254 337 1171 337 
C 915 337 563 407 243 638 
L 166 210 
C 531 0 883 -64 1178 -64 
C 1965 -64 2163 416 2163 781 
C 2163 1094 1984 1305 1862 1401 
C 1651 1568 1574 1587 1050 1696 
C 960 1709 646 1779 646 2066 
C 646 2432 1050 2432 1139 2432 
C 1555 2432 1811 2303 1984 2208 
L 2061 2627 
z
" transform="scale(0.015625)"/>
       <path id="CMSS17-63" d="M 2464 2541 
C 2464 2585 2170 2714 2093 2739 
C 1882 2816 1613 2816 1542 2816 
C 710 2816 211 2093 211 1363 
C 211 595 768 -64 1517 -64 
C 1946 -64 2253 76 2502 242 
L 2464 664 
C 2189 453 1869 337 1523 337 
C 1024 337 698 774 698 1369 
C 698 1831 909 2414 1549 2414 
C 1901 2414 2099 2343 2394 2145 
L 2464 2541 
z
" transform="scale(0.015625)"/>
       <path id="CMSS17-61" d="M 2406 1791 
C 2406 2392 1978 2808 1402 2808 
C 1120 2808 813 2757 461 2553 
L 499 2135 
C 659 2248 934 2432 1395 2432 
C 1722 2432 1920 2180 1920 1782 
L 1920 1536 
C 896 1536 256 1238 256 726 
C 256 461 416 -64 947 -64 
C 1043 -64 1562 -64 1933 217 
L 1933 -19 
L 2406 -19 
L 2406 1791 
z
M 1920 816 
C 1920 701 1920 548 1728 434 
C 1562 325 1350 325 1261 325 
C 941 325 723 511 723 744 
C 723 1211 1722 1211 1920 1211 
L 1920 816 
z
" transform="scale(0.015625)"/>
       <path id="CMSS17-5d" d="M 1146 4741 
L 128 4741 
L 128 4352 
L 678 4352 
L 678 -1212 
L 128 -1212 
L 128 -1600 
L 1146 -1600 
L 1146 4741 
z
" transform="scale(0.015625)"/>
      </defs>
      <use xlink:href="#CMSS17-43" transform="scale(0.996264)"/>
      <use xlink:href="#CMSS17-6f" transform="translate(59.855772 0) scale(0.996264)"/>
      <use xlink:href="#CMSS17-6e" transform="translate(106.699395 0) scale(0.996264)"/>
      <use xlink:href="#CMSS17-74" transform="translate(154.904338 0) scale(0.996264)"/>
      <use xlink:href="#CMSS17-65" transform="translate(188.735905 0) scale(0.996264)"/>
      <use xlink:href="#CMSS17-78" transform="translate(230.374727 0) scale(0.996264)"/>
      <use xlink:href="#CMSS17-74" transform="translate(273.374869 0) scale(0.996264)"/>
      <use xlink:href="#CMSS17-53" transform="translate(338.435548 0) scale(0.996264)"/>
      <use xlink:href="#CMSS17-69" transform="translate(390.484064 0) scale(0.996264)"/>
      <use xlink:href="#CMSS17-7a" transform="translate(412.664787 0) scale(0.996264)"/>
      <use xlink:href="#CMSS17-65" transform="translate(453.342659 0) scale(0.996264)"/>
      <use xlink:href="#CMSS17-5b" transform="translate(526.210594 0) scale(0.996264)"/>
      <use xlink:href="#CMSS17-6c" transform="translate(553.396033 0) scale(0.996264)"/>
      <use xlink:href="#CMSS17-6f" transform="translate(575.576756 0) scale(0.996264)"/>
      <use xlink:href="#CMSS17-67" transform="translate(622.420379 0) scale(0.996264)"/>
      <use xlink:href="#CMSS17-73" transform="translate(700.493115 0) scale(0.996264)"/>
      <use xlink:href="#CMSS17-63" transform="translate(736.406657 0) scale(0.996264)"/>
      <use xlink:href="#CMSS17-61" transform="translate(778.045479 0) scale(0.996264)"/>
      <use xlink:href="#CMSS17-6c" transform="translate(822.9674 0) scale(0.996264)"/>
      <use xlink:href="#CMSS17-65" transform="translate(845.148123 0) scale(0.996264)"/>
      <use xlink:href="#CMSS17-5d" transform="translate(886.786945 0) scale(0.996264)"/>
     </g>
    </g>
   </g>
   <g id="matplotlib.axis_2">
    <g id="ytick_1">
     <g id="line2d_9">
      <path d="M 45.050543 398.311504 
L 682.772893 398.311504 
" clip-path="url(#pdc68288f81)" style="fill: none; stroke-dasharray: 2.96,1.28; stroke-dashoffset: 0; stroke: #cccccc; stroke-opacity: 0.7; stroke-width: 0.8"/>
     </g>
     <g id="text_10">
      <!-- $\mathdefault{0}$ -->
      <g style="fill: #262626" transform="translate(31.709804 402.808518) scale(0.13 -0.13)">
       <defs>
        <path id="CMR17-30" d="M 2688 2025 
C 2688 2416 2682 3080 2413 3591 
C 2176 4039 1798 4198 1466 4198 
C 1158 4198 768 4058 525 3597 
C 269 3118 243 2524 243 2025 
C 243 1661 250 1106 448 619 
C 723 -39 1216 -128 1466 -128 
C 1760 -128 2208 -7 2470 600 
C 2662 1042 2688 1559 2688 2025 
z
M 1466 -26 
C 1056 -26 813 325 723 812 
C 653 1188 653 1738 653 2096 
C 653 2588 653 2997 736 3387 
C 858 3929 1216 4096 1466 4096 
C 1728 4096 2067 3923 2189 3400 
C 2272 3036 2278 2607 2278 2096 
C 2278 1680 2278 1169 2202 792 
C 2067 95 1690 -26 1466 -26 
z
" transform="scale(0.015625)"/>
       </defs>
       <use xlink:href="#CMR17-30" transform="scale(0.996264)"/>
      </g>
     </g>
    </g>
    <g id="ytick_2">
     <g id="line2d_10">
      <path d="M 45.050543 333.387424 
L 682.772893 333.387424 
" clip-path="url(#pdc68288f81)" style="fill: none; stroke-dasharray: 2.96,1.28; stroke-dashoffset: 0; stroke: #cccccc; stroke-opacity: 0.7; stroke-width: 0.8"/>
     </g>
     <g id="text_11">
      <!-- $\mathdefault{10}$ -->
      <g style="fill: #262626" transform="translate(25.369064 337.884438) scale(0.13 -0.13)">
       <defs>
        <path id="CMR17-31" d="M 1702 4058 
C 1702 4192 1696 4192 1606 4192 
C 1357 3916 979 3827 621 3827 
C 602 3827 570 3827 563 3808 
C 557 3795 557 3782 557 3648 
C 755 3648 1088 3686 1344 3839 
L 1344 461 
C 1344 236 1331 160 781 160 
L 589 160 
L 589 0 
C 896 0 1216 0 1523 0 
C 1830 0 2150 0 2458 0 
L 2458 160 
L 2266 160 
C 1715 160 1702 230 1702 458 
L 1702 4058 
z
" transform="scale(0.015625)"/>
       </defs>
       <use xlink:href="#CMR17-31" transform="scale(0.996264)"/>
       <use xlink:href="#CMR17-30" transform="translate(45.690477 0) scale(0.996264)"/>
      </g>
     </g>
    </g>
    <g id="ytick_3">
     <g id="line2d_11">
      <path d="M 45.050543 268.463345 
L 682.772893 268.463345 
" clip-path="url(#pdc68288f81)" style="fill: none; stroke-dasharray: 2.96,1.28; stroke-dashoffset: 0; stroke: #cccccc; stroke-opacity: 0.7; stroke-width: 0.8"/>
     </g>
     <g id="text_12">
      <!-- $\mathdefault{20}$ -->
      <g style="fill: #262626" transform="translate(25.369064 272.960359) scale(0.13 -0.13)">
       <defs>
        <path id="CMR17-32" d="M 2669 989 
L 2554 989 
C 2490 536 2438 459 2413 420 
C 2381 369 1920 369 1830 369 
L 602 369 
C 832 619 1280 1072 1824 1597 
C 2214 1967 2669 2402 2669 3035 
C 2669 3790 2067 4224 1395 4224 
C 691 4224 262 3604 262 3030 
C 262 2780 448 2748 525 2748 
C 589 2748 781 2787 781 3010 
C 781 3207 614 3264 525 3264 
C 486 3264 448 3258 422 3245 
C 544 3790 915 4058 1306 4058 
C 1862 4058 2227 3617 2227 3035 
C 2227 2479 1901 2000 1536 1584 
L 262 146 
L 262 0 
L 2515 0 
L 2669 989 
z
" transform="scale(0.015625)"/>
       </defs>
       <use xlink:href="#CMR17-32" transform="scale(0.996264)"/>
       <use xlink:href="#CMR17-30" transform="translate(45.690477 0) scale(0.996264)"/>
      </g>
     </g>
    </g>
    <g id="ytick_4">
     <g id="line2d_12">
      <path d="M 45.050543 203.539266 
L 682.772893 203.539266 
" clip-path="url(#pdc68288f81)" style="fill: none; stroke-dasharray: 2.96,1.28; stroke-dashoffset: 0; stroke: #cccccc; stroke-opacity: 0.7; stroke-width: 0.8"/>
     </g>
     <g id="text_13">
      <!-- $\mathdefault{30}$ -->
      <g style="fill: #262626" transform="translate(25.369064 208.03628) scale(0.13 -0.13)">
       <defs>
        <path id="CMR17-33" d="M 1414 2157 
C 1984 2157 2234 1662 2234 1090 
C 2234 320 1824 25 1453 25 
C 1114 25 563 194 390 693 
C 422 680 454 680 486 680 
C 640 680 755 782 755 948 
C 755 1133 614 1216 486 1216 
C 378 1216 211 1165 211 926 
C 211 335 787 -128 1466 -128 
C 2176 -128 2720 430 2720 1085 
C 2720 1707 2208 2157 1600 2227 
C 2086 2328 2554 2756 2554 3329 
C 2554 3820 2048 4179 1472 4179 
C 890 4179 378 3829 378 3329 
C 378 3110 544 3072 627 3072 
C 762 3072 877 3155 877 3321 
C 877 3486 762 3569 627 3569 
C 602 3569 570 3569 544 3557 
C 730 3959 1235 4032 1459 4032 
C 1683 4032 2106 3925 2106 3320 
C 2106 3143 2080 2828 1862 2550 
C 1670 2304 1453 2304 1242 2284 
C 1210 2284 1062 2269 1037 2269 
C 992 2263 966 2257 966 2208 
C 966 2163 973 2157 1101 2157 
L 1414 2157 
z
" transform="scale(0.015625)"/>
       </defs>
       <use xlink:href="#CMR17-33" transform="scale(0.996264)"/>
       <use xlink:href="#CMR17-30" transform="translate(45.690477 0) scale(0.996264)"/>
      </g>
     </g>
    </g>
    <g id="ytick_5">
     <g id="line2d_13">
      <path d="M 45.050543 138.615187 
L 682.772893 138.615187 
" clip-path="url(#pdc68288f81)" style="fill: none; stroke-dasharray: 2.96,1.28; stroke-dashoffset: 0; stroke: #cccccc; stroke-opacity: 0.7; stroke-width: 0.8"/>
     </g>
     <g id="text_14">
      <!-- $\mathdefault{40}$ -->
      <g style="fill: #262626" transform="translate(25.369064 143.112201) scale(0.13 -0.13)">
       <defs>
        <path id="CMR17-34" d="M 2150 4122 
C 2150 4256 2144 4256 2029 4256 
L 128 1254 
L 128 1088 
L 1779 1088 
L 1779 457 
C 1779 224 1766 160 1318 160 
L 1197 160 
L 1197 0 
C 1402 0 1747 0 1965 0 
C 2182 0 2528 0 2733 0 
L 2733 160 
L 2611 160 
C 2163 160 2150 224 2150 457 
L 2150 1088 
L 2803 1088 
L 2803 1254 
L 2150 1254 
L 2150 4122 
z
M 1798 3703 
L 1798 1254 
L 256 1254 
L 1798 3703 
z
" transform="scale(0.015625)"/>
       </defs>
       <use xlink:href="#CMR17-34" transform="scale(0.996264)"/>
       <use xlink:href="#CMR17-30" transform="translate(45.690477 0) scale(0.996264)"/>
      </g>
     </g>
    </g>
    <g id="ytick_6">
     <g id="line2d_14">
      <path d="M 45.050543 73.691108 
L 682.772893 73.691108 
" clip-path="url(#pdc68288f81)" style="fill: none; stroke-dasharray: 2.96,1.28; stroke-dashoffset: 0; stroke: #cccccc; stroke-opacity: 0.7; stroke-width: 0.8"/>
     </g>
     <g id="text_15">
      <!-- $\mathdefault{50}$ -->
      <g style="fill: #262626" transform="translate(25.369064 78.188122) scale(0.13 -0.13)">
       <defs>
        <path id="CMR17-35" d="M 730 3692 
C 794 3666 1056 3584 1325 3584 
C 1920 3584 2246 3911 2432 4100 
C 2432 4157 2432 4192 2394 4192 
C 2387 4192 2374 4192 2323 4163 
C 2099 4058 1837 3973 1517 3973 
C 1325 3973 1037 3999 723 4139 
C 653 4171 640 4171 634 4171 
C 602 4171 595 4164 595 4037 
L 595 2203 
C 595 2089 595 2057 659 2057 
C 691 2057 704 2070 736 2114 
C 941 2401 1222 2522 1542 2522 
C 1766 2522 2246 2382 2246 1289 
C 2246 1085 2246 715 2054 421 
C 1894 159 1645 25 1370 25 
C 947 25 518 320 403 814 
C 429 807 480 795 506 795 
C 589 795 749 840 749 1038 
C 749 1210 627 1280 506 1280 
C 358 1280 262 1190 262 1011 
C 262 454 704 -128 1382 -128 
C 2042 -128 2669 440 2669 1264 
C 2669 2030 2170 2624 1549 2624 
C 1222 2624 947 2503 730 2274 
L 730 3692 
z
" transform="scale(0.015625)"/>
       </defs>
       <use xlink:href="#CMR17-35" transform="scale(0.996264)"/>
       <use xlink:href="#CMR17-30" transform="translate(45.690477 0) scale(0.996264)"/>
      </g>
     </g>
    </g>
    <g id="text_16">
     <!-- Exact Match -->
     <g style="fill: #262626" transform="translate(18.269588 261.409974) rotate(-90) scale(0.16 -0.16)">
      <defs>
       <path id="CMSS17-45" d="M 1958 433 
C 1446 433 1216 433 1101 433 
L 1101 2107 
L 3085 2107 
L 3085 2496 
L 1101 2496 
L 1101 4009 
L 1926 4009 
C 2003 4009 2080 4009 2157 4009 
L 3251 4009 
L 3251 4416 
L 563 4416 
L 563 0 
L 3334 0 
L 3334 433 
L 1958 433 
z
" transform="scale(0.015625)"/>
       <path id="CMSS17-4d" d="M 3194 2371 
L 2886 1473 
C 2835 1307 2662 791 2624 587 
L 2618 587 
C 2598 715 2560 849 2458 1174 
C 2400 1365 2336 1562 2272 1741 
L 1325 4416 
L 576 4416 
L 576 0 
L 1075 0 
L 1075 3900 
L 1082 3900 
C 1082 3894 1139 3613 1530 2499 
L 2374 96 
L 2848 96 
L 3610 2231 
C 3661 2378 3821 2843 3891 3066 
C 3955 3257 4115 3728 4154 3913 
L 4160 3913 
L 4160 0 
L 4666 0 
L 4666 4416 
L 3923 4416 
L 3194 2371 
z
" transform="scale(0.015625)"/>
       <path id="CMSS17-68" d="M 2618 1891 
C 2618 2292 2522 2820 1798 2820 
C 1395 2820 1133 2623 947 2407 
L 947 4448 
L 474 4448 
L 474 32 
L 960 32 
L 960 1573 
C 960 1973 1114 2432 1549 2432 
C 2112 2432 2131 2056 2131 1839 
L 2131 32 
L 2618 32 
L 2618 1891 
z
" transform="scale(0.015625)"/>
      </defs>
      <use xlink:href="#CMSS17-45" transform="scale(0.996264)"/>
      <use xlink:href="#CMSS17-78" transform="translate(55.892013 0) scale(0.996264)"/>
      <use xlink:href="#CMSS17-61" transform="translate(98.892155 0) scale(0.996264)"/>
      <use xlink:href="#CMSS17-63" transform="translate(143.814076 0) scale(0.996264)"/>
      <use xlink:href="#CMSS17-74" transform="translate(185.452898 0) scale(0.996264)"/>
      <use xlink:href="#CMSS17-4d" transform="translate(250.513577 0) scale(0.996264)"/>
      <use xlink:href="#CMSS17-61" transform="translate(332.189607 0) scale(0.996264)"/>
      <use xlink:href="#CMSS17-74" transform="translate(377.111528 0) scale(0.996264)"/>
      <use xlink:href="#CMSS17-63" transform="translate(410.943094 0) scale(0.996264)"/>
      <use xlink:href="#CMSS17-68" transform="translate(452.581916 0) scale(0.996264)"/>
     </g>
    </g>
   </g>
   <g id="line2d_15">
    <path d="M 74.037923 207.713129 
L 156.859007 183.104225 
L 239.680092 147.397188 
L 322.501176 111.448887 
L 405.32226 108.312458 
L 488.143345 126.40724 
L 570.964429 321.107099 
L 653.785513 390.832327 
" clip-path="url(#pdc68288f81)" style="fill: none; stroke-dasharray: 5.55,2.4; stroke-dashoffset: 0; stroke: #fccc9c; stroke-width: 1.5"/>
    <defs>
     <path id="m4bb3857764" d="M 0 3 
C 0.795609 3 1.55874 2.683901 2.12132 2.12132 
C 2.683901 1.55874 3 0.795609 3 0 
C 3 -0.795609 2.683901 -1.55874 2.12132 -2.12132 
C 1.55874 -2.683901 0.795609 -3 0 -3 
C -0.795609 -3 -1.55874 -2.683901 -2.12132 -2.12132 
C -2.683901 -1.55874 -3 -0.795609 -3 0 
C -3 0.795609 -2.683901 1.55874 -2.12132 2.12132 
C -1.55874 2.683901 -0.795609 3 0 3 
z
" style="stroke: #fccc9c"/>
    </defs>
    <g clip-path="url(#pdc68288f81)">
     <use xlink:href="#m4bb3857764" x="74.037923" y="207.713129" style="fill: #fccc9c; stroke: #fccc9c"/>
     <use xlink:href="#m4bb3857764" x="156.859007" y="183.104225" style="fill: #fccc9c; stroke: #fccc9c"/>
     <use xlink:href="#m4bb3857764" x="239.680092" y="147.397188" style="fill: #fccc9c; stroke: #fccc9c"/>
     <use xlink:href="#m4bb3857764" x="322.501176" y="111.448887" style="fill: #fccc9c; stroke: #fccc9c"/>
     <use xlink:href="#m4bb3857764" x="405.32226" y="108.312458" style="fill: #fccc9c; stroke: #fccc9c"/>
     <use xlink:href="#m4bb3857764" x="488.143345" y="126.40724" style="fill: #fccc9c; stroke: #fccc9c"/>
     <use xlink:href="#m4bb3857764" x="570.964429" y="321.107099" style="fill: #fccc9c; stroke: #fccc9c"/>
     <use xlink:href="#m4bb3857764" x="653.785513" y="390.832327" style="fill: #fccc9c; stroke: #fccc9c"/>
    </g>
   </g>
   <g id="line2d_16">
    <path d="M 74.037923 208.919448 
L 156.859007 184.310544 
L 239.680092 144.98455 
L 322.501176 104.693501 
L 405.32226 78.637015 
L 488.143345 71.640366 
L 570.964429 103.004655 
L 653.785513 355.366553 
" clip-path="url(#pdc68288f81)" style="fill: none; stroke: #fccc9c; stroke-width: 1.5; stroke-linecap: round"/>
    <g clip-path="url(#pdc68288f81)">
     <use xlink:href="#m4bb3857764" x="74.037923" y="208.919448" style="fill: #fccc9c; stroke: #fccc9c"/>
     <use xlink:href="#m4bb3857764" x="156.859007" y="184.310544" style="fill: #fccc9c; stroke: #fccc9c"/>
     <use xlink:href="#m4bb3857764" x="239.680092" y="144.98455" style="fill: #fccc9c; stroke: #fccc9c"/>
     <use xlink:href="#m4bb3857764" x="322.501176" y="104.693501" style="fill: #fccc9c; stroke: #fccc9c"/>
     <use xlink:href="#m4bb3857764" x="405.32226" y="78.637015" style="fill: #fccc9c; stroke: #fccc9c"/>
     <use xlink:href="#m4bb3857764" x="488.143345" y="71.640366" style="fill: #fccc9c; stroke: #fccc9c"/>
     <use xlink:href="#m4bb3857764" x="570.964429" y="103.004655" style="fill: #fccc9c; stroke: #fccc9c"/>
     <use xlink:href="#m4bb3857764" x="653.785513" y="355.366553" style="fill: #fccc9c; stroke: #fccc9c"/>
    </g>
   </g>
   <g id="line2d_17">
    <path d="M 74.037923 194.443622 
L 156.859007 171.041037 
L 239.680092 131.956307 
L 322.501176 89.011357 
L 405.32226 61.748551 
L 488.143345 58.129595 
L 570.964429 68.262673 
L 653.785513 96.973061 
" clip-path="url(#pdc68288f81)" style="fill: none; stroke: #bcdcfc; stroke-width: 1.5; stroke-linecap: round"/>
    <defs>
     <path id="mb3befd6ff7" d="M 0 3 
C 0.795609 3 1.55874 2.683901 2.12132 2.12132 
C 2.683901 1.55874 3 0.795609 3 0 
C 3 -0.795609 2.683901 -1.55874 2.12132 -2.12132 
C 1.55874 -2.683901 0.795609 -3 0 -3 
C -0.795609 -3 -1.55874 -2.683901 -2.12132 -2.12132 
C -2.683901 -1.55874 -3 -0.795609 -3 0 
C -3 0.795609 -2.683901 1.55874 -2.12132 2.12132 
C -1.55874 2.683901 -0.795609 3 0 3 
z
" style="stroke: #bcdcfc"/>
    </defs>
    <g clip-path="url(#pdc68288f81)">
     <use xlink:href="#mb3befd6ff7" x="74.037923" y="194.443622" style="fill: #bcdcfc; stroke: #bcdcfc"/>
     <use xlink:href="#mb3befd6ff7" x="156.859007" y="171.041037" style="fill: #bcdcfc; stroke: #bcdcfc"/>
     <use xlink:href="#mb3befd6ff7" x="239.680092" y="131.956307" style="fill: #bcdcfc; stroke: #bcdcfc"/>
     <use xlink:href="#mb3befd6ff7" x="322.501176" y="89.011357" style="fill: #bcdcfc; stroke: #bcdcfc"/>
     <use xlink:href="#mb3befd6ff7" x="405.32226" y="61.748551" style="fill: #bcdcfc; stroke: #bcdcfc"/>
     <use xlink:href="#mb3befd6ff7" x="488.143345" y="58.129595" style="fill: #bcdcfc; stroke: #bcdcfc"/>
     <use xlink:href="#mb3befd6ff7" x="570.964429" y="68.262673" style="fill: #bcdcfc; stroke: #bcdcfc"/>
     <use xlink:href="#mb3befd6ff7" x="653.785513" y="96.973061" style="fill: #bcdcfc; stroke: #bcdcfc"/>
    </g>
   </g>
   <g id="line2d_18">
    <path d="M 74.037923 222.430219 
L 156.859007 203.852909 
L 239.680092 175.625048 
L 322.501176 143.05444 
L 405.32226 108.794985 
L 488.143345 136.781582 
L 570.964429 276.473302 
L 653.785513 397.346449 
" clip-path="url(#pdc68288f81)" style="fill: none; stroke: #b1dd9f; stroke-width: 1.5; stroke-linecap: round"/>
    <defs>
     <path id="m552bbbcaa0" d="M 0 3 
C 0.795609 3 1.55874 2.683901 2.12132 2.12132 
C 2.683901 1.55874 3 0.795609 3 0 
C 3 -0.795609 2.683901 -1.55874 2.12132 -2.12132 
C 1.55874 -2.683901 0.795609 -3 0 -3 
C -0.795609 -3 -1.55874 -2.683901 -2.12132 -2.12132 
C -2.683901 -1.55874 -3 -0.795609 -3 0 
C -3 0.795609 -2.683901 1.55874 -2.12132 2.12132 
C -1.55874 2.683901 -0.795609 3 0 3 
z
" style="stroke: #b1dd9f"/>
    </defs>
    <g clip-path="url(#pdc68288f81)">
     <use xlink:href="#m552bbbcaa0" x="74.037923" y="222.430219" style="fill: #b1dd9f; stroke: #b1dd9f"/>
     <use xlink:href="#m552bbbcaa0" x="156.859007" y="203.852909" style="fill: #b1dd9f; stroke: #b1dd9f"/>
     <use xlink:href="#m552bbbcaa0" x="239.680092" y="175.625048" style="fill: #b1dd9f; stroke: #b1dd9f"/>
     <use xlink:href="#m552bbbcaa0" x="322.501176" y="143.05444" style="fill: #b1dd9f; stroke: #b1dd9f"/>
     <use xlink:href="#m552bbbcaa0" x="405.32226" y="108.794985" style="fill: #b1dd9f; stroke: #b1dd9f"/>
     <use xlink:href="#m552bbbcaa0" x="488.143345" y="136.781582" style="fill: #b1dd9f; stroke: #b1dd9f"/>
     <use xlink:href="#m552bbbcaa0" x="570.964429" y="276.473302" style="fill: #b1dd9f; stroke: #b1dd9f"/>
     <use xlink:href="#m552bbbcaa0" x="653.785513" y="397.346449" style="fill: #b1dd9f; stroke: #b1dd9f"/>
    </g>
   </g>
   <g id="line2d_19">
    <path d="M 488.143345 58.129595 
" clip-path="url(#pdc68288f81)" style="fill: none; stroke: #bcdcfc; stroke-width: 1.5; stroke-linecap: round"/>
    <defs>
     <path id="m2c4d137b60" d="M 0 -7.5 
L -1.683855 -2.317627 
L -7.132924 -2.317627 
L -2.724534 0.885255 
L -4.408389 6.067627 
L -0 2.864745 
L 4.408389 6.067627 
L 2.724534 0.885255 
L 7.132924 -2.317627 
L 1.683855 -2.317627 
z
" style="stroke: #000000; stroke-linejoin: bevel"/>
    </defs>
    <g clip-path="url(#pdc68288f81)">
     <use xlink:href="#m2c4d137b60" x="488.143345" y="58.129595" style="fill: #bcdcfc; stroke: #000000; stroke-linejoin: bevel"/>
    </g>
   </g>
   <g id="line2d_20">
    <path d="M 405.32226 108.794985 
" clip-path="url(#pdc68288f81)" style="fill: none; stroke: #b1dd9f; stroke-width: 1.5; stroke-linecap: round"/>
    <defs>
     <path id="m27c224f0b5" d="M 0 -7.5 
L -1.683855 -2.317627 
L -7.132924 -2.317627 
L -2.724534 0.885255 
L -4.408389 6.067627 
L -0 2.864745 
L 4.408389 6.067627 
L 2.724534 0.885255 
L 7.132924 -2.317627 
L 1.683855 -2.317627 
z
" style="stroke: #000000; stroke-linejoin: bevel"/>
    </defs>
    <g clip-path="url(#pdc68288f81)">
     <use xlink:href="#m27c224f0b5" x="405.32226" y="108.794985" style="fill: #b1dd9f; stroke: #000000; stroke-linejoin: bevel"/>
    </g>
   </g>
   <g id="line2d_21">
    <path d="M 239.680092 147.397188 
" clip-path="url(#pdc68288f81)" style="fill: none; stroke: #fccc9c; stroke-width: 1.5; stroke-linecap: round"/>
    <defs>
     <path id="m5bc079abab" d="M 0 -7.5 
L -1.683855 -2.317627 
L -7.132924 -2.317627 
L -2.724534 0.885255 
L -4.408389 6.067627 
L -0 2.864745 
L 4.408389 6.067627 
L 2.724534 0.885255 
L 7.132924 -2.317627 
L 1.683855 -2.317627 
z
" style="stroke: #000000; stroke-linejoin: bevel"/>
    </defs>
    <g clip-path="url(#pdc68288f81)">
     <use xlink:href="#m5bc079abab" x="239.680092" y="147.397188" style="fill: #fccc9c; stroke: #000000; stroke-linejoin: bevel"/>
    </g>
   </g>
   <g id="line2d_22">
    <path d="M 405.32226 78.637015 
" clip-path="url(#pdc68288f81)" style="fill: none; stroke: #fccc9c; stroke-width: 1.5; stroke-linecap: round"/>
    <g clip-path="url(#pdc68288f81)">
     <use xlink:href="#m5bc079abab" x="405.32226" y="78.637015" style="fill: #fccc9c; stroke: #000000; stroke-linejoin: bevel"/>
    </g>
   </g>
   <g id="patch_3">
    <path d="M 45.050543 398.311504 
L 45.050543 41.229068 
" style="fill: none; stroke: #cccccc; stroke-width: 0.8; stroke-linejoin: miter; stroke-linecap: square"/>
   </g>
   <g id="patch_4">
    <path d="M 682.772893 398.311504 
L 682.772893 41.229068 
" style="fill: none; stroke: #cccccc; stroke-width: 0.8; stroke-linejoin: miter; stroke-linecap: square"/>
   </g>
   <g id="patch_5">
    <path d="M 45.050543 398.311504 
L 682.772893 398.311504 
" style="fill: none; stroke: #cccccc; stroke-width: 0.8; stroke-linejoin: miter; stroke-linecap: square"/>
   </g>
   <g id="patch_6">
    <path d="M 45.050543 41.229068 
L 682.772893 41.229068 
" style="fill: none; stroke: #cccccc; stroke-width: 0.8; stroke-linejoin: miter; stroke-linecap: square"/>
   </g>
   <g id="legend_1">
    <g id="patch_7">
     <path d="M 64.184611 35.649771 
L 663.638825 35.649771 
Q 665.738825 35.649771 665.738825 33.549771 
L 665.738825 9.3 
Q 665.738825 7.2 663.638825 7.2 
L 64.184611 7.2 
Q 62.084611 7.2 62.084611 9.3 
L 62.084611 33.549771 
Q 62.084611 35.649771 64.184611 35.649771 
z
" style="fill: #ffffff; opacity: 0.8; stroke: #cccccc; stroke-linejoin: miter"/>
    </g>
    <g id="line2d_23">
     <path d="M 66.284611 21.382093 
L 76.784611 21.382093 
L 87.284611 21.382093 
" style="fill: none; stroke: #bcdcfc; stroke-width: 2.5; stroke-linecap: round"/>
     <g>
      <use xlink:href="#mb3befd6ff7" x="76.784611" y="21.382093" style="fill: #bcdcfc; stroke: #bcdcfc"/>
     </g>
    </g>
    <g id="text_17">
     <!-- Qwen2.5-Coder-1.5B -->
     <g style="fill: #262626" transform="translate(95.684611 25.057093) scale(0.105 -0.105)">
      <defs>
       <path id="CMSS17-51" d="M 3200 202 
C 3981 833 4096 1689 4096 2174 
C 4096 3501 3219 4497 2214 4497 
C 1210 4497 333 3497 333 2178 
C 333 847 1222 -128 2214 -128 
C 2438 -128 2630 -77 2765 -26 
L 3302 -832 
L 3930 -832 
L 3200 202 
z
M 2528 324 
C 2438 293 2330 273 2214 273 
C 1523 273 858 993 858 2178 
C 858 3357 1517 4096 2214 4096 
C 2918 4096 3571 3350 3571 2178 
C 3571 1771 3507 1089 2950 566 
L 2490 1210 
L 1939 1210 
L 2528 324 
z
" transform="scale(0.015625)"/>
       <path id="CMSS17-77" d="M 4013 2752 
L 3526 2752 
L 3187 1601 
C 3117 1358 2918 685 2893 371 
L 2886 371 
C 2874 564 2765 1024 2586 1633 
L 2259 2752 
L 1818 2752 
L 1498 1658 
C 1338 1101 1216 627 1203 371 
L 1197 371 
C 1171 749 909 1633 870 1773 
L 582 2752 
L 83 2752 
L 915 0 
L 1402 0 
C 1734 1096 1990 1943 2010 2370 
C 2022 2160 2131 1707 2195 1484 
L 2618 0 
L 3181 0 
L 4013 2752 
z
" transform="scale(0.015625)"/>
       <path id="CMSS17-2e" d="M 1088 510 
L 576 510 
L 576 0 
L 1088 0 
L 1088 510 
z
" transform="scale(0.015625)"/>
       <path id="CMSS17-35" d="M 934 3752 
L 2502 3752 
L 2502 4160 
L 467 4160 
L 467 1781 
L 896 1781 
C 1011 2046 1248 2240 1555 2240 
C 1843 2240 2163 1989 2163 1266 
C 2163 493 1709 267 1376 267 
C 966 267 589 512 422 851 
L 218 499 
C 512 49 992 -128 1376 -128 
C 2118 -128 2701 497 2701 1253 
C 2701 2030 2182 2629 1562 2629 
C 1338 2629 1120 2553 934 2399 
L 934 3752 
z
" transform="scale(0.015625)"/>
       <path id="CMSS17-2d" d="M 1664 1216 
L 1664 1585 
L 64 1585 
L 64 1216 
L 1664 1216 
z
" transform="scale(0.015625)"/>
       <path id="CMSS17-64" d="M 2611 4416 
L 2138 4416 
L 2138 2438 
C 1939 2603 1613 2756 1254 2756 
C 672 2756 211 2131 211 1347 
C 211 562 666 -64 1235 -64 
C 1677 -64 1971 172 2125 306 
L 2125 -13 
L 2611 -13 
L 2611 4416 
z
M 2125 836 
C 2125 747 2125 653 1926 482 
C 1798 375 1645 325 1498 325 
C 1152 325 698 576 698 1340 
C 698 2134 1210 2368 1562 2368 
C 1798 2368 1990 2254 2125 2065 
L 2125 836 
z
" transform="scale(0.015625)"/>
       <path id="CMSS17-72" d="M 954 1363 
C 954 1965 1395 2368 1958 2368 
L 1958 2789 
C 1549 2789 1165 2585 934 2253 
L 934 2758 
L 480 2758 
L 480 0 
L 954 0 
L 954 1363 
z
" transform="scale(0.015625)"/>
       <path id="CMSS17-42" d="M 570 4416 
L 570 0 
L 2163 0 
C 3034 0 3667 574 3667 1200 
C 3667 1685 3251 2176 2502 2317 
C 3334 2558 3501 3040 3501 3313 
C 3501 3883 2874 4416 1997 4416 
L 570 4416 
z
M 1088 2496 
L 1088 4059 
L 1824 4059 
C 2483 4059 3002 3724 3002 3306 
C 3002 2926 2592 2496 1766 2496 
L 1088 2496 
z
M 1088 357 
L 1088 2107 
L 1939 2107 
C 2630 2107 3162 1679 3162 1206 
C 3162 772 2694 357 1984 357 
L 1088 357 
z
" transform="scale(0.015625)"/>
      </defs>
      <use xlink:href="#CMSS17-51" transform="scale(0.996264)"/>
      <use xlink:href="#CMSS17-77" transform="translate(69.024255 0) scale(0.996264)"/>
      <use xlink:href="#CMSS17-65" transform="translate(130.241347 0) scale(0.996264)"/>
      <use xlink:href="#CMSS17-6e" transform="translate(171.880169 0) scale(0.996264)"/>
      <use xlink:href="#CMSS17-32" transform="translate(220.085112 0) scale(0.996264)"/>
      <use xlink:href="#CMSS17-2e" transform="translate(266.928735 0) scale(0.996264)"/>
      <use xlink:href="#CMSS17-35" transform="translate(292.95294 0) scale(0.996264)"/>
      <use xlink:href="#CMSS17-2d" transform="translate(339.796564 0) scale(0.996264)"/>
      <use xlink:href="#CMSS17-43" transform="translate(371.025676 0) scale(0.996264)"/>
      <use xlink:href="#CMSS17-6f" transform="translate(430.881448 0) scale(0.996264)"/>
      <use xlink:href="#CMSS17-64" transform="translate(480.32751 0) scale(0.996264)"/>
      <use xlink:href="#CMSS17-65" transform="translate(528.532453 0) scale(0.996264)"/>
      <use xlink:href="#CMSS17-72" transform="translate(570.171275 0) scale(0.996264)"/>
      <use xlink:href="#CMSS17-2d" transform="translate(602.081048 0) scale(0.996264)"/>
      <use xlink:href="#CMSS17-31" transform="translate(633.310161 0) scale(0.996264)"/>
      <use xlink:href="#CMSS17-2e" transform="translate(680.153784 0) scale(0.996264)"/>
      <use xlink:href="#CMSS17-35" transform="translate(706.177989 0) scale(0.996264)"/>
      <use xlink:href="#CMSS17-42" transform="translate(753.021613 0) scale(0.996264)"/>
     </g>
    </g>
    <g id="line2d_24">
     <path d="M 207.809734 21.382093 
L 218.309734 21.382093 
L 228.809734 21.382093 
" style="fill: none; stroke: #fccc9c; stroke-width: 2.5; stroke-linecap: round"/>
     <g>
      <use xlink:href="#m4bb3857764" x="218.309734" y="21.382093" style="fill: #fccc9c; stroke: #fccc9c"/>
     </g>
    </g>
    <g id="text_18">
     <!-- OpenCoder-1.5B-Base -->
     <g style="fill: #262626" transform="translate(237.209734 18.664415) scale(0.105 -0.105)">
      <defs>
       <path id="CMSS17-4f" d="M 4096 2178 
C 4096 3503 3219 4497 2214 4497 
C 1210 4497 333 3497 333 2178 
C 333 847 1222 -128 2214 -128 
C 3206 -128 4096 847 4096 2178 
z
M 2214 273 
C 1510 273 870 1057 870 2261 
C 870 3433 1549 4096 2214 4096 
C 2880 4096 3558 3433 3558 2261 
C 3558 1051 2912 273 2214 273 
z
" transform="scale(0.015625)"/>
       <path id="CMSS17-70" d="M 966 333 
C 1178 129 1466 -5 1773 -5 
C 2368 -5 2880 603 2880 1412 
C 2880 2159 2496 2816 1946 2816 
C 1626 2816 1242 2702 954 2472 
L 954 2765 
L 480 2765 
L 480 -1216 
L 966 -1216 
L 966 333 
z
M 966 2100 
C 1018 2176 1235 2415 1587 2415 
C 2035 2415 2394 1960 2394 1412 
C 2394 787 1958 384 1530 384 
C 1402 384 1267 415 1139 523 
C 966 674 966 768 966 857 
L 966 2100 
z
" transform="scale(0.015625)"/>
      </defs>
      <use xlink:href="#CMSS17-4f" transform="scale(0.996264)"/>
      <use xlink:href="#CMSS17-70" transform="translate(69.024255 0) scale(0.996264)"/>
      <use xlink:href="#CMSS17-65" transform="translate(119.831637 0) scale(0.996264)"/>
      <use xlink:href="#CMSS17-6e" transform="translate(161.470459 0) scale(0.996264)"/>
      <use xlink:href="#CMSS17-43" transform="translate(209.675402 0) scale(0.996264)"/>
      <use xlink:href="#CMSS17-6f" transform="translate(269.531174 0) scale(0.996264)"/>
      <use xlink:href="#CMSS17-64" transform="translate(318.977236 0) scale(0.996264)"/>
      <use xlink:href="#CMSS17-65" transform="translate(367.182179 0) scale(0.996264)"/>
      <use xlink:href="#CMSS17-72" transform="translate(408.821001 0) scale(0.996264)"/>
      <use xlink:href="#CMSS17-2d" transform="translate(440.730774 0) scale(0.996264)"/>
      <use xlink:href="#CMSS17-31" transform="translate(471.959887 0) scale(0.996264)"/>
      <use xlink:href="#CMSS17-2e" transform="translate(518.80351 0) scale(0.996264)"/>
      <use xlink:href="#CMSS17-35" transform="translate(544.827715 0) scale(0.996264)"/>
      <use xlink:href="#CMSS17-42" transform="translate(591.671339 0) scale(0.996264)"/>
      <use xlink:href="#CMSS17-2d" transform="translate(654.009379 0) scale(0.996264)"/>
      <use xlink:href="#CMSS17-42" transform="translate(685.238492 0) scale(0.996264)"/>
      <use xlink:href="#CMSS17-61" transform="translate(747.576532 0) scale(0.996264)"/>
      <use xlink:href="#CMSS17-73" transform="translate(792.498452 0) scale(0.996264)"/>
      <use xlink:href="#CMSS17-65" transform="translate(828.411994 0) scale(0.996264)"/>
     </g>
     <!-- Path Distance composer -->
     <g style="fill: #262626" transform="translate(237.209734 29.415742) scale(0.105 -0.105)">
      <defs>
       <path id="CMSS17-50" d="M 2106 1856 
C 2874 1856 3501 2453 3501 3158 
C 3501 3850 2899 4453 2067 4453 
L 570 4453 
L 570 0 
L 1107 0 
L 1107 1856 
L 2106 1856 
z
M 1926 4096 
C 2669 4096 2995 3627 2995 3157 
C 2995 2720 2694 2226 1926 2226 
L 1094 2226 
L 1094 4096 
L 1926 4096 
z
" transform="scale(0.015625)"/>
       <path id="CMSS17-44" d="M 570 4416 
L 570 0 
L 2144 0 
C 3194 0 4000 980 4000 2170 
C 4000 3398 3194 4416 2144 4416 
L 570 4416 
z
M 1094 357 
L 1094 4059 
L 2003 4059 
C 2861 4059 3475 3277 3475 2170 
C 3475 1107 2867 357 2003 357 
L 1094 357 
z
" transform="scale(0.015625)"/>
       <path id="CMSS17-6d" d="M 4288 1877 
C 4288 2308 4179 2816 3462 2816 
C 2982 2816 2694 2516 2566 2331 
C 2451 2670 2182 2816 1798 2816 
C 1363 2816 1088 2568 941 2389 
L 941 2758 
L 474 2758 
L 474 0 
L 960 0 
L 960 1559 
C 960 1939 1101 2428 1555 2428 
C 2138 2428 2138 2016 2138 1829 
L 2138 0 
L 2624 0 
L 2624 1559 
C 2624 1939 2765 2428 3219 2428 
C 3802 2428 3802 2016 3802 1829 
L 3802 0 
L 4288 0 
L 4288 1877 
z
" transform="scale(0.015625)"/>
      </defs>
      <use xlink:href="#CMSS17-50" transform="scale(0.996264)"/>
      <use xlink:href="#CMSS17-61" transform="translate(57.133132 0) scale(0.996264)"/>
      <use xlink:href="#CMSS17-74" transform="translate(102.055053 0) scale(0.996264)"/>
      <use xlink:href="#CMSS17-68" transform="translate(135.88662 0) scale(0.996264)"/>
      <use xlink:href="#CMSS17-44" transform="translate(215.320676 0) scale(0.996264)"/>
      <use xlink:href="#CMSS17-69" transform="translate(282.863517 0) scale(0.996264)"/>
      <use xlink:href="#CMSS17-73" transform="translate(305.04424 0) scale(0.996264)"/>
      <use xlink:href="#CMSS17-74" transform="translate(340.957782 0) scale(0.996264)"/>
      <use xlink:href="#CMSS17-61" transform="translate(374.789349 0) scale(0.996264)"/>
      <use xlink:href="#CMSS17-6e" transform="translate(419.71127 0) scale(0.996264)"/>
      <use xlink:href="#CMSS17-63" transform="translate(467.916213 0) scale(0.996264)"/>
      <use xlink:href="#CMSS17-65" transform="translate(509.555035 0) scale(0.996264)"/>
      <use xlink:href="#CMSS17-63" transform="translate(582.42297 0) scale(0.996264)"/>
      <use xlink:href="#CMSS17-6f" transform="translate(624.061792 0) scale(0.996264)"/>
      <use xlink:href="#CMSS17-6d" transform="translate(670.905415 0) scale(0.996264)"/>
      <use xlink:href="#CMSS17-70" transform="translate(745.13467 0) scale(0.996264)"/>
      <use xlink:href="#CMSS17-6f" transform="translate(795.942051 0) scale(0.996264)"/>
      <use xlink:href="#CMSS17-73" transform="translate(842.785675 0) scale(0.996264)"/>
      <use xlink:href="#CMSS17-65" transform="translate(878.699217 0) scale(0.996264)"/>
      <use xlink:href="#CMSS17-72" transform="translate(920.338039 0) scale(0.996264)"/>
     </g>
    </g>
    <g id="line2d_25">
     <path d="M 364.706383 21.382093 
L 375.206383 21.382093 
L 385.706383 21.382093 
" style="fill: none; stroke-dasharray: 12.5,5; stroke-dashoffset: 0; stroke: #fccc9c; stroke-width: 2.5"/>
     <g>
      <use xlink:href="#m4bb3857764" x="375.206383" y="21.382093" style="fill: #fccc9c; stroke: #fccc9c"/>
     </g>
    </g>
    <g id="text_19">
     <!-- OpenCoder-1.5B-Base -->
     <g style="fill: #262626" transform="translate(394.106383 18.664415) scale(0.105 -0.105)">
      <use xlink:href="#CMSS17-4f" transform="scale(0.996264)"/>
      <use xlink:href="#CMSS17-70" transform="translate(69.024255 0) scale(0.996264)"/>
      <use xlink:href="#CMSS17-65" transform="translate(119.831637 0) scale(0.996264)"/>
      <use xlink:href="#CMSS17-6e" transform="translate(161.470459 0) scale(0.996264)"/>
      <use xlink:href="#CMSS17-43" transform="translate(209.675402 0) scale(0.996264)"/>
      <use xlink:href="#CMSS17-6f" transform="translate(269.531174 0) scale(0.996264)"/>
      <use xlink:href="#CMSS17-64" transform="translate(318.977236 0) scale(0.996264)"/>
      <use xlink:href="#CMSS17-65" transform="translate(367.182179 0) scale(0.996264)"/>
      <use xlink:href="#CMSS17-72" transform="translate(408.821001 0) scale(0.996264)"/>
      <use xlink:href="#CMSS17-2d" transform="translate(440.730774 0) scale(0.996264)"/>
      <use xlink:href="#CMSS17-31" transform="translate(471.959887 0) scale(0.996264)"/>
      <use xlink:href="#CMSS17-2e" transform="translate(518.80351 0) scale(0.996264)"/>
      <use xlink:href="#CMSS17-35" transform="translate(544.827715 0) scale(0.996264)"/>
      <use xlink:href="#CMSS17-42" transform="translate(591.671339 0) scale(0.996264)"/>
      <use xlink:href="#CMSS17-2d" transform="translate(654.009379 0) scale(0.996264)"/>
      <use xlink:href="#CMSS17-42" transform="translate(685.238492 0) scale(0.996264)"/>
      <use xlink:href="#CMSS17-61" transform="translate(747.576532 0) scale(0.996264)"/>
      <use xlink:href="#CMSS17-73" transform="translate(792.498452 0) scale(0.996264)"/>
      <use xlink:href="#CMSS17-65" transform="translate(828.411994 0) scale(0.996264)"/>
     </g>
     <!-- File-Level composer -->
     <g style="fill: #262626" transform="translate(394.106383 29.415742) scale(0.105 -0.105)">
      <defs>
       <path id="CMSS17-46" d="M 2918 1984 
L 2918 2373 
L 1101 2373 
L 1101 3968 
L 1882 3968 
C 1958 3968 2035 3968 2112 3968 
L 3168 3968 
L 3168 4375 
L 563 4375 
L 563 -32 
L 1101 -32 
L 1101 1984 
L 2918 1984 
z
" transform="scale(0.015625)"/>
       <path id="CMSS17-4c" d="M 1670 414 
C 1594 414 1517 414 1440 414 
L 1101 414 
L 1101 4416 
L 563 4416 
L 563 0 
L 3002 0 
L 3002 414 
L 1670 414 
z
" transform="scale(0.015625)"/>
       <path id="CMSS17-76" d="M 2675 2752 
L 2176 2752 
L 1747 1556 
C 1613 1165 1421 627 1389 352 
L 1382 352 
C 1370 468 1318 634 1286 749 
C 1248 890 1197 1056 1158 1172 
L 595 2752 
L 83 2752 
L 1094 0 
L 1664 0 
L 2675 2752 
z
" transform="scale(0.015625)"/>
      </defs>
      <use xlink:href="#CMSS17-46" transform="scale(0.996264)"/>
      <use xlink:href="#CMSS17-69" transform="translate(53.289559 0) scale(0.996264)"/>
      <use xlink:href="#CMSS17-6c" transform="translate(75.470282 0) scale(0.996264)"/>
      <use xlink:href="#CMSS17-65" transform="translate(97.651005 0) scale(0.996264)"/>
      <use xlink:href="#CMSS17-2d" transform="translate(139.289827 0) scale(0.996264)"/>
      <use xlink:href="#CMSS17-4c" transform="translate(170.51894 0) scale(0.996264)"/>
      <use xlink:href="#CMSS17-65" transform="translate(221.206046 0) scale(0.996264)"/>
      <use xlink:href="#CMSS17-76" transform="translate(262.844868 0) scale(0.996264)"/>
      <use xlink:href="#CMSS17-65" transform="translate(305.845009 0) scale(0.996264)"/>
      <use xlink:href="#CMSS17-6c" transform="translate(347.483831 0) scale(0.996264)"/>
      <use xlink:href="#CMSS17-63" transform="translate(400.893667 0) scale(0.996264)"/>
      <use xlink:href="#CMSS17-6f" transform="translate(442.532489 0) scale(0.996264)"/>
      <use xlink:href="#CMSS17-6d" transform="translate(489.376113 0) scale(0.996264)"/>
      <use xlink:href="#CMSS17-70" transform="translate(563.605367 0) scale(0.996264)"/>
      <use xlink:href="#CMSS17-6f" transform="translate(614.412749 0) scale(0.996264)"/>
      <use xlink:href="#CMSS17-73" transform="translate(661.256373 0) scale(0.996264)"/>
      <use xlink:href="#CMSS17-65" transform="translate(697.169915 0) scale(0.996264)"/>
      <use xlink:href="#CMSS17-72" transform="translate(738.808737 0) scale(0.996264)"/>
     </g>
    </g>
    <g id="line2d_26">
     <path d="M 512.362705 21.382093 
L 522.862705 21.382093 
L 533.362705 21.382093 
" style="fill: none; stroke: #b1dd9f; stroke-width: 2.5; stroke-linecap: round"/>
     <g>
      <use xlink:href="#m552bbbcaa0" x="522.862705" y="21.382093" style="fill: #b1dd9f; stroke: #b1dd9f"/>
     </g>
    </g>
    <g id="text_20">
     <!-- DeepSeek-Coder-Base 1.3B -->
     <g style="fill: #262626" transform="translate(541.762705 25.057093) scale(0.105 -0.105)">
      <defs>
       <path id="CMSS17-6b" d="M 1696 1688 
L 2688 2739 
L 2074 2739 
L 954 1554 
L 954 4416 
L 480 4416 
L 480 0 
L 947 0 
L 947 892 
L 1376 1344 
L 2278 0 
L 2822 0 
L 1696 1688 
z
" transform="scale(0.015625)"/>
      </defs>
      <use xlink:href="#CMSS17-44" transform="scale(0.996264)"/>
      <use xlink:href="#CMSS17-65" transform="translate(67.542842 0) scale(0.996264)"/>
      <use xlink:href="#CMSS17-65" transform="translate(109.181664 0) scale(0.996264)"/>
      <use xlink:href="#CMSS17-70" transform="translate(150.820486 0) scale(0.996264)"/>
      <use xlink:href="#CMSS17-53" transform="translate(199.025429 0) scale(0.996264)"/>
      <use xlink:href="#CMSS17-65" transform="translate(251.073945 0) scale(0.996264)"/>
      <use xlink:href="#CMSS17-65" transform="translate(292.712767 0) scale(0.996264)"/>
      <use xlink:href="#CMSS17-6b" transform="translate(334.351589 0) scale(0.996264)"/>
      <use xlink:href="#CMSS17-2d" transform="translate(379.954078 0) scale(0.996264)"/>
      <use xlink:href="#CMSS17-43" transform="translate(411.183191 0) scale(0.996264)"/>
      <use xlink:href="#CMSS17-6f" transform="translate(471.038963 0) scale(0.996264)"/>
      <use xlink:href="#CMSS17-64" transform="translate(520.485025 0) scale(0.996264)"/>
      <use xlink:href="#CMSS17-65" transform="translate(568.689968 0) scale(0.996264)"/>
      <use xlink:href="#CMSS17-72" transform="translate(610.32879 0) scale(0.996264)"/>
      <use xlink:href="#CMSS17-2d" transform="translate(642.238563 0) scale(0.996264)"/>
      <use xlink:href="#CMSS17-42" transform="translate(673.467676 0) scale(0.996264)"/>
      <use xlink:href="#CMSS17-61" transform="translate(735.805716 0) scale(0.996264)"/>
      <use xlink:href="#CMSS17-73" transform="translate(780.727636 0) scale(0.996264)"/>
      <use xlink:href="#CMSS17-65" transform="translate(816.641178 0) scale(0.996264)"/>
      <use xlink:href="#CMSS17-31" transform="translate(889.509113 0) scale(0.996264)"/>
      <use xlink:href="#CMSS17-2e" transform="translate(936.352737 0) scale(0.996264)"/>
      <use xlink:href="#CMSS17-33" transform="translate(962.376942 0) scale(0.996264)"/>
      <use xlink:href="#CMSS17-42" transform="translate(1009.220565 0) scale(0.996264)"/>
     </g>
    </g>
   </g>
  </g>
 </g>
 <defs>
  <clipPath id="pdc68288f81">
   <rect x="45.050543" y="41.229068" width="637.72235" height="357.082436"/>
  </clipPath>
 </defs>
</svg>
