<?xml version="1.0" encoding="utf-8" standalone="no"?>
<!DOCTYPE svg PUBLIC "-//W3C//DTD SVG 1.1//EN"
  "http://www.w3.org/Graphics/SVG/1.1/DTD/svg11.dtd">
<svg xmlns:xlink="http://www.w3.org/1999/xlink" width="689.972893pt" height="444.693267pt" viewBox="0 0 689.972893 444.693267" xmlns="http://www.w3.org/2000/svg" version="1.1">
 <metadata>
  <rdf:RDF xmlns:dc="http://purl.org/dc/elements/1.1/" xmlns:cc="http://creativecommons.org/ns#" xmlns:rdf="http://www.w3.org/1999/02/22-rdf-syntax-ns#">
   <cc:Work>
    <dc:type rdf:resource="http://purl.org/dc/dcmitype/StillImage"/>
    <dc:date>2025-05-10T14:19:06.558776</dc:date>
    <dc:format>image/svg+xml</dc:format>
    <dc:creator>
     <cc:Agent>
      <dc:title>Matplotlib v3.10.1, https://matplotlib.org/</dc:title>
     </cc:Agent>
    </dc:creator>
   </cc:Work>
  </rdf:RDF>
 </metadata>
 <defs>
  <style type="text/css">*{stroke-linejoin: round; stroke-linecap: butt}</style>
 </defs>
 <g id="figure_1">
  <g id="patch_1">
   <path d="M 0 444.693267 
L 689.972893 444.693267 
L 689.972893 0 
L 0 0 
z
" style="fill: #ffffff"/>
  </g>
  <g id="axes_1">
   <g id="patch_2">
    <path d="M 42.331735 405.669781 
L 682.772893 405.669781 
L 682.772893 41.958267 
L 42.331735 41.958267 
z
" style="fill: #ffffff"/>
   </g>
   <g id="matplotlib.axis_1">
    <g id="xtick_1">
     <g id="text_1">
      <!-- PD-16K -->
      <g style="fill: #262626" transform="translate(100.973793 421.663809) scale(0.13 -0.13)">
       <defs>
        <path id="CMSS17-50" d="M 2106 1856 
C 2874 1856 3501 2453 3501 3158 
C 3501 3850 2899 4453 2067 4453 
L 570 4453 
L 570 0 
L 1107 0 
L 1107 1856 
L 2106 1856 
z
M 1926 4096 
C 2669 4096 2995 3627 2995 3157 
C 2995 2720 2694 2226 1926 2226 
L 1094 2226 
L 1094 4096 
L 1926 4096 
z
" transform="scale(0.015625)"/>
        <path id="CMSS17-44" d="M 570 4416 
L 570 0 
L 2144 0 
C 3194 0 4000 980 4000 2170 
C 4000 3398 3194 4416 2144 4416 
L 570 4416 
z
M 1094 357 
L 1094 4059 
L 2003 4059 
C 2861 4059 3475 3277 3475 2170 
C 3475 1107 2867 357 2003 357 
L 1094 357 
z
" transform="scale(0.015625)"/>
        <path id="CMSS17-2d" d="M 1664 1216 
L 1664 1585 
L 64 1585 
L 64 1216 
L 1664 1216 
z
" transform="scale(0.015625)"/>
        <path id="CMSS17-31" d="M 1818 4288 
L 1696 4288 
C 1350 3940 947 3890 538 3890 
L 538 3520 
C 723 3520 1024 3520 1325 3667 
L 1325 369 
L 570 369 
L 570 0 
L 2573 0 
L 2573 369 
L 1818 369 
L 1818 4288 
z
" transform="scale(0.015625)"/>
        <path id="CMSS17-36" d="M 2496 4101 
C 2227 4210 2035 4229 1856 4229 
C 1024 4229 250 3368 250 2006 
C 250 265 986 -128 1510 -128 
C 1798 -128 2086 -39 2362 280 
C 2643 617 2752 898 2752 1389 
C 2752 2179 2362 2880 1779 2880 
C 1357 2880 992 2657 768 2376 
C 832 3258 1254 3840 1862 3840 
C 2029 3840 2246 3816 2496 3710 
L 2496 4101 
z
M 774 1369 
C 774 1420 774 1452 781 1548 
C 781 2045 1069 2491 1536 2491 
C 1837 2491 1990 2332 2106 2135 
C 2240 1886 2246 1650 2246 1388 
C 2246 1140 2246 891 2099 637 
C 1978 439 1818 267 1510 267 
C 902 267 800 1114 774 1369 
z
" transform="scale(0.015625)"/>
        <path id="CMSS17-4b" d="M 2234 2666 
L 3827 4416 
L 3213 4416 
L 1101 2106 
L 1101 4416 
L 563 4416 
L 563 0 
L 1101 0 
L 1101 1432 
L 1875 2278 
L 3315 0 
L 3910 0 
L 2234 2666 
z
" transform="scale(0.015625)"/>
       </defs>
       <use xlink:href="#CMSS17-50" transform="scale(0.996264)"/>
       <use xlink:href="#CMSS17-44" transform="translate(59.735586 0) scale(0.996264)"/>
       <use xlink:href="#CMSS17-2d" transform="translate(127.278428 0) scale(0.996264)"/>
       <use xlink:href="#CMSS17-31" transform="translate(158.507541 0) scale(0.996264)"/>
       <use xlink:href="#CMSS17-36" transform="translate(205.351164 0) scale(0.996264)"/>
       <use xlink:href="#CMSS17-4b" transform="translate(252.194788 0) scale(0.996264)"/>
      </g>
      <!-- $\it{inproject}$ -->
      <g style="fill: #262626" transform="translate(98.507449 434.974954) scale(0.13 -0.13)">
       <defs>
        <path id="CMTI12-69" d="M 2042 3969 
C 2042 4090 1952 4160 1843 4160 
C 1728 4160 1562 4058 1562 3879 
C 1562 3739 1664 3688 1760 3688 
C 1888 3688 2042 3803 2042 3969 
z
M 864 722 
C 813 581 813 498 813 441 
C 813 70 1062 -64 1274 -64 
C 1862 -64 2067 888 2067 913 
C 2067 971 2010 971 1984 971 
C 1907 971 1901 952 1875 856 
C 1818 639 1651 64 1286 64 
C 1216 64 1139 96 1139 249 
C 1139 415 1229 645 1344 958 
L 1722 1993 
C 1779 2152 1792 2203 1792 2318 
C 1792 2644 1581 2816 1331 2816 
C 742 2816 531 1871 531 1839 
C 531 1782 589 1782 621 1782 
C 698 1782 704 1801 730 1890 
C 781 2095 947 2689 1318 2689 
C 1459 2689 1459 2567 1459 2497 
C 1459 2331 1421 2222 1376 2108 
L 864 722 
z
" transform="scale(0.015625)"/>
        <path id="CMTI12-6e" d="M 1587 1731 
C 1626 1871 1971 2689 2586 2689 
C 2880 2689 2880 2369 2880 2261 
C 2880 1865 2598 1098 2490 786 
C 2432 626 2406 568 2406 434 
C 2406 128 2605 -64 2867 -64 
C 3462 -64 3667 888 3667 913 
C 3667 971 3610 971 3584 971 
C 3507 971 3501 952 3475 856 
C 3418 639 3245 64 2886 64 
C 2790 64 2739 109 2739 255 
C 2739 409 2810 607 2861 734 
C 3027 1201 3245 1795 3245 2165 
C 3245 2503 3098 2816 2605 2816 
C 2208 2816 1907 2586 1696 2299 
C 1677 2586 1478 2816 1184 2816 
C 1037 2816 870 2753 736 2478 
C 614 2242 531 1858 531 1846 
C 531 1795 563 1782 621 1782 
C 691 1782 698 1788 736 1935 
C 832 2312 954 2689 1171 2689 
C 1338 2689 1338 2503 1338 2427 
C 1338 2305 1312 2165 1286 2076 
L 819 211 
C 794 121 794 115 794 89 
C 794 13 845 -64 960 -64 
C 1107 -64 1171 51 1197 160 
L 1587 1731 
z
" transform="scale(0.015625)"/>
        <path id="CMTI12-70" d="M 563 -801 
C 512 -998 467 -1037 224 -1037 
C 154 -1037 90 -1037 90 -1158 
C 90 -1204 134 -1216 166 -1216 
C 333 -1216 518 -1216 691 -1216 
C 883 -1216 1088 -1216 1274 -1216 
C 1312 -1216 1389 -1216 1389 -1105 
C 1389 -1037 1350 -1037 1235 -1037 
C 1094 -1037 928 -1037 928 -942 
C 928 -885 934 -841 1235 319 
C 1299 160 1459 -64 1760 -64 
C 2458 -64 3194 920 3194 1846 
C 3194 2401 2899 2816 2458 2816 
C 2054 2816 1722 2408 1690 2363 
C 1632 2676 1402 2816 1184 2816 
C 1037 2816 870 2753 736 2478 
C 614 2242 531 1858 531 1846 
C 531 1795 563 1782 621 1782 
C 691 1782 698 1788 736 1935 
C 832 2312 954 2689 1171 2689 
C 1338 2689 1338 2504 1338 2428 
C 1338 2307 1312 2173 1286 2079 
L 563 -801 
z
M 1645 1967 
C 1696 2165 2086 2689 2438 2689 
C 2669 2689 2790 2452 2790 2114 
C 2790 1756 2573 958 2445 690 
C 2221 243 1958 64 1760 64 
C 1363 64 1325 664 1325 671 
C 1325 690 1331 709 1344 760 
L 1645 1967 
z
" transform="scale(0.015625)"/>
        <path id="CMTI12-72" d="M 1613 1827 
C 1632 1903 1920 2689 2458 2689 
C 2490 2689 2669 2689 2810 2600 
C 2714 2575 2592 2479 2592 2318 
C 2592 2184 2694 2133 2790 2133 
C 2906 2133 3078 2216 3078 2446 
C 3078 2772 2643 2816 2464 2816 
C 2170 2816 1926 2676 1690 2344 
C 1632 2721 1357 2816 1184 2816 
C 1037 2816 870 2753 736 2478 
C 614 2242 531 1858 531 1846 
C 531 1795 563 1782 621 1782 
C 691 1782 698 1788 736 1935 
C 832 2312 954 2689 1171 2689 
C 1338 2689 1338 2503 1338 2427 
C 1338 2305 1312 2165 1286 2076 
L 819 211 
C 794 121 794 115 794 89 
C 794 13 845 -64 960 -64 
C 1107 -64 1171 57 1197 160 
L 1613 1827 
z
" transform="scale(0.015625)"/>
        <path id="CMTI12-6f" d="M 3181 1782 
C 3181 2446 2771 2816 2291 2816 
C 1510 2816 704 1916 704 971 
C 704 281 1133 -64 1594 -64 
C 2374 -64 3181 849 3181 1782 
z
M 1600 64 
C 1331 64 1114 294 1114 728 
C 1114 1022 1267 1724 1478 2088 
C 1715 2497 2042 2689 2278 2689 
C 2605 2689 2771 2389 2771 2024 
C 2771 1750 2618 1028 2413 677 
C 2150 224 1824 64 1600 64 
z
" transform="scale(0.015625)"/>
        <path id="CMTI12-6a" d="M 2246 3969 
C 2246 4058 2182 4160 2048 4160 
C 1901 4160 1760 4026 1760 3879 
C 1760 3784 1830 3688 1958 3688 
C 2106 3688 2246 3828 2246 3969 
z
M 986 -359 
C 915 -631 672 -1152 275 -1152 
C 230 -1152 128 -1152 38 -1089 
C 230 -1025 262 -867 262 -809 
C 262 -727 205 -625 58 -625 
C -83 -625 -230 -745 -230 -931 
C -230 -1159 0 -1280 275 -1280 
C 787 -1280 1261 -829 1382 -340 
L 1978 2035 
C 1978 2041 2010 2163 2010 2257 
C 2010 2549 1830 2816 1485 2816 
C 858 2816 531 1883 531 1844 
C 531 1793 582 1787 621 1787 
C 691 1787 698 1793 742 1907 
C 896 2314 1152 2689 1472 2689 
C 1632 2689 1651 2568 1651 2429 
C 1651 2352 1645 2257 1606 2111 
L 986 -359 
z
" transform="scale(0.015625)"/>
        <path id="CMTI12-65" d="M 1472 1473 
C 1696 1473 2899 1473 2899 2282 
C 2899 2572 2662 2816 2285 2816 
C 1619 2816 730 2165 730 1041 
C 730 396 1062 -64 1606 -64 
C 2400 -64 2925 577 2925 667 
C 2925 711 2874 762 2835 762 
C 2816 762 2810 756 2758 699 
C 2419 242 1939 64 1613 64 
C 1190 64 1133 565 1133 768 
C 1133 1048 1178 1226 1242 1473 
L 1472 1473 
z
M 1280 1600 
C 1536 2624 2163 2689 2278 2689 
C 2534 2689 2682 2509 2682 2290 
C 2682 1600 1619 1600 1414 1600 
L 1280 1600 
z
" transform="scale(0.015625)"/>
        <path id="CMTI12-63" d="M 2752 2368 
C 2592 2368 2451 2246 2451 2093 
C 2451 1933 2592 1902 2650 1902 
C 2714 1902 2950 1940 2950 2275 
C 2950 2578 2682 2816 2291 2816 
C 1510 2816 704 1916 704 971 
C 704 319 1094 -64 1606 -64 
C 2400 -64 2925 578 2925 668 
C 2925 712 2874 763 2835 763 
C 2816 763 2810 757 2758 700 
C 2419 242 1939 64 1613 64 
C 1286 64 1114 351 1114 728 
C 1114 1022 1267 1724 1478 2088 
C 1696 2472 2010 2689 2285 2689 
C 2323 2689 2662 2689 2752 2368 
z
" transform="scale(0.015625)"/>
        <path id="CMTI12-74" d="M 1638 2566 
L 2170 2566 
C 2278 2566 2342 2566 2342 2681 
C 2342 2752 2298 2752 2189 2752 
L 1683 2752 
L 1939 3762 
C 1946 3775 1952 3833 1952 3846 
C 1952 3904 1907 4000 1786 4000 
C 1626 4000 1568 3859 1542 3762 
L 1293 2752 
L 749 2752 
C 634 2752 576 2752 576 2630 
C 576 2566 627 2566 730 2566 
L 1248 2566 
L 787 728 
C 755 600 755 524 755 498 
C 755 204 928 -64 1280 -64 
C 1907 -64 2227 881 2227 913 
C 2227 971 2170 971 2144 971 
C 2074 971 2067 958 2035 888 
C 1958 690 1709 64 1293 64 
C 1197 64 1107 109 1107 319 
C 1107 415 1133 562 1158 658 
L 1638 2566 
z
" transform="scale(0.015625)"/>
       </defs>
       <use xlink:href="#CMTI12-69" transform="scale(0.996264)"/>
       <use xlink:href="#CMTI12-6e" transform="translate(29.888224 0) scale(0.996264)"/>
       <use xlink:href="#CMTI12-70" transform="translate(84.683323 0) scale(0.996264)"/>
       <use xlink:href="#CMTI12-72" transform="translate(134.496994 0) scale(0.996264)"/>
       <use xlink:href="#CMTI12-6f" transform="translate(170.612036 0) scale(0.996264)"/>
       <use xlink:href="#CMTI12-6a" transform="translate(220.425708 0) scale(0.996264)"/>
       <use xlink:href="#CMTI12-65" transform="translate(250.313932 0) scale(0.996264)"/>
       <use xlink:href="#CMTI12-63" transform="translate(290.164918 0) scale(0.996264)"/>
       <use xlink:href="#CMTI12-74" transform="translate(334.997255 0) scale(0.996264)"/>
      </g>
     </g>
    </g>
    <g id="xtick_2">
     <g id="text_2">
      <!-- PD-16K -->
      <g style="fill: #262626" transform="translate(261.084083 421.663809) scale(0.13 -0.13)">
       <use xlink:href="#CMSS17-50" transform="scale(0.996264)"/>
       <use xlink:href="#CMSS17-44" transform="translate(59.735586 0) scale(0.996264)"/>
       <use xlink:href="#CMSS17-2d" transform="translate(127.278428 0) scale(0.996264)"/>
       <use xlink:href="#CMSS17-31" transform="translate(158.507541 0) scale(0.996264)"/>
       <use xlink:href="#CMSS17-36" transform="translate(205.351164 0) scale(0.996264)"/>
       <use xlink:href="#CMSS17-4b" transform="translate(252.194788 0) scale(0.996264)"/>
      </g>
      <!-- $\it{infile}$ -->
      <g style="fill: #262626" transform="translate(268.898027 434.974954) scale(0.13 -0.13)">
       <defs>
        <path id="CMTI12-c" d="M 1741 2566 
L 3002 2566 
L 2541 728 
C 2509 600 2509 524 2509 498 
C 2509 160 2726 -64 3021 -64 
C 3270 -64 3398 121 3482 307 
C 3590 530 3667 894 3667 913 
C 3667 971 3610 971 3584 971 
C 3507 971 3501 964 3462 817 
C 3334 287 3213 64 3034 64 
C 2893 64 2861 198 2861 319 
C 2861 434 2886 549 2912 658 
L 3418 2694 
C 3418 2752 3379 2752 3277 2752 
L 1773 2752 
C 1824 2986 1830 3055 1888 3339 
C 2016 3954 2099 4352 2874 4352 
C 2970 4352 3354 4352 3514 4168 
C 3315 4136 3251 3966 3251 3884 
C 3251 3802 3309 3700 3456 3700 
C 3603 3700 3750 3821 3750 4030 
C 3750 4480 3021 4480 2867 4480 
C 2138 4480 1683 4227 1510 3372 
L 1389 2752 
L 986 2752 
C 877 2752 819 2752 819 2630 
C 819 2566 870 2566 973 2566 
L 1350 2566 
L 883 199 
C 806 -200 723 -511 685 -651 
C 634 -848 557 -1152 326 -1152 
C 301 -1152 141 -1152 58 -1033 
C 294 -989 320 -801 320 -751 
C 320 -633 230 -570 122 -570 
C -26 -570 -173 -683 -173 -891 
C -173 -1135 64 -1280 326 -1280 
C 845 -1280 1146 -480 1344 542 
L 1741 2566 
z
" transform="scale(0.015625)"/>
        <path id="CMTI12-6c" d="M 1907 4275 
C 1914 4314 1926 4339 1926 4358 
C 1926 4416 1882 4416 1779 4416 
L 1139 4358 
C 1050 4352 992 4346 992 4232 
C 992 4168 1043 4168 1133 4168 
C 1453 4168 1453 4110 1453 4047 
C 1453 4022 1440 3958 1434 3932 
L 627 720 
C 614 663 595 593 595 497 
C 595 160 813 -64 1107 -64 
C 1325 -64 1453 83 1542 261 
C 1658 472 1747 886 1747 905 
C 1747 969 1696 969 1664 969 
C 1638 969 1594 969 1581 930 
C 1574 911 1549 815 1530 758 
C 1446 446 1338 64 1120 64 
C 979 64 947 198 947 318 
C 947 401 979 580 998 663 
L 1907 4275 
z
" transform="scale(0.015625)"/>
       </defs>
       <use xlink:href="#CMTI12-69" transform="scale(0.996264)"/>
       <use xlink:href="#CMTI12-6e" transform="translate(29.888224 0) scale(0.996264)"/>
       <use xlink:href="#CMTI12-c" transform="translate(84.683323 0) scale(0.996264)"/>
       <use xlink:href="#CMTI12-6c" transform="translate(139.478527 0) scale(0.996264)"/>
       <use xlink:href="#CMTI12-65" transform="translate(164.385401 0) scale(0.996264)"/>
      </g>
     </g>
    </g>
    <g id="xtick_3">
     <g id="text_3">
      <!-- FL-16K -->
      <g style="fill: #262626" transform="translate(422.760833 421.663809) scale(0.13 -0.13)">
       <defs>
        <path id="CMSS17-46" d="M 2918 1984 
L 2918 2373 
L 1101 2373 
L 1101 3968 
L 1882 3968 
C 1958 3968 2035 3968 2112 3968 
L 3168 3968 
L 3168 4375 
L 563 4375 
L 563 -32 
L 1101 -32 
L 1101 1984 
L 2918 1984 
z
" transform="scale(0.015625)"/>
        <path id="CMSS17-4c" d="M 1670 414 
C 1594 414 1517 414 1440 414 
L 1101 414 
L 1101 4416 
L 563 4416 
L 563 0 
L 3002 0 
L 3002 414 
L 1670 414 
z
" transform="scale(0.015625)"/>
       </defs>
       <use xlink:href="#CMSS17-46" transform="scale(0.996264)"/>
       <use xlink:href="#CMSS17-4c" transform="translate(53.289559 0) scale(0.996264)"/>
       <use xlink:href="#CMSS17-2d" transform="translate(103.976665 0) scale(0.996264)"/>
       <use xlink:href="#CMSS17-31" transform="translate(135.205777 0) scale(0.996264)"/>
       <use xlink:href="#CMSS17-36" transform="translate(182.049401 0) scale(0.996264)"/>
       <use xlink:href="#CMSS17-4b" transform="translate(228.893024 0) scale(0.996264)"/>
      </g>
      <!-- $\it{inproject}$ -->
      <g style="fill: #262626" transform="translate(418.728028 434.974954) scale(0.13 -0.13)">
       <use xlink:href="#CMTI12-69" transform="scale(0.996264)"/>
       <use xlink:href="#CMTI12-6e" transform="translate(29.888224 0) scale(0.996264)"/>
       <use xlink:href="#CMTI12-70" transform="translate(84.683323 0) scale(0.996264)"/>
       <use xlink:href="#CMTI12-72" transform="translate(134.496994 0) scale(0.996264)"/>
       <use xlink:href="#CMTI12-6f" transform="translate(170.612036 0) scale(0.996264)"/>
       <use xlink:href="#CMTI12-6a" transform="translate(220.425708 0) scale(0.996264)"/>
       <use xlink:href="#CMTI12-65" transform="translate(250.313932 0) scale(0.996264)"/>
       <use xlink:href="#CMTI12-63" transform="translate(290.164918 0) scale(0.996264)"/>
       <use xlink:href="#CMTI12-74" transform="translate(334.997255 0) scale(0.996264)"/>
      </g>
     </g>
    </g>
    <g id="xtick_4">
     <g id="text_4">
      <!-- FL-16K -->
      <g style="fill: #262626" transform="translate(582.871122 421.663809) scale(0.13 -0.13)">
       <use xlink:href="#CMSS17-46" transform="scale(0.996264)"/>
       <use xlink:href="#CMSS17-4c" transform="translate(53.289559 0) scale(0.996264)"/>
       <use xlink:href="#CMSS17-2d" transform="translate(103.976665 0) scale(0.996264)"/>
       <use xlink:href="#CMSS17-31" transform="translate(135.205777 0) scale(0.996264)"/>
       <use xlink:href="#CMSS17-36" transform="translate(182.049401 0) scale(0.996264)"/>
       <use xlink:href="#CMSS17-4b" transform="translate(228.893024 0) scale(0.996264)"/>
      </g>
      <!-- $\it{infile}$ -->
      <g style="fill: #262626" transform="translate(589.118606 434.974954) scale(0.13 -0.13)">
       <use xlink:href="#CMTI12-69" transform="scale(0.996264)"/>
       <use xlink:href="#CMTI12-6e" transform="translate(29.888224 0) scale(0.996264)"/>
       <use xlink:href="#CMTI12-c" transform="translate(84.683323 0) scale(0.996264)"/>
       <use xlink:href="#CMTI12-6c" transform="translate(139.478527 0) scale(0.996264)"/>
       <use xlink:href="#CMTI12-65" transform="translate(164.385401 0) scale(0.996264)"/>
      </g>
     </g>
    </g>
   </g>
   <g id="matplotlib.axis_2">
    <g id="ytick_1">
     <g id="line2d_1">
      <path d="M 42.331735 405.669781 
L 682.772893 405.669781 
" clip-path="url(#pfccd94b96f)" style="fill: none; stroke: #cccccc; stroke-width: 0.8; stroke-linecap: round"/>
     </g>
     <g id="text_5">
      <!-- $\mathdefault{0}$ -->
      <g style="fill: #262626" transform="translate(30.3504 409.12903) scale(0.1 -0.1)">
       <defs>
        <path id="CMR17-30" d="M 2688 2025 
C 2688 2416 2682 3080 2413 3591 
C 2176 4039 1798 4198 1466 4198 
C 1158 4198 768 4058 525 3597 
C 269 3118 243 2524 243 2025 
C 243 1661 250 1106 448 619 
C 723 -39 1216 -128 1466 -128 
C 1760 -128 2208 -7 2470 600 
C 2662 1042 2688 1559 2688 2025 
z
M 1466 -26 
C 1056 -26 813 325 723 812 
C 653 1188 653 1738 653 2096 
C 653 2588 653 2997 736 3387 
C 858 3929 1216 4096 1466 4096 
C 1728 4096 2067 3923 2189 3400 
C 2272 3036 2278 2607 2278 2096 
C 2278 1680 2278 1169 2202 792 
C 2067 95 1690 -26 1466 -26 
z
" transform="scale(0.015625)"/>
       </defs>
       <use xlink:href="#CMR17-30" transform="scale(0.996264)"/>
      </g>
     </g>
    </g>
    <g id="ytick_2">
     <g id="line2d_2">
      <path d="M 42.331735 345.051195 
L 682.772893 345.051195 
" clip-path="url(#pfccd94b96f)" style="fill: none; stroke: #cccccc; stroke-width: 0.8; stroke-linecap: round"/>
     </g>
     <g id="text_6">
      <!-- $\mathdefault{10}$ -->
      <g style="fill: #262626" transform="translate(25.369064 348.510444) scale(0.1 -0.1)">
       <defs>
        <path id="CMR17-31" d="M 1702 4058 
C 1702 4192 1696 4192 1606 4192 
C 1357 3916 979 3827 621 3827 
C 602 3827 570 3827 563 3808 
C 557 3795 557 3782 557 3648 
C 755 3648 1088 3686 1344 3839 
L 1344 461 
C 1344 236 1331 160 781 160 
L 589 160 
L 589 0 
C 896 0 1216 0 1523 0 
C 1830 0 2150 0 2458 0 
L 2458 160 
L 2266 160 
C 1715 160 1702 230 1702 458 
L 1702 4058 
z
" transform="scale(0.015625)"/>
       </defs>
       <use xlink:href="#CMR17-31" transform="scale(0.996264)"/>
       <use xlink:href="#CMR17-30" transform="translate(45.690477 0) scale(0.996264)"/>
      </g>
     </g>
    </g>
    <g id="ytick_3">
     <g id="line2d_3">
      <path d="M 42.331735 284.432609 
L 682.772893 284.432609 
" clip-path="url(#pfccd94b96f)" style="fill: none; stroke: #cccccc; stroke-width: 0.8; stroke-linecap: round"/>
     </g>
     <g id="text_7">
      <!-- $\mathdefault{20}$ -->
      <g style="fill: #262626" transform="translate(25.369064 287.891858) scale(0.1 -0.1)">
       <defs>
        <path id="CMR17-32" d="M 2669 989 
L 2554 989 
C 2490 536 2438 459 2413 420 
C 2381 369 1920 369 1830 369 
L 602 369 
C 832 619 1280 1072 1824 1597 
C 2214 1967 2669 2402 2669 3035 
C 2669 3790 2067 4224 1395 4224 
C 691 4224 262 3604 262 3030 
C 262 2780 448 2748 525 2748 
C 589 2748 781 2787 781 3010 
C 781 3207 614 3264 525 3264 
C 486 3264 448 3258 422 3245 
C 544 3790 915 4058 1306 4058 
C 1862 4058 2227 3617 2227 3035 
C 2227 2479 1901 2000 1536 1584 
L 262 146 
L 262 0 
L 2515 0 
L 2669 989 
z
" transform="scale(0.015625)"/>
       </defs>
       <use xlink:href="#CMR17-32" transform="scale(0.996264)"/>
       <use xlink:href="#CMR17-30" transform="translate(45.690477 0) scale(0.996264)"/>
      </g>
     </g>
    </g>
    <g id="ytick_4">
     <g id="line2d_4">
      <path d="M 42.331735 223.814024 
L 682.772893 223.814024 
" clip-path="url(#pfccd94b96f)" style="fill: none; stroke: #cccccc; stroke-width: 0.8; stroke-linecap: round"/>
     </g>
     <g id="text_8">
      <!-- $\mathdefault{30}$ -->
      <g style="fill: #262626" transform="translate(25.369064 227.273273) scale(0.1 -0.1)">
       <defs>
        <path id="CMR17-33" d="M 1414 2157 
C 1984 2157 2234 1662 2234 1090 
C 2234 320 1824 25 1453 25 
C 1114 25 563 194 390 693 
C 422 680 454 680 486 680 
C 640 680 755 782 755 948 
C 755 1133 614 1216 486 1216 
C 378 1216 211 1165 211 926 
C 211 335 787 -128 1466 -128 
C 2176 -128 2720 430 2720 1085 
C 2720 1707 2208 2157 1600 2227 
C 2086 2328 2554 2756 2554 3329 
C 2554 3820 2048 4179 1472 4179 
C 890 4179 378 3829 378 3329 
C 378 3110 544 3072 627 3072 
C 762 3072 877 3155 877 3321 
C 877 3486 762 3569 627 3569 
C 602 3569 570 3569 544 3557 
C 730 3959 1235 4032 1459 4032 
C 1683 4032 2106 3925 2106 3320 
C 2106 3143 2080 2828 1862 2550 
C 1670 2304 1453 2304 1242 2284 
C 1210 2284 1062 2269 1037 2269 
C 992 2263 966 2257 966 2208 
C 966 2163 973 2157 1101 2157 
L 1414 2157 
z
" transform="scale(0.015625)"/>
       </defs>
       <use xlink:href="#CMR17-33" transform="scale(0.996264)"/>
       <use xlink:href="#CMR17-30" transform="translate(45.690477 0) scale(0.996264)"/>
      </g>
     </g>
    </g>
    <g id="ytick_5">
     <g id="line2d_5">
      <path d="M 42.331735 163.195438 
L 682.772893 163.195438 
" clip-path="url(#pfccd94b96f)" style="fill: none; stroke: #cccccc; stroke-width: 0.8; stroke-linecap: round"/>
     </g>
     <g id="text_9">
      <!-- $\mathdefault{40}$ -->
      <g style="fill: #262626" transform="translate(25.369064 166.654687) scale(0.1 -0.1)">
       <defs>
        <path id="CMR17-34" d="M 2150 4122 
C 2150 4256 2144 4256 2029 4256 
L 128 1254 
L 128 1088 
L 1779 1088 
L 1779 457 
C 1779 224 1766 160 1318 160 
L 1197 160 
L 1197 0 
C 1402 0 1747 0 1965 0 
C 2182 0 2528 0 2733 0 
L 2733 160 
L 2611 160 
C 2163 160 2150 224 2150 457 
L 2150 1088 
L 2803 1088 
L 2803 1254 
L 2150 1254 
L 2150 4122 
z
M 1798 3703 
L 1798 1254 
L 256 1254 
L 1798 3703 
z
" transform="scale(0.015625)"/>
       </defs>
       <use xlink:href="#CMR17-34" transform="scale(0.996264)"/>
       <use xlink:href="#CMR17-30" transform="translate(45.690477 0) scale(0.996264)"/>
      </g>
     </g>
    </g>
    <g id="ytick_6">
     <g id="line2d_6">
      <path d="M 42.331735 102.576852 
L 682.772893 102.576852 
" clip-path="url(#pfccd94b96f)" style="fill: none; stroke: #cccccc; stroke-width: 0.8; stroke-linecap: round"/>
     </g>
     <g id="text_10">
      <!-- $\mathdefault{50}$ -->
      <g style="fill: #262626" transform="translate(25.369064 106.036101) scale(0.1 -0.1)">
       <defs>
        <path id="CMR17-35" d="M 730 3692 
C 794 3666 1056 3584 1325 3584 
C 1920 3584 2246 3911 2432 4100 
C 2432 4157 2432 4192 2394 4192 
C 2387 4192 2374 4192 2323 4163 
C 2099 4058 1837 3973 1517 3973 
C 1325 3973 1037 3999 723 4139 
C 653 4171 640 4171 634 4171 
C 602 4171 595 4164 595 4037 
L 595 2203 
C 595 2089 595 2057 659 2057 
C 691 2057 704 2070 736 2114 
C 941 2401 1222 2522 1542 2522 
C 1766 2522 2246 2382 2246 1289 
C 2246 1085 2246 715 2054 421 
C 1894 159 1645 25 1370 25 
C 947 25 518 320 403 814 
C 429 807 480 795 506 795 
C 589 795 749 840 749 1038 
C 749 1210 627 1280 506 1280 
C 358 1280 262 1190 262 1011 
C 262 454 704 -128 1382 -128 
C 2042 -128 2669 440 2669 1264 
C 2669 2030 2170 2624 1549 2624 
C 1222 2624 947 2503 730 2274 
L 730 3692 
z
" transform="scale(0.015625)"/>
       </defs>
       <use xlink:href="#CMR17-35" transform="scale(0.996264)"/>
       <use xlink:href="#CMR17-30" transform="translate(45.690477 0) scale(0.996264)"/>
      </g>
     </g>
    </g>
    <g id="ytick_7">
     <g id="line2d_7">
      <path d="M 42.331735 41.958267 
L 682.772893 41.958267 
" clip-path="url(#pfccd94b96f)" style="fill: none; stroke: #cccccc; stroke-width: 0.8; stroke-linecap: round"/>
     </g>
     <g id="text_11">
      <!-- $\mathdefault{60}$ -->
      <g style="fill: #262626" transform="translate(25.369064 45.417516) scale(0.1 -0.1)">
       <defs>
        <path id="CMR17-36" d="M 678 2176 
C 678 3690 1395 4032 1811 4032 
C 1946 4032 2272 4009 2400 3776 
C 2298 3776 2106 3776 2106 3553 
C 2106 3381 2246 3323 2336 3323 
C 2394 3323 2566 3348 2566 3560 
C 2566 3954 2246 4179 1805 4179 
C 1043 4179 243 3390 243 1984 
C 243 253 966 -128 1478 -128 
C 2099 -128 2688 427 2688 1283 
C 2688 2081 2170 2662 1517 2662 
C 1126 2662 838 2407 678 1960 
L 678 2176 
z
M 1478 25 
C 691 25 691 1200 691 1436 
C 691 1896 909 2560 1504 2560 
C 1613 2560 1926 2560 2138 2120 
C 2253 1870 2253 1609 2253 1289 
C 2253 944 2253 690 2118 434 
C 1978 171 1773 25 1478 25 
z
" transform="scale(0.015625)"/>
       </defs>
       <use xlink:href="#CMR17-36" transform="scale(0.996264)"/>
       <use xlink:href="#CMR17-30" transform="translate(45.690477 0) scale(0.996264)"/>
      </g>
     </g>
    </g>
    <g id="text_12">
     <!-- Exact Match -->
     <g style="fill: #262626" transform="translate(18.269588 265.453712) rotate(-90) scale(0.16 -0.16)">
      <defs>
       <path id="CMSS17-45" d="M 1958 433 
C 1446 433 1216 433 1101 433 
L 1101 2107 
L 3085 2107 
L 3085 2496 
L 1101 2496 
L 1101 4009 
L 1926 4009 
C 2003 4009 2080 4009 2157 4009 
L 3251 4009 
L 3251 4416 
L 563 4416 
L 563 0 
L 3334 0 
L 3334 433 
L 1958 433 
z
" transform="scale(0.015625)"/>
       <path id="CMSS17-78" d="M 1587 1414 
L 2656 2739 
L 2099 2739 
L 1363 1777 
L 602 2739 
L 32 2739 
L 1139 1414 
L 0 0 
L 563 0 
L 1363 1121 
L 2195 0 
L 2758 0 
L 1587 1414 
z
" transform="scale(0.015625)"/>
       <path id="CMSS17-61" d="M 2406 1791 
C 2406 2392 1978 2808 1402 2808 
C 1120 2808 813 2757 461 2553 
L 499 2135 
C 659 2248 934 2432 1395 2432 
C 1722 2432 1920 2180 1920 1782 
L 1920 1536 
C 896 1536 256 1238 256 726 
C 256 461 416 -64 947 -64 
C 1043 -64 1562 -64 1933 217 
L 1933 -19 
L 2406 -19 
L 2406 1791 
z
M 1920 816 
C 1920 701 1920 548 1728 434 
C 1562 325 1350 325 1261 325 
C 941 325 723 511 723 744 
C 723 1211 1722 1211 1920 1211 
L 1920 816 
z
" transform="scale(0.015625)"/>
       <path id="CMSS17-63" d="M 2464 2541 
C 2464 2585 2170 2714 2093 2739 
C 1882 2816 1613 2816 1542 2816 
C 710 2816 211 2093 211 1363 
C 211 595 768 -64 1517 -64 
C 1946 -64 2253 76 2502 242 
L 2464 664 
C 2189 453 1869 337 1523 337 
C 1024 337 698 774 698 1369 
C 698 1831 909 2414 1549 2414 
C 1901 2414 2099 2343 2394 2145 
L 2464 2541 
z
" transform="scale(0.015625)"/>
       <path id="CMSS17-74" d="M 1069 2368 
L 1901 2368 
L 1901 2737 
L 1069 2737 
L 1069 3520 
L 614 3520 
L 614 2737 
L 109 2737 
L 109 2368 
L 602 2368 
L 602 749 
C 602 384 685 -64 1107 -64 
C 1427 -64 1722 25 2003 172 
L 1901 548 
C 1747 414 1562 337 1363 337 
C 1082 337 1069 696 1069 856 
L 1069 2368 
z
" transform="scale(0.015625)"/>
       <path id="CMSS17-4d" d="M 3194 2371 
L 2886 1473 
C 2835 1307 2662 791 2624 587 
L 2618 587 
C 2598 715 2560 849 2458 1174 
C 2400 1365 2336 1562 2272 1741 
L 1325 4416 
L 576 4416 
L 576 0 
L 1075 0 
L 1075 3900 
L 1082 3900 
C 1082 3894 1139 3613 1530 2499 
L 2374 96 
L 2848 96 
L 3610 2231 
C 3661 2378 3821 2843 3891 3066 
C 3955 3257 4115 3728 4154 3913 
L 4160 3913 
L 4160 0 
L 4666 0 
L 4666 4416 
L 3923 4416 
L 3194 2371 
z
" transform="scale(0.015625)"/>
       <path id="CMSS17-68" d="M 2618 1891 
C 2618 2292 2522 2820 1798 2820 
C 1395 2820 1133 2623 947 2407 
L 947 4448 
L 474 4448 
L 474 32 
L 960 32 
L 960 1573 
C 960 1973 1114 2432 1549 2432 
C 2112 2432 2131 2056 2131 1839 
L 2131 32 
L 2618 32 
L 2618 1891 
z
" transform="scale(0.015625)"/>
      </defs>
      <use xlink:href="#CMSS17-45" transform="scale(0.996264)"/>
      <use xlink:href="#CMSS17-78" transform="translate(55.892013 0) scale(0.996264)"/>
      <use xlink:href="#CMSS17-61" transform="translate(98.892155 0) scale(0.996264)"/>
      <use xlink:href="#CMSS17-63" transform="translate(143.814076 0) scale(0.996264)"/>
      <use xlink:href="#CMSS17-74" transform="translate(185.452898 0) scale(0.996264)"/>
      <use xlink:href="#CMSS17-4d" transform="translate(250.513577 0) scale(0.996264)"/>
      <use xlink:href="#CMSS17-61" transform="translate(332.189607 0) scale(0.996264)"/>
      <use xlink:href="#CMSS17-74" transform="translate(377.111528 0) scale(0.996264)"/>
      <use xlink:href="#CMSS17-63" transform="translate(410.943094 0) scale(0.996264)"/>
      <use xlink:href="#CMSS17-68" transform="translate(452.581916 0) scale(0.996264)"/>
     </g>
    </g>
   </g>
   <g id="patch_3">
    <path d="M 58.342764 405.669781 
L 90.364822 405.669781 
L 90.364822 107.426339 
L 58.342764 107.426339 
z
" clip-path="url(#pfccd94b96f)" style="fill: #c4dcf4; stroke: #ffffff; stroke-linejoin: miter"/>
   </g>
   <g id="patch_4">
    <path d="M 218.453053 405.669781 
L 250.475111 405.669781 
L 250.475111 91.665507 
L 218.453053 91.665507 
z
" clip-path="url(#pfccd94b96f)" style="fill: #c4dcf4; stroke: #ffffff; stroke-linejoin: miter"/>
   </g>
   <g id="patch_5">
    <path d="M 378.563343 405.669781 
L 410.585401 405.669781 
L 410.585401 237.150112 
L 378.563343 237.150112 
z
" clip-path="url(#pfccd94b96f)" style="fill: #c4dcf4; stroke: #ffffff; stroke-linejoin: miter"/>
   </g>
   <g id="patch_6">
    <path d="M 538.673632 405.669781 
L 570.69569 405.669781 
L 570.69569 191.079987 
L 538.673632 191.079987 
z
" clip-path="url(#pfccd94b96f)" style="fill: #c4dcf4; stroke: #ffffff; stroke-linejoin: miter"/>
   </g>
   <g id="patch_7">
    <path d="M 154.408938 405.669781 
L 186.430996 405.669781 
L 186.430996 147.434606 
L 154.408938 147.434606 
z
" clip-path="url(#pfccd94b96f)" style="fill: #b4d5a7; stroke: #ffffff; stroke-linejoin: miter"/>
   </g>
   <g id="patch_8">
    <path d="M 314.519227 405.669781 
L 346.541285 405.669781 
L 346.541285 135.310888 
L 314.519227 135.310888 
z
" clip-path="url(#pfccd94b96f)" style="fill: #b4d5a7; stroke: #ffffff; stroke-linejoin: miter"/>
   </g>
   <g id="patch_9">
    <path d="M 474.629517 405.669781 
L 506.651574 405.669781 
L 506.651574 251.092387 
L 474.629517 251.092387 
z
" clip-path="url(#pfccd94b96f)" style="fill: #b4d5a7; stroke: #ffffff; stroke-linejoin: miter"/>
   </g>
   <g id="patch_10">
    <path d="M 634.739806 405.669781 
L 666.761864 405.669781 
L 666.761864 217.145979 
L 634.739806 217.145979 
z
" clip-path="url(#pfccd94b96f)" style="fill: #b4d5a7; stroke: #ffffff; stroke-linejoin: miter"/>
   </g>
   <g id="patch_11">
    <path d="M 122.38688 405.669781 
L 122.38688 405.669781 
L 122.38688 405.669781 
L 122.38688 405.669781 
z
" clip-path="url(#pfccd94b96f)" style="fill: #c4dcf4; stroke: #ffffff; stroke-linejoin: miter"/>
   </g>
   <g id="patch_12">
    <path d="M 122.38688 405.669781 
L 122.38688 405.669781 
L 122.38688 405.669781 
L 122.38688 405.669781 
z
" clip-path="url(#pfccd94b96f)" style="fill: #f0cca8; stroke: #ffffff; stroke-linejoin: miter"/>
   </g>
   <g id="patch_13">
    <path d="M 122.38688 405.669781 
L 122.38688 405.669781 
L 122.38688 405.669781 
L 122.38688 405.669781 
z
" clip-path="url(#pfccd94b96f)" style="fill: #f0cca8; stroke: #ffffff; stroke-linejoin: miter"/>
   </g>
   <g id="patch_14">
    <path d="M 122.38688 405.669781 
L 122.38688 405.669781 
L 122.38688 405.669781 
L 122.38688 405.669781 
z
" clip-path="url(#pfccd94b96f)" style="fill: #b4d5a7; stroke: #ffffff; stroke-linejoin: miter"/>
   </g>
   <g id="patch_15">
    <path d="M 42.331735 405.669781 
L 42.331735 41.958267 
" style="fill: none; stroke: #cccccc; stroke-width: 0.8; stroke-linejoin: miter; stroke-linecap: square"/>
   </g>
   <g id="patch_16">
    <path d="M 682.772893 405.669781 
L 682.772893 41.958267 
" style="fill: none; stroke: #cccccc; stroke-width: 0.8; stroke-linejoin: miter; stroke-linecap: square"/>
   </g>
   <g id="patch_17">
    <path d="M 42.331735 405.669781 
L 682.772893 405.669781 
" style="fill: none; stroke: #cccccc; stroke-width: 0.8; stroke-linejoin: miter; stroke-linecap: square"/>
   </g>
   <g id="patch_18">
    <path d="M 42.331735 41.958267 
L 682.772893 41.958267 
" style="fill: none; stroke: #cccccc; stroke-width: 0.8; stroke-linejoin: miter; stroke-linecap: square"/>
   </g>
   <g id="text_13">
    <!-- $\mathbf{49.2}$ -->
    <g style="fill: #262626" transform="translate(62.640789 105.101743) scale(0.12 -0.12)">
     <defs>
      <path id="CMBX12-34" d="M 2771 1006 
L 3392 1006 
L 3392 1280 
L 2771 1280 
L 2771 4007 
C 2771 4166 2765 4192 2605 4192 
C 2490 4192 2477 4192 2400 4096 
L 198 1280 
L 198 1006 
L 2016 1006 
L 2016 267 
L 1318 267 
L 1318 0 
C 1504 0 2138 0 2368 0 
C 2586 0 3219 0 3392 -6 
L 3392 267 
L 2771 267 
L 2771 1006 
z
M 2074 3302 
L 2074 1280 
L 493 1280 
L 2074 3302 
z
" transform="scale(0.015625)"/>
      <path id="CMBX12-39" d="M 2477 1816 
C 2477 1368 2477 190 1478 190 
C 1280 190 1050 241 915 344 
C 1101 382 1235 517 1235 723 
C 1235 954 1062 1102 858 1102 
C 691 1102 480 993 480 711 
C 480 263 832 -64 1491 -64 
C 2304 -64 3290 465 3290 2111 
C 3290 2539 3290 4197 1811 4197 
C 928 4197 301 3688 301 2816 
C 301 1931 915 1455 1683 1455 
C 1952 1455 2272 1550 2477 2001 
L 2477 1816 
z
M 1747 1664 
C 1114 1664 1114 2179 1114 2803 
C 1114 3415 1114 3968 1811 3968 
C 2221 3968 2368 3606 2394 3536 
C 2458 3344 2470 2950 2470 2740 
C 2470 2295 2285 1664 1747 1664 
z
" transform="scale(0.015625)"/>
      <path id="CMMI12-3a" d="M 1178 307 
C 1178 492 1024 619 870 619 
C 685 619 557 466 557 313 
C 557 128 710 0 864 0 
C 1050 0 1178 153 1178 307 
z
" transform="scale(0.015625)"/>
      <path id="CMBX12-32" d="M 3232 1368 
L 2963 1368 
C 2944 1234 2899 858 2803 795 
C 2752 750 2253 750 2157 750 
L 1165 750 
C 1408 954 1990 1438 2086 1509 
C 2797 2038 3232 2362 3232 2974 
C 3232 3725 2547 4178 1702 4178 
C 979 4178 358 3770 358 3165 
C 358 2827 634 2732 781 2732 
C 979 2732 1210 2865 1210 3159 
C 1210 3427 1011 3560 813 3586 
C 1069 3879 1408 3904 1542 3904 
C 2131 3904 2413 3427 2413 2968 
C 2413 2471 2074 2013 1811 1739 
L 422 293 
C 358 235 358 223 358 108 
L 358 0 
L 3046 0 
L 3232 1368 
z
" transform="scale(0.015625)"/>
     </defs>
     <use xlink:href="#CMBX12-34" transform="scale(0.996264)"/>
     <use xlink:href="#CMBX12-39" transform="translate(56.039851 0) scale(0.996264)"/>
     <use xlink:href="#CMMI12-3a" transform="translate(112.079701 0) scale(0.996264)"/>
     <use xlink:href="#CMBX12-32" transform="translate(139.176878 0) scale(0.996264)"/>
    </g>
   </g>
   <g id="text_14">
    <!-- $\mathbf{51.8}$ -->
    <g style="fill: #262626" transform="translate(222.751079 89.340911) scale(0.12 -0.12)">
     <defs>
      <path id="CMBX12-35" d="M 986 3315 
C 1203 3264 1376 3264 1472 3264 
C 1626 3264 1990 3264 2419 3527 
C 2618 3647 2950 3936 2950 4083 
C 2950 4115 2950 4192 2874 4192 
C 2867 4192 2854 4192 2790 4159 
C 2496 4054 2182 3982 1824 3982 
C 1459 3982 1152 4052 851 4160 
C 806 4173 787 4186 768 4186 
C 691 4186 691 4122 691 4014 
L 691 2163 
C 691 2042 691 1972 819 1972 
C 883 1972 896 1979 947 2042 
C 1024 2132 1254 2414 1798 2414 
C 2387 2414 2387 1815 2387 1312 
C 2387 852 2387 190 1600 190 
C 1363 190 960 279 742 640 
C 1082 640 1165 895 1165 1035 
C 1165 1264 998 1435 762 1435 
C 570 1435 358 1321 358 1022 
C 358 470 864 -64 1626 -64 
C 2611 -64 3232 503 3232 1293 
C 3232 2070 2701 2624 1824 2624 
C 1568 2624 1261 2573 986 2369 
L 986 3315 
z
" transform="scale(0.015625)"/>
      <path id="CMBX12-31" d="M 2214 3975 
C 2214 4160 2202 4160 1997 4160 
C 1523 3776 813 3776 672 3776 
L 550 3776 
L 550 3503 
L 672 3503 
C 896 3503 1235 3541 1491 3624 
L 1491 267 
L 602 267 
L 602 0 
C 870 0 1542 0 1843 0 
C 2144 0 2822 0 3091 0 
L 3091 267 
L 2214 267 
L 2214 3975 
z
" transform="scale(0.015625)"/>
      <path id="CMBX12-38" d="M 2413 2363 
C 2733 2529 3091 2765 3091 3264 
C 3091 3922 2502 4203 1805 4203 
C 954 4203 499 3718 499 3098 
C 499 2754 672 2370 1146 2121 
C 422 1801 301 1361 301 1029 
C 301 294 941 -64 1786 -64 
C 2733 -64 3290 446 3290 1188 
C 3290 1884 2739 2185 2413 2363 
z
M 1261 3025 
C 1133 3096 954 3243 954 3455 
C 954 3968 1638 3968 1786 3968 
C 2330 3968 2637 3682 2637 3262 
C 2637 3001 2522 2727 2157 2517 
L 1261 3025 
z
M 1408 1958 
L 2291 1455 
C 2502 1334 2778 1182 2778 858 
C 2778 349 2266 190 1805 190 
C 1171 190 813 527 813 1029 
C 813 1493 1101 1786 1408 1958 
z
" transform="scale(0.015625)"/>
     </defs>
     <use xlink:href="#CMBX12-35" transform="scale(0.996264)"/>
     <use xlink:href="#CMBX12-31" transform="translate(56.039851 0) scale(0.996264)"/>
     <use xlink:href="#CMMI12-3a" transform="translate(112.079701 0) scale(0.996264)"/>
     <use xlink:href="#CMBX12-38" transform="translate(139.176878 0) scale(0.996264)"/>
    </g>
   </g>
   <g id="text_15">
    <!-- $\mathbf{27.8}$ -->
    <g style="fill: #262626" transform="translate(382.861368 234.825517) scale(0.12 -0.12)">
     <defs>
      <path id="CMBX12-37" d="M 3430 3865 
C 3488 3929 3488 3943 3488 4155 
L 2138 4155 
C 2093 4155 1139 4155 1062 4168 
C 902 4193 890 4260 877 4322 
L 608 4322 
L 397 2752 
L 666 2752 
C 672 2817 723 3280 832 3353 
C 890 3392 1421 3392 1523 3392 
L 2682 3392 
C 1939 2487 1856 2384 1658 2005 
C 1280 1259 1222 681 1222 366 
C 1222 -64 1549 -64 1600 -64 
C 1760 -64 1850 19 1894 64 
C 1978 168 1978 245 1978 528 
C 1978 1511 2067 2232 2470 2714 
L 3430 3865 
z
" transform="scale(0.015625)"/>
     </defs>
     <use xlink:href="#CMBX12-32" transform="scale(0.996264)"/>
     <use xlink:href="#CMBX12-37" transform="translate(56.039851 0) scale(0.996264)"/>
     <use xlink:href="#CMMI12-3a" transform="translate(112.079701 0) scale(0.996264)"/>
     <use xlink:href="#CMBX12-38" transform="translate(139.176878 0) scale(0.996264)"/>
    </g>
   </g>
   <g id="text_16">
    <!-- $\mathbf{35.4}$ -->
    <g style="fill: #262626" transform="translate(542.971658 188.755392) scale(0.12 -0.12)">
     <defs>
      <path id="CMBX12-33" d="M 1670 2112 
C 2387 2112 2387 1454 2387 1151 
C 2387 866 2387 196 1696 196 
C 1562 196 1139 196 832 424 
C 1107 481 1203 678 1203 868 
C 1203 1128 1018 1312 755 1312 
C 486 1312 301 1128 301 862 
C 301 278 941 -64 1728 -64 
C 2784 -64 3290 513 3290 1147 
C 3290 1459 3130 2061 2138 2232 
C 2701 2406 3091 2804 3091 3310 
C 3091 3792 2630 4197 1741 4197 
C 1024 4197 499 3818 499 3298 
C 499 2977 749 2874 915 2874 
C 1101 2874 1325 2996 1325 3292 
C 1325 3441 1261 3659 960 3704 
C 1229 3968 1664 3968 1702 3968 
C 2272 3968 2272 3522 2272 3329 
C 2272 3135 2246 2837 2042 2573 
C 1875 2352 1709 2340 1466 2340 
C 1389 2321 1261 2321 1235 2309 
C 1197 2290 1197 2245 1197 2220 
C 1197 2112 1235 2112 1363 2112 
L 1670 2112 
z
" transform="scale(0.015625)"/>
     </defs>
     <use xlink:href="#CMBX12-33" transform="scale(0.996264)"/>
     <use xlink:href="#CMBX12-35" transform="translate(56.039851 0) scale(0.996264)"/>
     <use xlink:href="#CMMI12-3a" transform="translate(112.079701 0) scale(0.996264)"/>
     <use xlink:href="#CMBX12-34" transform="translate(139.176878 0) scale(0.996264)"/>
    </g>
   </g>
   <g id="text_17">
    <!-- 48.7 -->
    <g style="fill: #262626" transform="translate(95.970535 108.132673) scale(0.12 -0.12)">
     <defs>
      <path id="CMSS17-34" d="M 2253 1088 
L 2835 1088 
L 2835 1477 
L 2253 1477 
L 2253 4192 
L 1690 4192 
L 166 1477 
L 166 1088 
L 1747 1088 
L 1747 0 
L 2253 0 
L 2253 1088 
z
M 659 1477 
C 1030 2127 1766 3439 1766 3885 
L 1766 1477 
L 659 1477 
z
" transform="scale(0.015625)"/>
      <path id="CMSS17-38" d="M 1933 2222 
C 2419 2380 2669 2760 2669 3134 
C 2669 3722 2157 4229 1504 4229 
C 826 4229 333 3708 333 3144 
C 333 2780 576 2403 1069 2241 
C 442 1997 250 1512 250 1149 
C 250 446 819 -128 1498 -128 
C 2202 -128 2752 455 2752 1138 
C 2752 1557 2502 2000 1933 2222 
z
M 1504 2432 
C 1075 2432 787 2712 787 3136 
C 787 3566 1075 3840 1504 3840 
C 1901 3840 2214 3591 2214 3136 
C 2214 2687 1907 2432 1504 2432 
z
M 1504 267 
C 1139 267 749 517 749 1156 
C 749 1813 1184 2043 1498 2043 
C 1843 2043 2253 1800 2253 1156 
C 2253 491 1830 267 1504 267 
z
" transform="scale(0.015625)"/>
      <path id="CMSS17-2e" d="M 1088 510 
L 576 510 
L 576 0 
L 1088 0 
L 1088 510 
z
" transform="scale(0.015625)"/>
      <path id="CMSS17-37" d="M 1389 3776 
C 1466 3776 1542 3776 1619 3776 
L 2355 3776 
C 1440 2711 915 1365 915 -32 
L 1427 -32 
C 1427 1323 1875 2696 2752 3795 
L 2752 4209 
L 250 4209 
L 250 3776 
L 1389 3776 
z
" transform="scale(0.015625)"/>
     </defs>
     <use xlink:href="#CMSS17-34" transform="scale(0.996264)"/>
     <use xlink:href="#CMSS17-38" transform="translate(46.843624 0) scale(0.996264)"/>
     <use xlink:href="#CMSS17-2e" transform="translate(93.687247 0) scale(0.996264)"/>
     <use xlink:href="#CMSS17-37" transform="translate(119.711452 0) scale(0.996264)"/>
    </g>
   </g>
   <g id="text_18">
    <!-- 49.2 -->
    <g style="fill: #262626" transform="translate(256.080824 105.101743) scale(0.12 -0.12)">
     <defs>
      <path id="CMSS17-39" d="M 435 174 
C 614 21 845 -128 1235 -128 
C 2010 -128 2752 721 2752 2095 
C 2752 3932 1952 4229 1523 4229 
C 1094 4229 819 4041 582 3741 
C 301 3397 250 3090 250 2733 
C 250 2307 326 2045 506 1745 
C 749 1357 973 1275 1222 1275 
C 1600 1275 1978 1459 2234 1776 
C 2189 902 1798 267 1235 267 
C 1005 267 819 339 634 516 
L 435 174 
z
M 2214 2746 
C 2221 2703 2221 2622 2221 2596 
C 2221 2074 1914 1664 1466 1664 
C 1171 1664 1018 1813 902 2006 
C 762 2249 755 2485 755 2733 
C 755 2976 755 3244 934 3511 
C 1069 3703 1235 3840 1523 3840 
C 2112 3840 2208 3000 2214 2746 
z
" transform="scale(0.015625)"/>
      <path id="CMSS17-32" d="M 1651 1357 
C 1830 1541 2099 1764 2285 1987 
C 2464 2204 2701 2511 2701 2957 
C 2701 3657 2227 4288 1421 4288 
C 787 4288 422 3893 250 3274 
L 499 2929 
C 640 3510 838 3880 1338 3880 
C 1888 3880 2195 3433 2195 2942 
C 2195 2355 1747 1901 1408 1563 
C 1030 1187 659 804 301 408 
L 301 0 
L 2701 0 
L 2701 433 
L 1613 433 
C 1536 433 1459 433 1382 433 
L 742 433 
L 742 439 
L 1651 1357 
z
" transform="scale(0.015625)"/>
     </defs>
     <use xlink:href="#CMSS17-34" transform="scale(0.996264)"/>
     <use xlink:href="#CMSS17-39" transform="translate(46.843624 0) scale(0.996264)"/>
     <use xlink:href="#CMSS17-2e" transform="translate(93.687247 0) scale(0.996264)"/>
     <use xlink:href="#CMSS17-32" transform="translate(119.711452 0) scale(0.996264)"/>
    </g>
   </g>
   <g id="text_19">
    <!-- 26.1 -->
    <g style="fill: #262626" transform="translate(416.191114 245.130676) scale(0.12 -0.12)">
     <use xlink:href="#CMSS17-32" transform="scale(0.996264)"/>
     <use xlink:href="#CMSS17-36" transform="translate(46.843624 0) scale(0.996264)"/>
     <use xlink:href="#CMSS17-2e" transform="translate(93.687247 0) scale(0.996264)"/>
     <use xlink:href="#CMSS17-31" transform="translate(119.711452 0) scale(0.996264)"/>
    </g>
   </g>
   <g id="text_20">
    <!-- 33.6 -->
    <g style="fill: #262626" transform="translate(576.301403 199.666737) scale(0.12 -0.12)">
     <defs>
      <path id="CMSS17-33" d="M 1005 2025 
L 1440 2025 
C 2042 2025 2214 1507 2214 1146 
C 2214 653 1933 267 1472 267 
C 1114 267 608 444 320 912 
C 275 691 275 678 250 526 
C 550 88 1037 -128 1485 -128 
C 2214 -128 2752 473 2752 1138 
C 2752 1638 2400 2057 1920 2215 
C 2304 2424 2586 2816 2586 3273 
C 2586 3805 2093 4229 1491 4229 
C 941 4229 512 3892 333 3530 
C 378 3468 493 3284 550 3189 
C 691 3562 1056 3840 1485 3840 
C 1843 3840 2080 3607 2080 3271 
C 2080 2923 1856 2543 1478 2455 
C 1453 2455 1056 2417 1005 2411 
L 1005 2025 
z
" transform="scale(0.015625)"/>
     </defs>
     <use xlink:href="#CMSS17-33" transform="scale(0.996264)"/>
     <use xlink:href="#CMSS17-33" transform="translate(46.843624 0) scale(0.996264)"/>
     <use xlink:href="#CMSS17-2e" transform="translate(93.687247 0) scale(0.996264)"/>
     <use xlink:href="#CMSS17-36" transform="translate(119.711452 0) scale(0.996264)"/>
    </g>
   </g>
   <g id="text_21">
    <!-- 44.9 -->
    <g style="fill: #262626" transform="translate(127.992593 131.167735) scale(0.12 -0.12)">
     <use xlink:href="#CMSS17-34" transform="scale(0.996264)"/>
     <use xlink:href="#CMSS17-34" transform="translate(46.843624 0) scale(0.996264)"/>
     <use xlink:href="#CMSS17-2e" transform="translate(93.687247 0) scale(0.996264)"/>
     <use xlink:href="#CMSS17-39" transform="translate(119.711452 0) scale(0.996264)"/>
    </g>
   </g>
   <g id="text_22">
    <!-- 44.7 -->
    <g style="fill: #262626" transform="translate(288.102882 132.380107) scale(0.12 -0.12)">
     <use xlink:href="#CMSS17-34" transform="scale(0.996264)"/>
     <use xlink:href="#CMSS17-34" transform="translate(46.843624 0) scale(0.996264)"/>
     <use xlink:href="#CMSS17-2e" transform="translate(93.687247 0) scale(0.996264)"/>
     <use xlink:href="#CMSS17-37" transform="translate(119.711452 0) scale(0.996264)"/>
    </g>
   </g>
   <g id="text_23">
    <!-- 26.1 -->
    <g style="fill: #262626" transform="translate(448.213172 245.130676) scale(0.12 -0.12)">
     <use xlink:href="#CMSS17-32" transform="scale(0.996264)"/>
     <use xlink:href="#CMSS17-36" transform="translate(46.843624 0) scale(0.996264)"/>
     <use xlink:href="#CMSS17-2e" transform="translate(93.687247 0) scale(0.996264)"/>
     <use xlink:href="#CMSS17-31" transform="translate(119.711452 0) scale(0.996264)"/>
    </g>
   </g>
   <g id="text_24">
    <!-- 33.5 -->
    <g style="fill: #262626" transform="translate(608.323461 200.272923) scale(0.12 -0.12)">
     <defs>
      <path id="CMSS17-35" d="M 934 3752 
L 2502 3752 
L 2502 4160 
L 467 4160 
L 467 1781 
L 896 1781 
C 1011 2046 1248 2240 1555 2240 
C 1843 2240 2163 1989 2163 1266 
C 2163 493 1709 267 1376 267 
C 966 267 589 512 422 851 
L 218 499 
C 512 49 992 -128 1376 -128 
C 2118 -128 2701 497 2701 1253 
C 2701 2030 2182 2629 1562 2629 
C 1338 2629 1120 2553 934 2399 
L 934 3752 
z
" transform="scale(0.015625)"/>
     </defs>
     <use xlink:href="#CMSS17-33" transform="scale(0.996264)"/>
     <use xlink:href="#CMSS17-33" transform="translate(46.843624 0) scale(0.996264)"/>
     <use xlink:href="#CMSS17-2e" transform="translate(93.687247 0) scale(0.996264)"/>
     <use xlink:href="#CMSS17-35" transform="translate(119.711452 0) scale(0.996264)"/>
    </g>
   </g>
   <g id="text_25">
    <!-- 42.6 -->
    <g style="fill: #262626" transform="translate(160.014651 145.11001) scale(0.12 -0.12)">
     <use xlink:href="#CMSS17-34" transform="scale(0.996264)"/>
     <use xlink:href="#CMSS17-32" transform="translate(46.843624 0) scale(0.996264)"/>
     <use xlink:href="#CMSS17-2e" transform="translate(93.687247 0) scale(0.996264)"/>
     <use xlink:href="#CMSS17-36" transform="translate(119.711452 0) scale(0.996264)"/>
    </g>
   </g>
   <g id="text_26">
    <!-- 44.6 -->
    <g style="fill: #262626" transform="translate(320.12494 132.986293) scale(0.12 -0.12)">
     <use xlink:href="#CMSS17-34" transform="scale(0.996264)"/>
     <use xlink:href="#CMSS17-34" transform="translate(46.843624 0) scale(0.996264)"/>
     <use xlink:href="#CMSS17-2e" transform="translate(93.687247 0) scale(0.996264)"/>
     <use xlink:href="#CMSS17-36" transform="translate(119.711452 0) scale(0.996264)"/>
    </g>
   </g>
   <g id="text_27">
    <!-- 25.5 -->
    <g style="fill: #262626" transform="translate(480.23523 248.767791) scale(0.12 -0.12)">
     <use xlink:href="#CMSS17-32" transform="scale(0.996264)"/>
     <use xlink:href="#CMSS17-35" transform="translate(46.843624 0) scale(0.996264)"/>
     <use xlink:href="#CMSS17-2e" transform="translate(93.687247 0) scale(0.996264)"/>
     <use xlink:href="#CMSS17-35" transform="translate(119.711452 0) scale(0.996264)"/>
    </g>
   </g>
   <g id="text_28">
    <!-- 31.1 -->
    <g style="fill: #262626" transform="translate(640.345519 214.821383) scale(0.12 -0.12)">
     <use xlink:href="#CMSS17-33" transform="scale(0.996264)"/>
     <use xlink:href="#CMSS17-31" transform="translate(46.843624 0) scale(0.996264)"/>
     <use xlink:href="#CMSS17-2e" transform="translate(93.687247 0) scale(0.996264)"/>
     <use xlink:href="#CMSS17-31" transform="translate(119.711452 0) scale(0.996264)"/>
    </g>
   </g>
   <g id="legend_1">
    <g id="patch_19">
     <path d="M 62.825207 35.649771 
L 662.279421 35.649771 
Q 664.379421 35.649771 664.379421 33.549771 
L 664.379421 9.3 
Q 664.379421 7.2 662.279421 7.2 
L 62.825207 7.2 
Q 60.725207 7.2 60.725207 9.3 
L 60.725207 33.549771 
Q 60.725207 35.649771 62.825207 35.649771 
z
" style="fill: #ffffff; opacity: 0.8; stroke: #cccccc; stroke-linejoin: miter"/>
    </g>
    <g id="patch_20">
     <path d="M 64.925207 25.057093 
L 85.925207 25.057093 
L 85.925207 17.707093 
L 64.925207 17.707093 
z
" style="fill: #bcdcfc; stroke: #ffffff; stroke-linejoin: miter"/>
    </g>
    <g id="text_29">
     <!-- Qwen2.5-Coder-1.5B -->
     <g style="fill: #262626" transform="translate(94.325207 25.057093) scale(0.105 -0.105)">
      <defs>
       <path id="CMSS17-51" d="M 3200 202 
C 3981 833 4096 1689 4096 2174 
C 4096 3501 3219 4497 2214 4497 
C 1210 4497 333 3497 333 2178 
C 333 847 1222 -128 2214 -128 
C 2438 -128 2630 -77 2765 -26 
L 3302 -832 
L 3930 -832 
L 3200 202 
z
M 2528 324 
C 2438 293 2330 273 2214 273 
C 1523 273 858 993 858 2178 
C 858 3357 1517 4096 2214 4096 
C 2918 4096 3571 3350 3571 2178 
C 3571 1771 3507 1089 2950 566 
L 2490 1210 
L 1939 1210 
L 2528 324 
z
" transform="scale(0.015625)"/>
       <path id="CMSS17-77" d="M 4013 2752 
L 3526 2752 
L 3187 1601 
C 3117 1358 2918 685 2893 371 
L 2886 371 
C 2874 564 2765 1024 2586 1633 
L 2259 2752 
L 1818 2752 
L 1498 1658 
C 1338 1101 1216 627 1203 371 
L 1197 371 
C 1171 749 909 1633 870 1773 
L 582 2752 
L 83 2752 
L 915 0 
L 1402 0 
C 1734 1096 1990 1943 2010 2370 
C 2022 2160 2131 1707 2195 1484 
L 2618 0 
L 3181 0 
L 4013 2752 
z
" transform="scale(0.015625)"/>
       <path id="CMSS17-65" d="M 2502 1377 
C 2502 1590 2490 2003 2285 2345 
C 2061 2713 1696 2816 1421 2816 
C 755 2816 192 2188 192 1375 
C 192 582 774 -64 1510 -64 
C 1798 -64 2150 19 2470 248 
C 2470 274 2458 414 2451 420 
C 2451 433 2432 630 2432 656 
C 2125 407 1773 325 1517 325 
C 1107 325 666 667 646 1377 
L 2502 1377 
z
M 698 1728 
C 781 2084 1062 2421 1421 2421 
C 1517 2421 1965 2421 2080 1728 
L 698 1728 
z
" transform="scale(0.015625)"/>
       <path id="CMSS17-6e" d="M 2618 1877 
C 2618 2283 2522 2816 1798 2816 
C 1389 2816 1120 2606 941 2389 
L 941 2758 
L 474 2758 
L 474 0 
L 960 0 
L 960 1559 
C 960 1964 1114 2428 1549 2428 
C 2112 2428 2131 2048 2131 1829 
L 2131 0 
L 2618 0 
L 2618 1877 
z
" transform="scale(0.015625)"/>
       <path id="CMSS17-43" d="M 3501 714 
C 3072 427 2874 344 2355 344 
C 1459 344 934 1303 934 2179 
C 934 3112 1472 4032 2381 4032 
C 2790 4032 3059 3918 3386 3715 
L 3475 4217 
C 3168 4370 2778 4440 2387 4440 
C 1158 4440 397 3316 397 2179 
C 397 927 1299 -64 2323 -64 
C 2874 -64 3066 -19 3539 280 
L 3501 714 
z
" transform="scale(0.015625)"/>
       <path id="CMSS17-6f" d="M 2829 1356 
C 2829 2176 2221 2816 1504 2816 
C 768 2816 173 2157 173 1356 
C 173 544 787 -64 1498 -64 
C 2227 -64 2829 563 2829 1356 
z
M 1504 337 
C 1050 337 659 709 659 1408 
C 659 2151 1114 2427 1498 2427 
C 1914 2427 2342 2126 2342 1408 
C 2342 683 1926 337 1504 337 
z
" transform="scale(0.015625)"/>
       <path id="CMSS17-64" d="M 2611 4416 
L 2138 4416 
L 2138 2438 
C 1939 2603 1613 2756 1254 2756 
C 672 2756 211 2131 211 1347 
C 211 562 666 -64 1235 -64 
C 1677 -64 1971 172 2125 306 
L 2125 -13 
L 2611 -13 
L 2611 4416 
z
M 2125 836 
C 2125 747 2125 653 1926 482 
C 1798 375 1645 325 1498 325 
C 1152 325 698 576 698 1340 
C 698 2134 1210 2368 1562 2368 
C 1798 2368 1990 2254 2125 2065 
L 2125 836 
z
" transform="scale(0.015625)"/>
       <path id="CMSS17-72" d="M 954 1363 
C 954 1965 1395 2368 1958 2368 
L 1958 2789 
C 1549 2789 1165 2585 934 2253 
L 934 2758 
L 480 2758 
L 480 0 
L 954 0 
L 954 1363 
z
" transform="scale(0.015625)"/>
       <path id="CMSS17-42" d="M 570 4416 
L 570 0 
L 2163 0 
C 3034 0 3667 574 3667 1200 
C 3667 1685 3251 2176 2502 2317 
C 3334 2558 3501 3040 3501 3313 
C 3501 3883 2874 4416 1997 4416 
L 570 4416 
z
M 1088 2496 
L 1088 4059 
L 1824 4059 
C 2483 4059 3002 3724 3002 3306 
C 3002 2926 2592 2496 1766 2496 
L 1088 2496 
z
M 1088 357 
L 1088 2107 
L 1939 2107 
C 2630 2107 3162 1679 3162 1206 
C 3162 772 2694 357 1984 357 
L 1088 357 
z
" transform="scale(0.015625)"/>
      </defs>
      <use xlink:href="#CMSS17-51" transform="scale(0.996264)"/>
      <use xlink:href="#CMSS17-77" transform="translate(69.024255 0) scale(0.996264)"/>
      <use xlink:href="#CMSS17-65" transform="translate(130.241347 0) scale(0.996264)"/>
      <use xlink:href="#CMSS17-6e" transform="translate(171.880169 0) scale(0.996264)"/>
      <use xlink:href="#CMSS17-32" transform="translate(220.085112 0) scale(0.996264)"/>
      <use xlink:href="#CMSS17-2e" transform="translate(266.928735 0) scale(0.996264)"/>
      <use xlink:href="#CMSS17-35" transform="translate(292.95294 0) scale(0.996264)"/>
      <use xlink:href="#CMSS17-2d" transform="translate(339.796564 0) scale(0.996264)"/>
      <use xlink:href="#CMSS17-43" transform="translate(371.025676 0) scale(0.996264)"/>
      <use xlink:href="#CMSS17-6f" transform="translate(430.881448 0) scale(0.996264)"/>
      <use xlink:href="#CMSS17-64" transform="translate(480.32751 0) scale(0.996264)"/>
      <use xlink:href="#CMSS17-65" transform="translate(528.532453 0) scale(0.996264)"/>
      <use xlink:href="#CMSS17-72" transform="translate(570.171275 0) scale(0.996264)"/>
      <use xlink:href="#CMSS17-2d" transform="translate(602.081048 0) scale(0.996264)"/>
      <use xlink:href="#CMSS17-31" transform="translate(633.310161 0) scale(0.996264)"/>
      <use xlink:href="#CMSS17-2e" transform="translate(680.153784 0) scale(0.996264)"/>
      <use xlink:href="#CMSS17-35" transform="translate(706.177989 0) scale(0.996264)"/>
      <use xlink:href="#CMSS17-42" transform="translate(753.021613 0) scale(0.996264)"/>
     </g>
    </g>
    <g id="patch_21">
     <path d="M 206.45033 25.057093 
L 227.45033 25.057093 
L 227.45033 17.707093 
L 206.45033 17.707093 
z
" style="fill: #fccc9c; stroke: #000000; stroke-width: 0.8; stroke-linejoin: miter"/>
    </g>
    <g id="text_30">
     <!-- OpenCoder-1.5B-Base -->
     <g style="fill: #262626" transform="translate(235.85033 18.664415) scale(0.105 -0.105)">
      <defs>
       <path id="CMSS17-4f" d="M 4096 2178 
C 4096 3503 3219 4497 2214 4497 
C 1210 4497 333 3497 333 2178 
C 333 847 1222 -128 2214 -128 
C 3206 -128 4096 847 4096 2178 
z
M 2214 273 
C 1510 273 870 1057 870 2261 
C 870 3433 1549 4096 2214 4096 
C 2880 4096 3558 3433 3558 2261 
C 3558 1051 2912 273 2214 273 
z
" transform="scale(0.015625)"/>
       <path id="CMSS17-70" d="M 966 333 
C 1178 129 1466 -5 1773 -5 
C 2368 -5 2880 603 2880 1412 
C 2880 2159 2496 2816 1946 2816 
C 1626 2816 1242 2702 954 2472 
L 954 2765 
L 480 2765 
L 480 -1216 
L 966 -1216 
L 966 333 
z
M 966 2100 
C 1018 2176 1235 2415 1587 2415 
C 2035 2415 2394 1960 2394 1412 
C 2394 787 1958 384 1530 384 
C 1402 384 1267 415 1139 523 
C 966 674 966 768 966 857 
L 966 2100 
z
" transform="scale(0.015625)"/>
       <path id="CMSS17-73" d="M 2061 2627 
C 1683 2807 1389 2807 1197 2807 
C 742 2807 198 2648 198 2003 
C 198 1359 902 1218 1094 1179 
C 1389 1122 1715 1058 1715 740 
C 1715 337 1254 337 1171 337 
C 915 337 563 407 243 638 
L 166 210 
C 531 0 883 -64 1178 -64 
C 1965 -64 2163 416 2163 781 
C 2163 1094 1984 1305 1862 1401 
C 1651 1568 1574 1587 1050 1696 
C 960 1709 646 1779 646 2066 
C 646 2432 1050 2432 1139 2432 
C 1555 2432 1811 2303 1984 2208 
L 2061 2627 
z
" transform="scale(0.015625)"/>
      </defs>
      <use xlink:href="#CMSS17-4f" transform="scale(0.996264)"/>
      <use xlink:href="#CMSS17-70" transform="translate(69.024255 0) scale(0.996264)"/>
      <use xlink:href="#CMSS17-65" transform="translate(119.831637 0) scale(0.996264)"/>
      <use xlink:href="#CMSS17-6e" transform="translate(161.470459 0) scale(0.996264)"/>
      <use xlink:href="#CMSS17-43" transform="translate(209.675402 0) scale(0.996264)"/>
      <use xlink:href="#CMSS17-6f" transform="translate(269.531174 0) scale(0.996264)"/>
      <use xlink:href="#CMSS17-64" transform="translate(318.977236 0) scale(0.996264)"/>
      <use xlink:href="#CMSS17-65" transform="translate(367.182179 0) scale(0.996264)"/>
      <use xlink:href="#CMSS17-72" transform="translate(408.821001 0) scale(0.996264)"/>
      <use xlink:href="#CMSS17-2d" transform="translate(440.730774 0) scale(0.996264)"/>
      <use xlink:href="#CMSS17-31" transform="translate(471.959887 0) scale(0.996264)"/>
      <use xlink:href="#CMSS17-2e" transform="translate(518.80351 0) scale(0.996264)"/>
      <use xlink:href="#CMSS17-35" transform="translate(544.827715 0) scale(0.996264)"/>
      <use xlink:href="#CMSS17-42" transform="translate(591.671339 0) scale(0.996264)"/>
      <use xlink:href="#CMSS17-2d" transform="translate(654.009379 0) scale(0.996264)"/>
      <use xlink:href="#CMSS17-42" transform="translate(685.238492 0) scale(0.996264)"/>
      <use xlink:href="#CMSS17-61" transform="translate(747.576532 0) scale(0.996264)"/>
      <use xlink:href="#CMSS17-73" transform="translate(792.498452 0) scale(0.996264)"/>
      <use xlink:href="#CMSS17-65" transform="translate(828.411994 0) scale(0.996264)"/>
     </g>
     <!-- Path Distance composer -->
     <g style="fill: #262626" transform="translate(235.85033 29.415742) scale(0.105 -0.105)">
      <defs>
       <path id="CMSS17-69" d="M 979 4183 
L 442 4183 
L 442 3648 
L 979 3648 
L 979 4183 
z
M 947 2739 
L 474 2739 
L 474 0 
L 947 0 
L 947 2739 
z
" transform="scale(0.015625)"/>
       <path id="CMSS17-6d" d="M 4288 1877 
C 4288 2308 4179 2816 3462 2816 
C 2982 2816 2694 2516 2566 2331 
C 2451 2670 2182 2816 1798 2816 
C 1363 2816 1088 2568 941 2389 
L 941 2758 
L 474 2758 
L 474 0 
L 960 0 
L 960 1559 
C 960 1939 1101 2428 1555 2428 
C 2138 2428 2138 2016 2138 1829 
L 2138 0 
L 2624 0 
L 2624 1559 
C 2624 1939 2765 2428 3219 2428 
C 3802 2428 3802 2016 3802 1829 
L 3802 0 
L 4288 0 
L 4288 1877 
z
" transform="scale(0.015625)"/>
      </defs>
      <use xlink:href="#CMSS17-50" transform="scale(0.996264)"/>
      <use xlink:href="#CMSS17-61" transform="translate(57.133132 0) scale(0.996264)"/>
      <use xlink:href="#CMSS17-74" transform="translate(102.055053 0) scale(0.996264)"/>
      <use xlink:href="#CMSS17-68" transform="translate(135.88662 0) scale(0.996264)"/>
      <use xlink:href="#CMSS17-44" transform="translate(215.320676 0) scale(0.996264)"/>
      <use xlink:href="#CMSS17-69" transform="translate(282.863517 0) scale(0.996264)"/>
      <use xlink:href="#CMSS17-73" transform="translate(305.04424 0) scale(0.996264)"/>
      <use xlink:href="#CMSS17-74" transform="translate(340.957782 0) scale(0.996264)"/>
      <use xlink:href="#CMSS17-61" transform="translate(374.789349 0) scale(0.996264)"/>
      <use xlink:href="#CMSS17-6e" transform="translate(419.71127 0) scale(0.996264)"/>
      <use xlink:href="#CMSS17-63" transform="translate(467.916213 0) scale(0.996264)"/>
      <use xlink:href="#CMSS17-65" transform="translate(509.555035 0) scale(0.996264)"/>
      <use xlink:href="#CMSS17-63" transform="translate(582.42297 0) scale(0.996264)"/>
      <use xlink:href="#CMSS17-6f" transform="translate(624.061792 0) scale(0.996264)"/>
      <use xlink:href="#CMSS17-6d" transform="translate(670.905415 0) scale(0.996264)"/>
      <use xlink:href="#CMSS17-70" transform="translate(745.13467 0) scale(0.996264)"/>
      <use xlink:href="#CMSS17-6f" transform="translate(795.942051 0) scale(0.996264)"/>
      <use xlink:href="#CMSS17-73" transform="translate(842.785675 0) scale(0.996264)"/>
      <use xlink:href="#CMSS17-65" transform="translate(878.699217 0) scale(0.996264)"/>
      <use xlink:href="#CMSS17-72" transform="translate(920.338039 0) scale(0.996264)"/>
     </g>
    </g>
    <g id="patch_22">
     <path d="M 363.346979 25.057093 
L 384.346979 25.057093 
L 384.346979 17.707093 
L 363.346979 17.707093 
z
" style="fill: url(#hdfe6e120a4); stroke: #000000; stroke-width: 0.8; stroke-linejoin: miter"/>
    </g>
    <g id="text_31">
     <!-- OpenCoder-1.5B-Base -->
     <g style="fill: #262626" transform="translate(392.746979 18.664415) scale(0.105 -0.105)">
      <use xlink:href="#CMSS17-4f" transform="scale(0.996264)"/>
      <use xlink:href="#CMSS17-70" transform="translate(69.024255 0) scale(0.996264)"/>
      <use xlink:href="#CMSS17-65" transform="translate(119.831637 0) scale(0.996264)"/>
      <use xlink:href="#CMSS17-6e" transform="translate(161.470459 0) scale(0.996264)"/>
      <use xlink:href="#CMSS17-43" transform="translate(209.675402 0) scale(0.996264)"/>
      <use xlink:href="#CMSS17-6f" transform="translate(269.531174 0) scale(0.996264)"/>
      <use xlink:href="#CMSS17-64" transform="translate(318.977236 0) scale(0.996264)"/>
      <use xlink:href="#CMSS17-65" transform="translate(367.182179 0) scale(0.996264)"/>
      <use xlink:href="#CMSS17-72" transform="translate(408.821001 0) scale(0.996264)"/>
      <use xlink:href="#CMSS17-2d" transform="translate(440.730774 0) scale(0.996264)"/>
      <use xlink:href="#CMSS17-31" transform="translate(471.959887 0) scale(0.996264)"/>
      <use xlink:href="#CMSS17-2e" transform="translate(518.80351 0) scale(0.996264)"/>
      <use xlink:href="#CMSS17-35" transform="translate(544.827715 0) scale(0.996264)"/>
      <use xlink:href="#CMSS17-42" transform="translate(591.671339 0) scale(0.996264)"/>
      <use xlink:href="#CMSS17-2d" transform="translate(654.009379 0) scale(0.996264)"/>
      <use xlink:href="#CMSS17-42" transform="translate(685.238492 0) scale(0.996264)"/>
      <use xlink:href="#CMSS17-61" transform="translate(747.576532 0) scale(0.996264)"/>
      <use xlink:href="#CMSS17-73" transform="translate(792.498452 0) scale(0.996264)"/>
      <use xlink:href="#CMSS17-65" transform="translate(828.411994 0) scale(0.996264)"/>
     </g>
     <!-- File-Level composer -->
     <g style="fill: #262626" transform="translate(392.746979 29.415742) scale(0.105 -0.105)">
      <defs>
       <path id="CMSS17-6c" d="M 947 4416 
L 474 4416 
L 474 0 
L 947 0 
L 947 4416 
z
" transform="scale(0.015625)"/>
       <path id="CMSS17-76" d="M 2675 2752 
L 2176 2752 
L 1747 1556 
C 1613 1165 1421 627 1389 352 
L 1382 352 
C 1370 468 1318 634 1286 749 
C 1248 890 1197 1056 1158 1172 
L 595 2752 
L 83 2752 
L 1094 0 
L 1664 0 
L 2675 2752 
z
" transform="scale(0.015625)"/>
      </defs>
      <use xlink:href="#CMSS17-46" transform="scale(0.996264)"/>
      <use xlink:href="#CMSS17-69" transform="translate(53.289559 0) scale(0.996264)"/>
      <use xlink:href="#CMSS17-6c" transform="translate(75.470282 0) scale(0.996264)"/>
      <use xlink:href="#CMSS17-65" transform="translate(97.651005 0) scale(0.996264)"/>
      <use xlink:href="#CMSS17-2d" transform="translate(139.289827 0) scale(0.996264)"/>
      <use xlink:href="#CMSS17-4c" transform="translate(170.51894 0) scale(0.996264)"/>
      <use xlink:href="#CMSS17-65" transform="translate(221.206046 0) scale(0.996264)"/>
      <use xlink:href="#CMSS17-76" transform="translate(262.844868 0) scale(0.996264)"/>
      <use xlink:href="#CMSS17-65" transform="translate(305.845009 0) scale(0.996264)"/>
      <use xlink:href="#CMSS17-6c" transform="translate(347.483831 0) scale(0.996264)"/>
      <use xlink:href="#CMSS17-63" transform="translate(400.893667 0) scale(0.996264)"/>
      <use xlink:href="#CMSS17-6f" transform="translate(442.532489 0) scale(0.996264)"/>
      <use xlink:href="#CMSS17-6d" transform="translate(489.376113 0) scale(0.996264)"/>
      <use xlink:href="#CMSS17-70" transform="translate(563.605367 0) scale(0.996264)"/>
      <use xlink:href="#CMSS17-6f" transform="translate(614.412749 0) scale(0.996264)"/>
      <use xlink:href="#CMSS17-73" transform="translate(661.256373 0) scale(0.996264)"/>
      <use xlink:href="#CMSS17-65" transform="translate(697.169915 0) scale(0.996264)"/>
      <use xlink:href="#CMSS17-72" transform="translate(738.808737 0) scale(0.996264)"/>
     </g>
    </g>
    <g id="patch_23">
     <path d="M 511.003301 25.057093 
L 532.003301 25.057093 
L 532.003301 17.707093 
L 511.003301 17.707093 
z
" style="fill: #b1dd9f; stroke: #ffffff; stroke-linejoin: miter"/>
    </g>
    <g id="text_32">
     <!-- DeepSeek-Coder-Base 1.3B -->
     <g style="fill: #262626" transform="translate(540.403301 25.057093) scale(0.105 -0.105)">
      <defs>
       <path id="CMSS17-53" d="M 2797 4169 
C 2515 4334 2208 4480 1690 4480 
C 864 4480 333 3879 333 3266 
C 333 3025 403 2753 653 2475 
C 902 2196 1184 2121 1542 2033 
C 1690 1994 1939 1924 1984 1906 
C 2342 1767 2515 1444 2515 1140 
C 2515 742 2202 318 1645 318 
C 1453 318 890 318 358 819 
L 269 318 
C 794 -64 1363 -128 1651 -128 
C 2438 -128 3002 488 3002 1186 
C 3002 1440 2925 1763 2656 2061 
C 2394 2347 2163 2410 1638 2549 
C 1338 2626 1146 2677 986 2873 
C 877 3013 819 3146 819 3317 
C 819 3673 1126 4060 1690 4060 
C 1971 4060 2336 4002 2707 3660 
L 2797 4169 
z
" transform="scale(0.015625)"/>
       <path id="CMSS17-6b" d="M 1696 1688 
L 2688 2739 
L 2074 2739 
L 954 1554 
L 954 4416 
L 480 4416 
L 480 0 
L 947 0 
L 947 892 
L 1376 1344 
L 2278 0 
L 2822 0 
L 1696 1688 
z
" transform="scale(0.015625)"/>
      </defs>
      <use xlink:href="#CMSS17-44" transform="scale(0.996264)"/>
      <use xlink:href="#CMSS17-65" transform="translate(67.542842 0) scale(0.996264)"/>
      <use xlink:href="#CMSS17-65" transform="translate(109.181664 0) scale(0.996264)"/>
      <use xlink:href="#CMSS17-70" transform="translate(150.820486 0) scale(0.996264)"/>
      <use xlink:href="#CMSS17-53" transform="translate(199.025429 0) scale(0.996264)"/>
      <use xlink:href="#CMSS17-65" transform="translate(251.073945 0) scale(0.996264)"/>
      <use xlink:href="#CMSS17-65" transform="translate(292.712767 0) scale(0.996264)"/>
      <use xlink:href="#CMSS17-6b" transform="translate(334.351589 0) scale(0.996264)"/>
      <use xlink:href="#CMSS17-2d" transform="translate(379.954078 0) scale(0.996264)"/>
      <use xlink:href="#CMSS17-43" transform="translate(411.183191 0) scale(0.996264)"/>
      <use xlink:href="#CMSS17-6f" transform="translate(471.038963 0) scale(0.996264)"/>
      <use xlink:href="#CMSS17-64" transform="translate(520.485025 0) scale(0.996264)"/>
      <use xlink:href="#CMSS17-65" transform="translate(568.689968 0) scale(0.996264)"/>
      <use xlink:href="#CMSS17-72" transform="translate(610.32879 0) scale(0.996264)"/>
      <use xlink:href="#CMSS17-2d" transform="translate(642.238563 0) scale(0.996264)"/>
      <use xlink:href="#CMSS17-42" transform="translate(673.467676 0) scale(0.996264)"/>
      <use xlink:href="#CMSS17-61" transform="translate(735.805716 0) scale(0.996264)"/>
      <use xlink:href="#CMSS17-73" transform="translate(780.727636 0) scale(0.996264)"/>
      <use xlink:href="#CMSS17-65" transform="translate(816.641178 0) scale(0.996264)"/>
      <use xlink:href="#CMSS17-31" transform="translate(889.509113 0) scale(0.996264)"/>
      <use xlink:href="#CMSS17-2e" transform="translate(936.352737 0) scale(0.996264)"/>
      <use xlink:href="#CMSS17-33" transform="translate(962.376942 0) scale(0.996264)"/>
      <use xlink:href="#CMSS17-42" transform="translate(1009.220565 0) scale(0.996264)"/>
     </g>
    </g>
   </g>
   <g id="patch_24">
    <path d="M 90.364822 405.669781 
L 122.38688 405.669781 
L 122.38688 110.457268 
L 90.364822 110.457268 
z
" clip-path="url(#pfccd94b96f)" style="fill: #f0cca8; stroke: #000000; stroke-width: 0.8; stroke-linejoin: miter"/>
   </g>
   <g id="patch_25">
    <path d="M 250.475111 405.669781 
L 282.497169 405.669781 
L 282.497169 107.426339 
L 250.475111 107.426339 
z
" clip-path="url(#pfccd94b96f)" style="fill: #f0cca8; stroke: #000000; stroke-width: 0.8; stroke-linejoin: miter"/>
   </g>
   <g id="patch_26">
    <path d="M 410.585401 405.669781 
L 442.607459 405.669781 
L 442.607459 247.455272 
L 410.585401 247.455272 
z
" clip-path="url(#pfccd94b96f)" style="fill: #f0cca8; stroke: #000000; stroke-width: 0.8; stroke-linejoin: miter"/>
   </g>
   <g id="patch_27">
    <path d="M 570.69569 405.669781 
L 602.717748 405.669781 
L 602.717748 201.991333 
L 570.69569 201.991333 
z
" clip-path="url(#pfccd94b96f)" style="fill: #f0cca8; stroke: #000000; stroke-width: 0.8; stroke-linejoin: miter"/>
   </g>
   <g id="patch_28">
    <path d="M 122.38688 405.669781 
L 154.408938 405.669781 
L 154.408938 133.492331 
L 122.38688 133.492331 
z
" clip-path="url(#pfccd94b96f)" style="fill: url(#h50ed201da2); stroke: #000000; stroke-width: 0.8; stroke-linejoin: miter"/>
   </g>
   <g id="patch_29">
    <path d="M 282.497169 405.669781 
L 314.519227 405.669781 
L 314.519227 134.704703 
L 282.497169 134.704703 
z
" clip-path="url(#pfccd94b96f)" style="fill: url(#h50ed201da2); stroke: #000000; stroke-width: 0.8; stroke-linejoin: miter"/>
   </g>
   <g id="patch_30">
    <path d="M 442.607459 405.669781 
L 474.629517 405.669781 
L 474.629517 247.455272 
L 442.607459 247.455272 
z
" clip-path="url(#pfccd94b96f)" style="fill: url(#h50ed201da2); stroke: #000000; stroke-width: 0.8; stroke-linejoin: miter"/>
   </g>
   <g id="patch_31">
    <path d="M 602.717748 405.669781 
L 634.739806 405.669781 
L 634.739806 202.597519 
L 602.717748 202.597519 
z
" clip-path="url(#pfccd94b96f)" style="fill: url(#h50ed201da2); stroke: #000000; stroke-width: 0.8; stroke-linejoin: miter"/>
   </g>
  </g>
 </g>
 <defs>
  <clipPath id="pfccd94b96f">
   <rect x="42.331735" y="41.958267" width="640.441158" height="363.711514"/>
  </clipPath>
 </defs>
 <defs>
  <pattern id="hdfe6e120a4" patternUnits="userSpaceOnUse" x="0" y="0" width="72" height="72">
   <rect x="0" y="0" width="73" height="73" fill="#fccc9c"/>
   <path d="M -36 36 
L 36 -36 
M -32 40 
L 40 -32 
M -28 44 
L 44 -28 
M -24 48 
L 48 -24 
M -20 52 
L 52 -20 
M -16 56 
L 56 -16 
M -12 60 
L 60 -12 
M -8 64 
L 64 -8 
M -4 68 
L 68 -4 
M 0 72 
L 72 0 
M 4 76 
L 76 4 
M 8 80 
L 80 8 
M 12 84 
L 84 12 
M 16 88 
L 88 16 
M 20 92 
L 92 20 
M 24 96 
L 96 24 
M 28 100 
L 100 28 
M 32 104 
L 104 32 
M 36 108 
L 108 36 
" style="fill: #ffffff; stroke: #ffffff; stroke-width: 1.0; stroke-linecap: butt; stroke-linejoin: miter"/>
  </pattern>
  <pattern id="h50ed201da2" patternUnits="userSpaceOnUse" x="0" y="0" width="72" height="72">
   <rect x="0" y="0" width="73" height="73" fill="#f0cca8"/>
   <path d="M -36 36 
L 36 -36 
M -32 40 
L 40 -32 
M -28 44 
L 44 -28 
M -24 48 
L 48 -24 
M -20 52 
L 52 -20 
M -16 56 
L 56 -16 
M -12 60 
L 60 -12 
M -8 64 
L 64 -8 
M -4 68 
L 68 -4 
M 0 72 
L 72 0 
M 4 76 
L 76 4 
M 8 80 
L 80 8 
M 12 84 
L 84 12 
M 16 88 
L 88 16 
M 20 92 
L 92 20 
M 24 96 
L 96 24 
M 28 100 
L 100 28 
M 32 104 
L 104 32 
M 36 108 
L 108 36 
" style="fill: #ffffff; stroke: #ffffff; stroke-width: 1.0; stroke-linecap: butt; stroke-linejoin: miter"/>
  </pattern>
 </defs>
</svg>
