<svg width="444" height="134" viewBox="0 0 444 134" fill="none" xmlns="http://www.w3.org/2000/svg">
<path d="M368 14V134" stroke="black" stroke-dasharray="2 2"/>
<path d="M96 62H120V86H96V62Z" fill="#B1DD9F"/>
<path d="M111.171 70V78H110.234L105.875 71.7187H105.796V78H104.828V70H105.765L110.14 76.2969H110.218V70H111.171Z" fill="black"/>
<path d="M128 62H152V86H128V62Z" fill="#B1DD9F"/>
<path d="M143.171 70V78H142.234L137.875 71.7187H137.796V78H136.828V70H137.765L142.14 76.2969H142.218V70H143.171Z" fill="black"/>
<path d="M96 62H120V86H96V62Z" fill="#BCDCFC"/>
<path d="M108.029 78.1094C107.514 78.1094 107.054 78.0208 106.65 77.8437C106.249 77.6667 105.93 77.4206 105.693 77.1055C105.459 76.7878 105.331 76.4193 105.311 76H106.295C106.316 76.2578 106.404 76.4805 106.561 76.668C106.717 76.8529 106.921 76.9961 107.174 77.0977C107.426 77.1992 107.706 77.25 108.014 77.25C108.357 77.25 108.662 77.1901 108.928 77.0703C109.193 76.9505 109.402 76.7839 109.553 76.5703C109.704 76.3568 109.779 76.1094 109.779 75.8281C109.779 75.5339 109.706 75.2747 109.561 75.0508C109.415 74.8242 109.201 74.6471 108.92 74.5195C108.639 74.3919 108.295 74.3281 107.889 74.3281H107.248V73.4687H107.889C108.206 73.4687 108.485 73.4115 108.725 73.2969C108.967 73.1823 109.156 73.0208 109.291 72.8125C109.429 72.6042 109.498 72.3594 109.498 72.0781C109.498 71.8073 109.438 71.5716 109.318 71.3711C109.199 71.1706 109.029 71.0143 108.811 70.9023C108.594 70.7904 108.339 70.7344 108.045 70.7344C107.769 70.7344 107.508 70.7852 107.264 70.8867C107.021 70.9857 106.824 71.1302 106.67 71.3203C106.516 71.5078 106.433 71.7344 106.42 72H105.482C105.498 71.5807 105.624 71.2135 105.861 70.8984C106.098 70.5807 106.408 70.3333 106.791 70.1562C107.176 69.9792 107.6 69.8906 108.061 69.8906C108.555 69.8906 108.98 69.9909 109.334 70.1914C109.688 70.3893 109.96 70.651 110.15 70.9766C110.34 71.3021 110.436 71.6536 110.436 72.0313C110.436 72.4818 110.317 72.8659 110.08 73.1836C109.846 73.5013 109.527 73.7214 109.123 73.8438V73.9062C109.628 73.9896 110.023 74.2044 110.307 74.5508C110.59 74.8945 110.732 75.3203 110.732 75.8281C110.732 76.263 110.614 76.6536 110.377 77C110.143 77.3437 109.822 77.6146 109.416 77.8125C109.01 78.0104 108.548 78.1094 108.029 78.1094Z" fill="black"/>
<path d="M128 62H152V86H128V62Z" fill="#BCDCFC"/>
<path d="M137.498 78V77.2969L140.139 74.4062C140.449 74.0677 140.704 73.7734 140.904 73.5234C141.105 73.2708 141.253 73.0339 141.35 72.8125C141.449 72.5885 141.498 72.3542 141.498 72.1094C141.498 71.8281 141.43 71.5846 141.295 71.3789C141.162 71.1732 140.98 71.0143 140.748 70.9023C140.516 70.7904 140.256 70.7344 139.967 70.7344C139.66 70.7344 139.391 70.7982 139.162 70.9258C138.936 71.0508 138.76 71.2266 138.635 71.4531C138.512 71.6797 138.451 71.9453 138.451 72.25H137.529C137.529 71.7812 137.637 71.3698 137.854 71.0156C138.07 70.6615 138.364 70.3854 138.736 70.1875C139.111 69.9896 139.532 69.8906 139.998 69.8906C140.467 69.8906 140.882 69.9896 141.244 70.1875C141.606 70.3854 141.89 70.6523 142.096 70.9883C142.301 71.3242 142.404 71.6979 142.404 72.1094C142.404 72.4036 142.351 72.6914 142.244 72.9727C142.14 73.2513 141.958 73.5625 141.697 73.9062C141.439 74.2474 141.081 74.6641 140.623 75.1562L138.826 77.0781V77.1406H142.545V78H137.498Z" fill="black"/>
<path d="M160 62H184V86H160V62Z" fill="#BCDCFC"/>
<path d="M173.084 70V78H172.115V71.0156H172.068L170.115 72.3125V71.3281L172.115 70H173.084Z" fill="black"/>
<path d="M0 62H24V86H0V62Z" fill="#B1DD9F"/>
<path d="M15.1714 70V78H14.2339L9.87451 71.7187H9.79639V78H8.82764V70H9.76514L14.1401 76.2969H14.2183V70H15.1714Z" fill="black"/>
<path d="M32 62H56V86H32V62Z" fill="#B1DD9F"/>
<path d="M47.1714 70V78H46.2339L41.8745 71.7187H41.7964V78H40.8276V70H41.7651L46.1401 76.2969H46.2183V70H47.1714Z" fill="black"/>
<path d="M0 62H24V86H0V62Z" fill="#BCDCFC"/>
<path d="M15.1714 70V78H14.2339L9.87451 71.7187H9.79639V78H8.82764V70H9.76514L14.1401 76.2969H14.2183V70H15.1714Z" fill="black"/>
<path d="M32 62H56V86H32V62Z" fill="#BCDCFC"/>
<path d="M42.085 70V78H41.1475L36.7881 71.7187H36.71V78H35.7412V70H36.6787L41.0537 76.2969H41.1318V70H42.085ZM47.3359 73.5703V74.4297H43.8359V73.5703H47.3359ZM51.7549 70V78H50.7861V71.0156H50.7393L48.7861 72.3125V71.3281L50.7861 70H51.7549Z" fill="black"/>
<path d="M71.8705 76.0852C71.6077 76.0852 71.3822 75.9911 71.194 75.8029C71.0058 75.6147 70.9117 75.3892 70.9117 75.1264C70.9117 74.8636 71.0058 74.6381 71.194 74.4499C71.3822 74.2617 71.6077 74.1676 71.8705 74.1676C72.1333 74.1676 72.3588 74.2617 72.547 74.4499C72.7352 74.6381 72.8293 74.8636 72.8293 75.1264C72.8293 75.3004 72.7849 75.4602 72.6961 75.6058C72.6109 75.7514 72.4955 75.8686 72.3499 75.9574C72.2078 76.0426 72.048 76.0852 71.8705 76.0852ZM76.0013 76.0852C75.7385 76.0852 75.5131 75.9911 75.3248 75.8029C75.1366 75.6147 75.0425 75.3892 75.0425 75.1264C75.0425 74.8636 75.1366 74.6381 75.3248 74.4499C75.5131 74.2617 75.7385 74.1676 76.0013 74.1676C76.2641 74.1676 76.4896 74.2617 76.6778 74.4499C76.866 74.6381 76.9601 74.8636 76.9601 75.1264C76.9601 75.3004 76.9157 75.4602 76.827 75.6058C76.7417 75.7514 76.6263 75.8686 76.4807 75.9574C76.3387 76.0426 76.1789 76.0852 76.0013 76.0852ZM80.1322 76.0852C79.8694 76.0852 79.6439 75.9911 79.4557 75.8029C79.2675 75.6147 79.1734 75.3892 79.1734 75.1264C79.1734 74.8636 79.2675 74.6381 79.4557 74.4499C79.6439 74.2617 79.8694 74.1676 80.1322 74.1676C80.395 74.1676 80.6205 74.2617 80.8087 74.4499C80.9969 74.6381 81.091 74.8636 81.091 75.1264C81.091 75.3004 81.0466 75.4602 80.9578 75.6058C80.8726 75.7514 80.7572 75.8686 80.6116 75.9574C80.4695 76.0426 80.3097 76.0852 80.1322 76.0852Z" fill="black"/>
<path d="M356 30H380V54H356V30Z" fill="#B1DD9F"/>
<path d="M371.171 38V46H370.234L365.875 39.7187H365.796V46H364.828V38H365.765L370.14 44.2969H370.218V38H371.171Z" fill="black"/>
<path d="M388 30H412V54H388V30Z" fill="#B1DD9F"/>
<path d="M403.171 38V46H402.234L397.875 39.7187H397.796V46H396.828V38H397.765L402.14 44.2969H402.218V38H403.171Z" fill="black"/>
<path d="M356 30H380V54H356V30Z" fill="#BCDCFC"/>
<path d="M368.029 46.1094C367.514 46.1094 367.054 46.0208 366.65 45.8437C366.249 45.6667 365.93 45.4206 365.693 45.1055C365.459 44.7878 365.331 44.4193 365.311 44H366.295C366.316 44.2578 366.404 44.4805 366.561 44.668C366.717 44.8529 366.921 44.9961 367.174 45.0977C367.426 45.1992 367.706 45.25 368.014 45.25C368.357 45.25 368.662 45.1901 368.928 45.0703C369.193 44.9505 369.402 44.7839 369.553 44.5703C369.704 44.3568 369.779 44.1094 369.779 43.8281C369.779 43.5339 369.706 43.2747 369.561 43.0508C369.415 42.8242 369.201 42.6471 368.92 42.5195C368.639 42.3919 368.295 42.3281 367.889 42.3281H367.248V41.4687H367.889C368.206 41.4687 368.485 41.4115 368.725 41.2969C368.967 41.1823 369.156 41.0208 369.291 40.8125C369.429 40.6042 369.498 40.3594 369.498 40.0781C369.498 39.8073 369.438 39.5716 369.318 39.3711C369.199 39.1706 369.029 39.0143 368.811 38.9023C368.594 38.7904 368.339 38.7344 368.045 38.7344C367.769 38.7344 367.508 38.7852 367.264 38.8867C367.021 38.9857 366.824 39.1302 366.67 39.3203C366.516 39.5078 366.433 39.7344 366.42 40H365.482C365.498 39.5807 365.624 39.2135 365.861 38.8984C366.098 38.5807 366.408 38.3333 366.791 38.1562C367.176 37.9792 367.6 37.8906 368.061 37.8906C368.555 37.8906 368.98 37.9909 369.334 38.1914C369.688 38.3893 369.96 38.651 370.15 38.9766C370.34 39.3021 370.436 39.6536 370.436 40.0313C370.436 40.4818 370.317 40.8659 370.08 41.1836C369.846 41.5013 369.527 41.7214 369.123 41.8438V41.9062C369.628 41.9896 370.023 42.2044 370.307 42.5508C370.59 42.8945 370.732 43.3203 370.732 43.8281C370.732 44.263 370.614 44.6536 370.377 45C370.143 45.3437 369.822 45.6146 369.416 45.8125C369.01 46.0104 368.548 46.1094 368.029 46.1094Z" fill="black"/>
<path d="M388 30H412V54H388V30Z" fill="#BCDCFC"/>
<path d="M397.498 46V45.2969L400.139 42.4062C400.449 42.0677 400.704 41.7734 400.904 41.5234C401.105 41.2708 401.253 41.0339 401.35 40.8125C401.449 40.5885 401.498 40.3542 401.498 40.1094C401.498 39.8281 401.43 39.5846 401.295 39.3789C401.162 39.1732 400.98 39.0143 400.748 38.9023C400.516 38.7904 400.256 38.7344 399.967 38.7344C399.66 38.7344 399.391 38.7982 399.162 38.9258C398.936 39.0508 398.76 39.2266 398.635 39.4531C398.512 39.6797 398.451 39.9453 398.451 40.25H397.529C397.529 39.7812 397.637 39.3698 397.854 39.0156C398.07 38.6615 398.364 38.3854 398.736 38.1875C399.111 37.9896 399.532 37.8906 399.998 37.8906C400.467 37.8906 400.882 37.9896 401.244 38.1875C401.606 38.3854 401.89 38.6523 402.096 38.9883C402.301 39.3242 402.404 39.6979 402.404 40.1094C402.404 40.4036 402.351 40.6914 402.244 40.9727C402.14 41.2513 401.958 41.5625 401.697 41.9062C401.439 42.2474 401.081 42.6641 400.623 43.1562L398.826 45.0781V45.1406H402.545V46H397.498Z" fill="black"/>
<path d="M420 30H444V54H420V30Z" fill="#BCDCFC"/>
<path d="M433.084 38V46H432.115V39.0156H432.068L430.115 40.3125V39.3281L432.115 38H433.084Z" fill="black"/>
<path d="M260 30H284V54H260V30Z" fill="#B1DD9F"/>
<path d="M275.171 38V46H274.234L269.875 39.7187H269.796V46H268.828V38H269.765L274.14 44.2969H274.218V38H275.171Z" fill="black"/>
<path d="M292 30H316V54H292V30Z" fill="#B1DD9F"/>
<path d="M307.171 38V46H306.234L301.875 39.7187H301.796V46H300.828V38H301.765L306.14 44.2969H306.218V38H307.171Z" fill="black"/>
<path d="M260 30H284V54H260V30Z" fill="#BCDCFC"/>
<path d="M275.171 38V46H274.234L269.875 39.7187H269.796V46H268.828V38H269.765L274.14 44.2969H274.218V38H275.171Z" fill="black"/>
<path d="M292 30H316V54H292V30Z" fill="#BCDCFC"/>
<path d="M302.085 38V46H301.147L296.788 39.7187H296.71V46H295.741V38H296.679L301.054 44.2969H301.132V38H302.085ZM307.336 41.5703V42.4297H303.836V41.5703H307.336ZM311.755 38V46H310.786V39.0156H310.739L308.786 40.3125V39.3281L310.786 38H311.755Z" fill="black"/>
<path d="M331.87 44.0852C331.608 44.0852 331.382 43.9911 331.194 43.8029C331.006 43.6147 330.912 43.3892 330.912 43.1264C330.912 42.8636 331.006 42.6381 331.194 42.4499C331.382 42.2617 331.608 42.1676 331.87 42.1676C332.133 42.1676 332.359 42.2617 332.547 42.4499C332.735 42.6381 332.829 42.8636 332.829 43.1264C332.829 43.3004 332.785 43.4602 332.696 43.6058C332.611 43.7514 332.495 43.8686 332.35 43.9574C332.208 44.0426 332.048 44.0852 331.87 44.0852ZM336.001 44.0852C335.739 44.0852 335.513 43.9911 335.325 43.8029C335.137 43.6147 335.043 43.3892 335.043 43.1264C335.043 42.8636 335.137 42.6381 335.325 42.4499C335.513 42.2617 335.739 42.1676 336.001 42.1676C336.264 42.1676 336.49 42.2617 336.678 42.4499C336.866 42.6381 336.96 42.8636 336.96 43.1264C336.96 43.3004 336.916 43.4602 336.827 43.6058C336.742 43.7514 336.626 43.8686 336.481 43.9574C336.339 44.0426 336.179 44.0852 336.001 44.0852ZM340.132 44.0852C339.869 44.0852 339.644 43.9911 339.456 43.8029C339.267 43.6147 339.173 43.3892 339.173 43.1264C339.173 42.8636 339.267 42.6381 339.456 42.4499C339.644 42.2617 339.869 42.1676 340.132 42.1676C340.395 42.1676 340.62 42.2617 340.809 42.4499C340.997 42.6381 341.091 42.8636 341.091 43.1264C341.091 43.3004 341.047 43.4602 340.958 43.6058C340.873 43.7514 340.757 43.8686 340.612 43.9574C340.47 44.0426 340.31 44.0852 340.132 44.0852Z" fill="black"/>
<path d="M356 94H380V118H356V94Z" fill="#B1DD9F"/>
<path d="M371.171 102V110H370.234L365.875 103.719H365.796V110H364.828V102H365.765L370.14 108.297H370.218V102H371.171Z" fill="black"/>
<path d="M388 94H412V118H388V94Z" fill="#B1DD9F"/>
<path d="M403.171 102V110H402.234L397.875 103.719H397.796V110H396.828V102H397.765L402.14 108.297H402.218V102H403.171Z" fill="black"/>
<path d="M356 94H380V118H356V94Z" fill="#B1DD9F"/>
<path d="M365.5 102V110H364.562L360.203 103.719H360.125V110H359.156V102H360.093L364.468 108.297H364.546V102H365.5ZM370.75 105.57V106.43H367.25V105.57H370.75ZM371.981 110V109.297L374.622 106.406C374.931 106.068 375.187 105.773 375.387 105.523C375.588 105.271 375.736 105.034 375.833 104.812C375.931 104.589 375.981 104.354 375.981 104.109C375.981 103.828 375.913 103.585 375.778 103.379C375.645 103.173 375.463 103.014 375.231 102.902C374.999 102.79 374.739 102.734 374.45 102.734C374.142 102.734 373.874 102.798 373.645 102.926C373.418 103.051 373.243 103.227 373.118 103.453C372.995 103.68 372.934 103.945 372.934 104.25H372.012C372.012 103.781 372.12 103.37 372.336 103.016C372.553 102.661 372.847 102.385 373.219 102.187C373.594 101.99 374.015 101.891 374.481 101.891C374.95 101.891 375.365 101.99 375.727 102.187C376.089 102.385 376.373 102.652 376.579 102.988C376.784 103.324 376.887 103.698 376.887 104.109C376.887 104.404 376.834 104.691 376.727 104.973C376.623 105.251 376.441 105.562 376.18 105.906C375.922 106.247 375.564 106.664 375.106 107.156L373.309 109.078V109.141H377.028V110H371.981Z" fill="black"/>
<path d="M388 94H412V118H388V94Z" fill="#B1DD9F"/>
<path d="M398.085 102V110H397.147L392.788 103.719H392.71V110H391.741V102H392.679L397.054 108.297H397.132V102H398.085ZM403.336 105.57V106.43H399.836V105.57H403.336ZM407.755 102V110H406.786V103.016H406.739L404.786 104.312V103.328L406.786 102H407.755Z" fill="black"/>
<path d="M420 94H444V118H420V94Z" fill="#B1DD9F"/>
<path d="M435.171 102V110H434.234L429.875 103.719H429.796V110H428.828V102H429.765L434.14 108.297H434.218V102H435.171Z" fill="black"/>
<path d="M260 94H284V118H260V94Z" fill="#B1DD9F"/>
<path d="M275.171 102V110H274.234L269.875 103.719H269.796V110H268.828V102H269.765L274.14 108.297H274.218V102H275.171Z" fill="black"/>
<path d="M292 94H316V118H292V94Z" fill="#B1DD9F"/>
<path d="M307.171 102V110H306.234L301.875 103.719H301.796V110H300.828V102H301.765L306.14 108.297H306.218V102H307.171Z" fill="black"/>
<path d="M260 94H284V118H260V94Z" fill="#B1DD9F"/>
<path d="M273.084 102V110H272.115V103.016H272.068L270.115 104.312V103.328L272.115 102H273.084Z" fill="black"/>
<path d="M292 94H316V118H292V94Z" fill="#B1DD9F"/>
<path d="M301.498 110V109.297L304.139 106.406C304.449 106.068 304.704 105.773 304.904 105.523C305.105 105.271 305.253 105.034 305.35 104.812C305.449 104.589 305.498 104.354 305.498 104.109C305.498 103.828 305.43 103.585 305.295 103.379C305.162 103.173 304.98 103.014 304.748 102.902C304.516 102.79 304.256 102.734 303.967 102.734C303.66 102.734 303.391 102.798 303.162 102.926C302.936 103.051 302.76 103.227 302.635 103.453C302.512 103.68 302.451 103.945 302.451 104.25H301.529C301.529 103.781 301.637 103.37 301.854 103.016C302.07 102.661 302.364 102.385 302.736 102.187C303.111 101.99 303.532 101.891 303.998 101.891C304.467 101.891 304.882 101.99 305.244 102.187C305.606 102.385 305.89 102.652 306.096 102.988C306.301 103.324 306.404 103.698 306.404 104.109C306.404 104.404 306.351 104.691 306.244 104.973C306.14 105.251 305.958 105.562 305.697 105.906C305.439 106.247 305.081 106.664 304.623 107.156L302.826 109.078V109.141H306.545V110H301.498Z" fill="black"/>
<path d="M331.87 108.085C331.608 108.085 331.382 107.991 331.194 107.803C331.006 107.615 330.912 107.389 330.912 107.126C330.912 106.864 331.006 106.638 331.194 106.45C331.382 106.262 331.608 106.168 331.87 106.168C332.133 106.168 332.359 106.262 332.547 106.45C332.735 106.638 332.829 106.864 332.829 107.126C332.829 107.3 332.785 107.46 332.696 107.606C332.611 107.751 332.495 107.869 332.35 107.957C332.208 108.043 332.048 108.085 331.87 108.085ZM336.001 108.085C335.739 108.085 335.513 107.991 335.325 107.803C335.137 107.615 335.043 107.389 335.043 107.126C335.043 106.864 335.137 106.638 335.325 106.45C335.513 106.262 335.739 106.168 336.001 106.168C336.264 106.168 336.49 106.262 336.678 106.45C336.866 106.638 336.96 106.864 336.96 107.126C336.96 107.3 336.916 107.46 336.827 107.606C336.742 107.751 336.626 107.869 336.481 107.957C336.339 108.043 336.179 108.085 336.001 108.085ZM340.132 108.085C339.869 108.085 339.644 107.991 339.456 107.803C339.267 107.615 339.173 107.389 339.173 107.126C339.173 106.864 339.267 106.638 339.456 106.45C339.644 106.262 339.869 106.168 340.132 106.168C340.395 106.168 340.62 106.262 340.809 106.45C340.997 106.638 341.091 106.864 341.091 107.126C341.091 107.3 341.047 107.46 340.958 107.606C340.873 107.751 340.757 107.869 340.612 107.957C340.47 108.043 340.31 108.085 340.132 108.085Z" fill="black"/>
<path d="M356 62H380V86H356V62Z" fill="#B1DD9F"/>
<path d="M371.171 70V78H370.234L365.875 71.7187H365.796V78H364.828V70H365.765L370.14 76.2969H370.218V70H371.171Z" fill="black"/>
<path d="M388 62H412V86H388V62Z" fill="#B1DD9F"/>
<path d="M403.171 70V78H402.234L397.875 71.7187H397.796V78H396.828V70H397.765L402.14 76.2969H402.218V70H403.171Z" fill="black"/>
<path d="M356 62H380V86H356V62Z" fill="#FCCC9C"/>
<path d="M369.084 70V78H368.115V71.0156H368.068L366.115 72.3125V71.3281L368.115 70H369.084Z" fill="black"/>
<path d="M388 62H412V86H388V62Z" fill="#FCCC9C"/>
<path d="M397.498 78V77.2969L400.139 74.4062C400.449 74.0677 400.704 73.7734 400.904 73.5234C401.105 73.2708 401.253 73.0339 401.35 72.8125C401.449 72.5885 401.498 72.3542 401.498 72.1094C401.498 71.8281 401.43 71.5846 401.295 71.3789C401.162 71.1732 400.98 71.0143 400.748 70.9023C400.516 70.7904 400.256 70.7344 399.967 70.7344C399.66 70.7344 399.391 70.7982 399.162 70.9258C398.936 71.0508 398.76 71.2266 398.635 71.4531C398.512 71.6797 398.451 71.9453 398.451 72.25H397.529C397.529 71.7812 397.637 71.3698 397.854 71.0156C398.07 70.6615 398.364 70.3854 398.736 70.1875C399.111 69.9896 399.532 69.8906 399.998 69.8906C400.467 69.8906 400.882 69.9896 401.244 70.1875C401.606 70.3854 401.89 70.6523 402.096 70.9883C402.301 71.3242 402.404 71.6979 402.404 72.1094C402.404 72.4036 402.351 72.6914 402.244 72.9727C402.14 73.2513 401.958 73.5625 401.697 73.9062C401.439 74.2474 401.081 74.6641 400.623 75.1562L398.826 77.0781V77.1406H402.545V78H397.498Z" fill="black"/>
<path d="M420 62H444V86H420V62Z" fill="#FCCC9C"/>
<path d="M432.029 78.1094C431.514 78.1094 431.054 78.0208 430.65 77.8437C430.249 77.6667 429.93 77.4206 429.693 77.1055C429.459 76.7878 429.331 76.4193 429.311 76H430.295C430.316 76.2578 430.404 76.4805 430.561 76.668C430.717 76.8529 430.921 76.9961 431.174 77.0977C431.426 77.1992 431.706 77.25 432.014 77.25C432.357 77.25 432.662 77.1901 432.928 77.0703C433.193 76.9505 433.402 76.7839 433.553 76.5703C433.704 76.3568 433.779 76.1094 433.779 75.8281C433.779 75.5339 433.706 75.2747 433.561 75.0508C433.415 74.8242 433.201 74.6471 432.92 74.5195C432.639 74.3919 432.295 74.3281 431.889 74.3281H431.248V73.4687H431.889C432.206 73.4687 432.485 73.4115 432.725 73.2969C432.967 73.1823 433.156 73.0208 433.291 72.8125C433.429 72.6042 433.498 72.3594 433.498 72.0781C433.498 71.8073 433.438 71.5716 433.318 71.3711C433.199 71.1706 433.029 71.0143 432.811 70.9023C432.594 70.7904 432.339 70.7344 432.045 70.7344C431.769 70.7344 431.508 70.7852 431.264 70.8867C431.021 70.9857 430.824 71.1302 430.67 71.3203C430.516 71.5078 430.433 71.7344 430.42 72H429.482C429.498 71.5807 429.624 71.2135 429.861 70.8984C430.098 70.5807 430.408 70.3333 430.791 70.1562C431.176 69.9792 431.6 69.8906 432.061 69.8906C432.555 69.8906 432.98 69.9909 433.334 70.1914C433.688 70.3893 433.96 70.651 434.15 70.9766C434.34 71.3021 434.436 71.6536 434.436 72.0313C434.436 72.4818 434.317 72.8659 434.08 73.1836C433.846 73.5013 433.527 73.7214 433.123 73.8438V73.9062C433.628 73.9896 434.023 74.2044 434.307 74.5508C434.59 74.8945 434.732 75.3203 434.732 75.8281C434.732 76.263 434.614 76.6536 434.377 77C434.143 77.3437 433.822 77.6146 433.416 77.8125C433.01 78.0104 432.548 78.1094 432.029 78.1094Z" fill="black"/>
<path d="M260 62H284V86H260V62Z" fill="#B1DD9F"/>
<path d="M275.171 70V78H274.234L269.875 71.7187H269.796V78H268.828V70H269.765L274.14 76.2969H274.218V70H275.171Z" fill="black"/>
<path d="M292 62H316V86H292V62Z" fill="#B1DD9F"/>
<path d="M307.171 70V78H306.234L301.875 71.7187H301.796V78H300.828V70H301.765L306.14 76.2969H306.218V70H307.171Z" fill="black"/>
<path d="M260 62H284V86H260V62Z" fill="#FCCC9C"/>
<path d="M275.171 70V78H274.234L269.875 71.7187H269.796V78H268.828V70H269.765L274.14 76.2969H274.218V70H275.171Z" fill="black"/>
<path d="M292 62H316V86H292V62Z" fill="#FCCC9C"/>
<path d="M302.085 70V78H301.147L296.788 71.7187H296.71V78H295.741V70H296.679L301.054 76.2969H301.132V70H302.085ZM307.336 73.5703V74.4297H303.836V73.5703H307.336ZM311.755 70V78H310.786V71.0156H310.739L308.786 72.3125V71.3281L310.786 70H311.755Z" fill="black"/>
<path d="M331.87 76.0852C331.608 76.0852 331.382 75.9911 331.194 75.8029C331.006 75.6147 330.912 75.3892 330.912 75.1264C330.912 74.8636 331.006 74.6381 331.194 74.4499C331.382 74.2617 331.608 74.1676 331.87 74.1676C332.133 74.1676 332.359 74.2617 332.547 74.4499C332.735 74.6381 332.829 74.8636 332.829 75.1264C332.829 75.3004 332.785 75.4602 332.696 75.6058C332.611 75.7514 332.495 75.8686 332.35 75.9574C332.208 76.0426 332.048 76.0852 331.87 76.0852ZM336.001 76.0852C335.739 76.0852 335.513 75.9911 335.325 75.8029C335.137 75.6147 335.043 75.3892 335.043 75.1264C335.043 74.8636 335.137 74.6381 335.325 74.4499C335.513 74.2617 335.739 74.1676 336.001 74.1676C336.264 74.1676 336.49 74.2617 336.678 74.4499C336.866 74.6381 336.96 74.8636 336.96 75.1264C336.96 75.3004 336.916 75.4602 336.827 75.6058C336.742 75.7514 336.626 75.8686 336.481 75.9574C336.339 76.0426 336.179 76.0852 336.001 76.0852ZM340.132 76.0852C339.869 76.0852 339.644 75.9911 339.456 75.8029C339.267 75.6147 339.173 75.3892 339.173 75.1264C339.173 74.8636 339.267 74.6381 339.456 74.4499C339.644 74.2617 339.869 74.1676 340.132 74.1676C340.395 74.1676 340.62 74.2617 340.809 74.4499C340.997 74.6381 341.091 74.8636 341.091 75.1264C341.091 75.3004 341.047 75.4602 340.958 75.6058C340.873 75.7514 340.757 75.8686 340.612 75.9574C340.47 76.0426 340.31 76.0852 340.132 76.0852Z" fill="black"/>
<path d="M198 42V41.5H197.5V42H198ZM256 42L251 39.1132V44.8868L256 42ZM198.5 73V42H197.5V73H198.5ZM198 42.5H251.5V41.5H198V42.5Z" fill="black"/>
<path d="M198 106V106.5H197.5V106H198ZM256 106L251 108.887V103.113L256 106ZM198.5 73V106H197.5V73H198.5ZM198 105.5H251.5V106.5H198V105.5Z" fill="black"/>
<path d="M256 74L251 71.1132V76.8868L256 74ZM188 74.5H251.5V73.5H188V74.5Z" fill="black"/>
<path d="M347.204 3.45455V10H346.412V4.28551H346.373L344.775 5.34659V4.54119L346.412 3.45455H347.204ZM351.26 10.0895C350.992 10.0852 350.723 10.0341 350.455 9.93608C350.186 9.83807 349.941 9.67294 349.72 9.4407C349.498 9.20632 349.32 8.88991 349.186 8.49148C349.052 8.09091 348.984 7.58807 348.984 6.98295C348.984 6.40341 349.039 5.88991 349.147 5.44247C349.256 4.9929 349.414 4.6147 349.62 4.30788C349.827 3.99893 350.076 3.76456 350.368 3.60476C350.662 3.44496 350.994 3.36506 351.362 3.36506C351.729 3.36506 352.055 3.43857 352.34 3.58558C352.628 3.73047 352.862 3.93288 353.043 4.19283C353.225 4.45277 353.342 4.75213 353.395 5.09091H352.615C352.543 4.79687 352.402 4.55291 352.193 4.35902C351.984 4.16513 351.707 4.06818 351.362 4.06818C350.855 4.06818 350.456 4.28871 350.164 4.72976C349.874 5.17081 349.728 5.78977 349.726 6.58665H349.777C349.896 6.40554 350.038 6.25107 350.202 6.12322C350.368 5.99325 350.552 5.89311 350.752 5.8228C350.952 5.75249 351.164 5.71733 351.388 5.71733C351.763 5.71733 352.106 5.81108 352.417 5.99858C352.728 6.18395 352.977 6.4407 353.165 6.76882C353.352 7.09482 353.446 7.46875 353.446 7.89062C353.446 8.29545 353.356 8.66619 353.174 9.00284C352.993 9.33736 352.739 9.60369 352.411 9.80185C352.085 9.99787 351.701 10.0938 351.26 10.0895ZM351.26 9.38636C351.528 9.38636 351.769 9.31925 351.982 9.18501C352.198 9.05078 352.367 8.87074 352.491 8.64489C352.616 8.41903 352.679 8.16761 352.679 7.89062C352.679 7.62003 352.618 7.37393 352.497 7.15234C352.378 6.92862 352.212 6.75071 352.002 6.61861C351.793 6.48651 351.554 6.42045 351.286 6.42045C351.083 6.42045 350.895 6.46094 350.72 6.5419C350.545 6.62074 350.392 6.7294 350.26 6.8679C350.13 7.00639 350.027 7.16513 349.953 7.34411C349.878 7.52095 349.841 7.70739 349.841 7.90341C349.841 8.16335 349.902 8.40625 350.023 8.6321C350.147 8.85795 350.315 9.04013 350.528 9.17862C350.743 9.31712 350.987 9.38636 351.26 9.38636ZM354.818 10V3.45455H355.611V6.7017H355.687L358.628 3.45455H359.663L356.915 6.40767L359.663 10H358.704L356.429 6.95739L355.611 7.87784V10H354.818ZM365.112 10.1023C364.652 10.1023 364.256 9.99361 363.923 9.77628C363.591 9.55895 363.335 9.25959 363.156 8.8782C362.977 8.4968 362.888 8.06108 362.888 7.57102C362.888 7.07244 362.98 6.63246 363.163 6.25107C363.348 5.86754 363.606 5.56818 363.936 5.35298C364.269 5.13565 364.656 5.02699 365.1 5.02699C365.445 5.02699 365.756 5.09091 366.033 5.21875C366.31 5.34659 366.537 5.52557 366.714 5.75568C366.89 5.9858 367 6.25426 367.043 6.56108H366.289C366.231 6.33736 366.103 6.1392 365.905 5.96662C365.709 5.7919 365.445 5.70455 365.112 5.70455C364.818 5.70455 364.561 5.78125 364.339 5.93466C364.119 6.08594 363.948 6.30007 363.824 6.57706C363.703 6.85192 363.642 7.17472 363.642 7.54545C363.642 7.92472 363.702 8.25497 363.821 8.53622C363.943 8.81747 364.113 9.03587 364.333 9.19141C364.554 9.34695 364.814 9.42472 365.112 9.42472C365.308 9.42472 365.486 9.39062 365.646 9.32244C365.806 9.25426 365.941 9.15625 366.052 9.02841C366.163 8.90057 366.242 8.74716 366.289 8.56818H367.043C367 8.85795 366.895 9.11896 366.726 9.35121C366.56 9.58132 366.34 9.76456 366.065 9.90092C365.792 10.0352 365.475 10.1023 365.112 10.1023ZM371.239 7.9929V5.09091H371.993V10H371.239V9.16903H371.188C371.073 9.41832 370.894 9.63033 370.651 9.80504C370.408 9.97763 370.101 10.0639 369.731 10.0639C369.424 10.0639 369.151 9.9968 368.912 9.86257C368.674 9.72621 368.486 9.52166 368.35 9.24893C368.214 8.97408 368.145 8.62784 368.145 8.21023V5.09091H368.9V8.15909C368.9 8.51705 369 8.80256 369.2 9.01562C369.403 9.22869 369.66 9.33523 369.974 9.33523C370.161 9.33523 370.352 9.28729 370.546 9.19141C370.742 9.09553 370.906 8.94851 371.038 8.75036C371.172 8.5522 371.239 8.29972 371.239 7.9929ZM375.51 5.09091V5.73011H372.966V5.09091H375.51ZM373.707 3.91477H374.462V8.59375C374.462 8.80682 374.492 8.96662 374.554 9.07315C374.618 9.17756 374.699 9.24787 374.797 9.28409C374.897 9.31818 375.003 9.33523 375.114 9.33523C375.197 9.33523 375.265 9.33097 375.318 9.32244C375.371 9.31179 375.414 9.30327 375.446 9.29688L375.599 9.97443C375.548 9.99361 375.477 10.0128 375.385 10.032C375.294 10.0533 375.177 10.0639 375.037 10.0639C374.824 10.0639 374.615 10.0181 374.41 9.92649C374.208 9.83487 374.04 9.69531 373.905 9.50781C373.773 9.32031 373.707 9.08381 373.707 8.7983V3.91477ZM379.281 6.84233V7.54545H376.418V6.84233H379.281ZM382.603 10.1023C382.159 10.1023 381.771 9.9968 381.436 9.78587C381.104 9.57493 380.844 9.27983 380.656 8.90057C380.471 8.52131 380.378 8.07812 380.378 7.57102C380.378 7.05966 380.471 6.61328 380.656 6.23189C380.844 5.8505 381.104 5.55433 381.436 5.34339C381.771 5.13246 382.159 5.02699 382.603 5.02699C383.046 5.02699 383.434 5.13246 383.766 5.34339C384.1 5.55433 384.36 5.8505 384.546 6.23189C384.733 6.61328 384.827 7.05966 384.827 7.57102C384.827 8.07812 384.733 8.52131 384.546 8.90057C384.36 9.27983 384.1 9.57493 383.766 9.78587C383.434 9.9968 383.046 10.1023 382.603 10.1023ZM382.603 9.42472C382.939 9.42472 383.216 9.33842 383.434 9.16584C383.651 8.99325 383.812 8.76634 383.916 8.48509C384.021 8.20384 384.073 7.89915 384.073 7.57102C384.073 7.2429 384.021 6.93714 383.916 6.65376C383.812 6.37038 383.651 6.14134 383.434 5.96662C383.216 5.7919 382.939 5.70455 382.603 5.70455C382.266 5.70455 381.989 5.7919 381.772 5.96662C381.554 6.14134 381.393 6.37038 381.289 6.65376C381.185 6.93714 381.132 7.2429 381.132 7.57102C381.132 7.89915 381.185 8.20384 381.289 8.48509C381.393 8.76634 381.554 8.99325 381.772 9.16584C381.989 9.33842 382.266 9.42472 382.603 9.42472ZM388.165 5.09091V5.73011H385.518V5.09091H388.165ZM386.311 10V4.41335C386.311 4.1321 386.377 3.89773 386.509 3.71023C386.641 3.52273 386.813 3.3821 387.024 3.28835C387.234 3.1946 387.457 3.14773 387.691 3.14773C387.877 3.14773 388.028 3.16264 388.145 3.19247C388.263 3.2223 388.35 3.25 388.407 3.27557L388.19 3.92756C388.152 3.91477 388.098 3.89879 388.03 3.87962C387.964 3.86044 387.877 3.85085 387.768 3.85085C387.519 3.85085 387.339 3.91371 387.228 4.03942C387.119 4.16513 387.065 4.34943 387.065 4.59233V10H386.311ZM391.408 5.09091V5.73011H388.761V5.09091H391.408ZM389.554 10V4.41335C389.554 4.1321 389.62 3.89773 389.752 3.71023C389.884 3.52273 390.056 3.3821 390.267 3.28835C390.478 3.1946 390.7 3.14773 390.935 3.14773C391.12 3.14773 391.271 3.16264 391.388 3.19247C391.506 3.2223 391.593 3.25 391.651 3.27557L391.433 3.92756C391.395 3.91477 391.342 3.89879 391.273 3.87962C391.207 3.86044 391.12 3.85085 391.011 3.85085C390.762 3.85085 390.582 3.91371 390.471 4.03942C390.363 4.16513 390.308 4.34943 390.308 4.59233V10H389.554Z" fill="black"/>
<path d="M49.52 92.8527H51.44V95.1027C51.44 96.5027 51.77 97.3927 52.43 97.7727C53.07 98.1727 53.83 98.3727 54.71 98.3727H71.27C72.59 98.3727 73.73 98.6727 74.69 99.2727C75.65 99.8927 76.2 100.763 76.34 101.883C76.46 100.763 77.02 99.8927 78.02 99.2727C79.02 98.6727 80.19 98.3727 81.53 98.3727H98.09C99.25 98.3727 100.08 98.1127 100.58 97.5927C101.1 97.0727 101.36 96.2427 101.36 95.1027V92.8527H103.28V95.1027C103.28 96.5227 103.04 97.6027 102.56 98.3427C102.08 99.1027 101.37 99.6227 100.43 99.9027C99.49 100.203 98.34 100.353 96.98 100.353H81.77C80.67 100.353 79.67 100.603 78.77 101.103C77.87 101.623 77.42 102.703 77.42 104.343H75.44C75.44 102.703 74.98 101.623 74.06 101.103C73.14 100.603 72.13 100.353 71.03 100.353H55.82C54.46 100.353 53.31 100.203 52.37 99.9027C51.43 99.6227 50.72 99.1027 50.24 98.3427C49.76 97.6027 49.52 96.5227 49.52 95.1027V92.8527Z" fill="black"/>
<path d="M48.7579 112.5H47.9653C47.9184 112.272 47.8364 112.072 47.7192 111.899C47.6041 111.727 47.4635 111.582 47.2973 111.464C47.1333 111.345 46.9511 111.256 46.7508 111.196C46.5505 111.136 46.3417 111.107 46.1244 111.107C45.7281 111.107 45.3691 111.207 45.0473 111.407C44.7277 111.607 44.4731 111.902 44.2835 112.292C44.096 112.682 44.0022 113.161 44.0022 113.727C44.0022 114.294 44.096 114.772 44.2835 115.162C44.4731 115.552 44.7277 115.847 45.0473 116.048C45.3691 116.248 45.7281 116.348 46.1244 116.348C46.3417 116.348 46.5505 116.318 46.7508 116.259C46.9511 116.199 47.1333 116.11 47.2973 115.993C47.4635 115.874 47.6041 115.728 47.7192 115.555C47.8364 115.381 47.9184 115.18 47.9653 114.955H48.7579C48.6982 115.289 48.5896 115.588 48.4319 115.853C48.2742 116.117 48.0782 116.342 47.8438 116.527C47.6095 116.71 47.3463 116.85 47.0544 116.946C46.7646 117.042 46.4546 117.089 46.1244 117.089C45.5661 117.089 45.0697 116.953 44.635 116.68C44.2004 116.408 43.8584 116.02 43.6091 115.517C43.3598 115.014 43.2352 114.418 43.2352 113.727C43.2352 113.037 43.3598 112.44 43.6091 111.938C43.8584 111.435 44.2004 111.047 44.635 110.774C45.0697 110.501 45.5661 110.365 46.1244 110.365C46.4546 110.365 46.7646 110.413 47.0544 110.509C47.3463 110.605 47.6095 110.745 47.8438 110.931C48.0782 111.114 48.2742 111.338 48.4319 111.602C48.5896 111.864 48.6982 112.163 48.7579 112.5ZM51.9308 117.102C51.4876 117.102 51.0987 116.997 50.7642 116.786C50.4318 116.575 50.1719 116.28 49.9844 115.901C49.799 115.521 49.7063 115.078 49.7063 114.571C49.7063 114.06 49.799 113.613 49.9844 113.232C50.1719 112.85 50.4318 112.554 50.7642 112.343C51.0987 112.132 51.4876 112.027 51.9308 112.027C52.3739 112.027 52.7617 112.132 53.0941 112.343C53.4286 112.554 53.6886 112.85 53.8739 113.232C54.0614 113.613 54.1552 114.06 54.1552 114.571C54.1552 115.078 54.0614 115.521 53.8739 115.901C53.6886 116.28 53.4286 116.575 53.0941 116.786C52.7617 116.997 52.3739 117.102 51.9308 117.102ZM51.9308 116.425C52.2674 116.425 52.5444 116.338 52.7617 116.166C52.979 115.993 53.1399 115.766 53.2443 115.485C53.3487 115.204 53.4009 114.899 53.4009 114.571C53.4009 114.243 53.3487 113.937 53.2443 113.654C53.1399 113.37 52.979 113.141 52.7617 112.967C52.5444 112.792 52.2674 112.705 51.9308 112.705C51.5941 112.705 51.3171 112.792 51.0998 112.967C50.8825 113.141 50.7216 113.37 50.6172 113.654C50.5128 113.937 50.4606 114.243 50.4606 114.571C50.4606 114.899 50.5128 115.204 50.6172 115.485C50.7216 115.766 50.8825 115.993 51.0998 116.166C51.3171 116.338 51.5941 116.425 51.9308 116.425ZM56.0608 114.047V117H55.3066V112.091H56.0352V112.858H56.0992C56.2142 112.609 56.3889 112.408 56.6233 112.257C56.8577 112.104 57.1602 112.027 57.531 112.027C57.8634 112.027 58.1542 112.095 58.4035 112.232C58.6528 112.366 58.8467 112.57 58.9852 112.845C59.1237 113.118 59.1929 113.463 59.1929 113.881V117H58.4387V113.932C58.4387 113.546 58.3385 113.246 58.1382 113.031C57.9379 112.813 57.6631 112.705 57.3137 112.705C57.0729 112.705 56.8577 112.757 56.6681 112.861C56.4806 112.966 56.3325 113.118 56.2238 113.318C56.1151 113.518 56.0608 113.761 56.0608 114.047ZM62.7061 112.091V112.73H60.1621V112.091H62.7061ZM60.9036 110.915H61.6578V115.594C61.6578 115.807 61.6887 115.967 61.7505 116.073C61.8145 116.178 61.8954 116.248 61.9934 116.284C62.0936 116.318 62.199 116.335 62.3098 116.335C62.3929 116.335 62.4611 116.331 62.5144 116.322C62.5676 116.312 62.6103 116.303 62.6422 116.297L62.7956 116.974C62.7445 116.994 62.6731 117.013 62.5815 117.032C62.4899 117.053 62.3738 117.064 62.2331 117.064C62.0201 117.064 61.8113 117.018 61.6067 116.926C61.4043 116.835 61.236 116.695 61.1017 116.508C60.9696 116.32 60.9036 116.084 60.9036 115.798V110.915ZM65.8462 117.102C65.3732 117.102 64.9652 116.998 64.6222 116.789C64.2812 116.578 64.0181 116.284 63.8327 115.907C63.6495 115.528 63.5579 115.087 63.5579 114.584C63.5579 114.081 63.6495 113.638 63.8327 113.254C64.0181 112.869 64.2759 112.568 64.6062 112.353C64.9386 112.136 65.3263 112.027 65.7695 112.027C66.0252 112.027 66.2777 112.07 66.527 112.155C66.7763 112.24 67.0032 112.379 67.2077 112.57C67.4123 112.76 67.5753 113.011 67.6967 113.325C67.8182 113.638 67.8789 114.023 67.8789 114.482V114.801H64.0948V114.149H67.1119C67.1119 113.872 67.0565 113.625 66.9457 113.408C66.837 113.19 66.6815 113.019 66.479 112.893C66.2788 112.767 66.0423 112.705 65.7695 112.705C65.4691 112.705 65.2092 112.779 64.9897 112.928C64.7724 113.075 64.6051 113.267 64.4879 113.504C64.3707 113.74 64.3121 113.994 64.3121 114.264V114.699C64.3121 115.07 64.3761 115.384 64.5039 115.642C64.6339 115.897 64.8139 116.092 65.044 116.227C65.2741 116.359 65.5415 116.425 65.8462 116.425C66.0444 116.425 66.2234 116.397 66.3832 116.342C66.5451 116.284 66.6847 116.199 66.8018 116.086C66.919 115.971 67.0096 115.828 67.0735 115.658L67.8022 115.862C67.7255 116.109 67.5966 116.327 67.4155 116.514C67.2344 116.7 67.0107 116.844 66.7443 116.949C66.478 117.051 66.1786 117.102 65.8462 117.102ZM69.4569 112.091L70.6331 114.098L71.8092 112.091H72.6785L71.0933 114.545L72.6785 117H71.8092L70.6331 115.095L69.4569 117H68.5876L70.1473 114.545L68.5876 112.091H69.4569ZM75.8897 112.091V112.73H73.3457V112.091H75.8897ZM74.0872 110.915H74.8414V115.594C74.8414 115.807 74.8723 115.967 74.9341 116.073C74.998 116.178 75.079 116.248 75.177 116.284C75.2772 116.318 75.3826 116.335 75.4934 116.335C75.5765 116.335 75.6447 116.331 75.698 116.322C75.7512 116.312 75.7939 116.303 75.8258 116.297L75.9792 116.974C75.9281 116.994 75.8567 117.013 75.7651 117.032C75.6735 117.053 75.5574 117.064 75.4167 117.064C75.2037 117.064 74.9949 117.018 74.7903 116.926C74.5879 116.835 74.4196 116.695 74.2853 116.508C74.1532 116.32 74.0872 116.084 74.0872 115.798V110.915ZM81.5499 117.102C81.0897 117.102 80.6934 116.994 80.361 116.776C80.0286 116.559 79.7729 116.26 79.5939 115.878C79.415 115.497 79.3255 115.061 79.3255 114.571C79.3255 114.072 79.4171 113.632 79.6003 113.251C79.7857 112.868 80.0435 112.568 80.3738 112.353C80.7061 112.136 81.0939 112.027 81.5371 112.027C81.8823 112.027 82.1934 112.091 82.4703 112.219C82.7473 112.347 82.9743 112.526 83.1511 112.756C83.3279 112.986 83.4377 113.254 83.4803 113.561H82.726C82.6685 113.337 82.5407 113.139 82.3425 112.967C82.1465 112.792 81.8823 112.705 81.5499 112.705C81.2559 112.705 80.998 112.781 80.7765 112.935C80.557 113.086 80.3855 113.3 80.2619 113.577C80.1404 113.852 80.0797 114.175 80.0797 114.545C80.0797 114.925 80.1394 115.255 80.2587 115.536C80.3801 115.817 80.5506 116.036 80.7701 116.191C80.9917 116.347 81.2516 116.425 81.5499 116.425C81.7459 116.425 81.9238 116.391 82.0836 116.322C82.2434 116.254 82.3787 116.156 82.4895 116.028C82.6003 115.901 82.6792 115.747 82.726 115.568H83.4803C83.4377 115.858 83.3322 116.119 83.1639 116.351C82.9977 116.581 82.7772 116.765 82.5023 116.901C82.2296 117.035 81.9121 117.102 81.5499 117.102ZM85.3372 114.047V117H84.5829V110.455H85.3372V112.858H85.4011C85.5162 112.604 85.6887 112.403 85.9189 112.254C86.1511 112.103 86.46 112.027 86.8457 112.027C87.1802 112.027 87.4732 112.094 87.7246 112.228C87.976 112.36 88.171 112.564 88.3095 112.839C88.4501 113.112 88.5204 113.459 88.5204 113.881V117H87.7662V113.932C87.7662 113.542 87.665 113.24 87.4625 113.027C87.2623 112.812 86.9842 112.705 86.6284 112.705C86.3812 112.705 86.1596 112.757 85.9636 112.861C85.7697 112.966 85.6163 113.118 85.5034 113.318C85.3926 113.518 85.3372 113.761 85.3372 114.047ZM92.9941 114.993V112.091H93.7483V117H92.9941V116.169H92.9429C92.8279 116.418 92.6489 116.63 92.406 116.805C92.1631 116.978 91.8563 117.064 91.4855 117.064C91.1787 117.064 90.906 116.997 90.6673 116.863C90.4287 116.726 90.2412 116.522 90.1048 116.249C89.9685 115.974 89.9003 115.628 89.9003 115.21V112.091H90.6546V115.159C90.6546 115.517 90.7547 115.803 90.955 116.016C91.1574 116.229 91.4152 116.335 91.7284 116.335C91.9159 116.335 92.1066 116.287 92.3005 116.191C92.4965 116.096 92.6606 115.949 92.7927 115.75C92.9269 115.552 92.9941 115.3 92.9941 114.993ZM95.8841 114.047V117H95.1298V112.091H95.8585V112.858H95.9224C96.0375 112.609 96.2122 112.408 96.4466 112.257C96.6809 112.104 96.9835 112.027 97.3542 112.027C97.6866 112.027 97.9775 112.095 98.2267 112.232C98.476 112.366 98.6699 112.57 98.8084 112.845C98.9469 113.118 99.0162 113.463 99.0162 113.881V117H98.2619V113.932C98.2619 113.546 98.1618 113.246 97.9615 113.031C97.7612 112.813 97.4863 112.705 97.1369 112.705C96.8961 112.705 96.6809 112.757 96.4913 112.861C96.3038 112.966 96.1557 113.118 96.0471 113.318C95.9384 113.518 95.8841 113.761 95.8841 114.047ZM101.098 115.21L101.085 114.277H101.238L103.386 112.091H104.319L102.031 114.405H101.967L101.098 115.21ZM100.394 117V110.455H101.149V117H100.394ZM103.514 117L101.596 114.571L102.133 114.047L104.473 117H103.514ZM108.767 113.19L108.09 113.382C108.047 113.269 107.984 113.159 107.901 113.053C107.82 112.944 107.709 112.855 107.569 112.784C107.428 112.714 107.248 112.679 107.029 112.679C106.728 112.679 106.478 112.748 106.278 112.887C106.079 113.023 105.98 113.197 105.98 113.408C105.98 113.595 106.048 113.743 106.185 113.852C106.321 113.961 106.534 114.051 106.824 114.124L107.553 114.303C107.992 114.409 108.319 114.572 108.534 114.792C108.749 115.009 108.857 115.289 108.857 115.632C108.857 115.913 108.776 116.165 108.614 116.386C108.454 116.608 108.23 116.783 107.943 116.911C107.655 117.038 107.32 117.102 106.939 117.102C106.438 117.102 106.024 116.994 105.696 116.776C105.368 116.559 105.16 116.241 105.073 115.824L105.789 115.645C105.857 115.909 105.986 116.107 106.175 116.239C106.367 116.371 106.617 116.438 106.926 116.438C107.278 116.438 107.557 116.363 107.764 116.214C107.972 116.062 108.077 115.881 108.077 115.67C108.077 115.5 108.017 115.357 107.898 115.242C107.779 115.125 107.595 115.038 107.348 114.98L106.53 114.788C106.08 114.682 105.75 114.517 105.539 114.293C105.33 114.067 105.226 113.785 105.226 113.446C105.226 113.169 105.304 112.924 105.459 112.711C105.617 112.498 105.831 112.331 106.102 112.209C106.374 112.088 106.683 112.027 107.029 112.027C107.514 112.027 107.896 112.134 108.173 112.347C108.452 112.56 108.65 112.841 108.767 113.19Z" fill="black"/>
<path d="M214.212 38.1023C213.768 38.1023 213.379 37.9968 213.045 37.7859C212.713 37.5749 212.453 37.2798 212.265 36.9006C212.08 36.5213 211.987 36.0781 211.987 35.571C211.987 35.0597 212.08 34.6133 212.265 34.2319C212.453 33.8505 212.713 33.5543 213.045 33.3434C213.379 33.1325 213.768 33.027 214.212 33.027C214.655 33.027 215.042 33.1325 215.375 33.3434C215.709 33.5543 215.969 33.8505 216.155 34.2319C216.342 34.6133 216.436 35.0597 216.436 35.571C216.436 36.0781 216.342 36.5213 216.155 36.9006C215.969 37.2798 215.709 37.5749 215.375 37.7859C215.042 37.9968 214.655 38.1023 214.212 38.1023ZM214.212 37.4247C214.548 37.4247 214.825 37.3384 215.042 37.1658C215.26 36.9933 215.421 36.7663 215.525 36.4851C215.629 36.2038 215.682 35.8991 215.682 35.571C215.682 35.2429 215.629 34.9371 215.525 34.6538C215.421 34.3704 215.26 34.1413 215.042 33.9666C214.825 33.7919 214.548 33.7045 214.212 33.7045C213.875 33.7045 213.598 33.7919 213.381 33.9666C213.163 34.1413 213.002 34.3704 212.898 34.6538C212.794 34.9371 212.741 35.2429 212.741 35.571C212.741 35.8991 212.794 36.2038 212.898 36.4851C213.002 36.7663 213.163 36.9933 213.381 37.1658C213.598 37.3384 213.875 37.4247 214.212 37.4247ZM217.587 38V33.0909H218.316V33.8324H218.367C218.457 33.5895 218.619 33.3924 218.853 33.2411C219.087 33.0898 219.352 33.0142 219.646 33.0142C219.701 33.0142 219.77 33.0153 219.853 33.0174C219.936 33.0195 219.999 33.0227 220.042 33.027V33.794C220.016 33.7876 219.958 33.7781 219.866 33.7653C219.777 33.7504 219.682 33.7429 219.582 33.7429C219.343 33.7429 219.13 33.793 218.942 33.8931C218.757 33.9911 218.61 34.1275 218.501 34.3022C218.395 34.4748 218.342 34.6719 218.342 34.8935V38H217.587ZM220.936 38V33.0909H221.69V38H220.936ZM221.319 32.2727C221.172 32.2727 221.046 32.2227 220.939 32.1225C220.835 32.0224 220.783 31.902 220.783 31.7614C220.783 31.6207 220.835 31.5004 220.939 31.4002C221.046 31.3001 221.172 31.25 221.319 31.25C221.466 31.25 221.592 31.3001 221.697 31.4002C221.803 31.5004 221.856 31.6207 221.856 31.7614C221.856 31.902 221.803 32.0224 221.697 32.1225C221.592 32.2227 221.466 32.2727 221.319 32.2727ZM225.053 39.9432C224.689 39.9432 224.376 39.8963 224.114 39.8026C223.852 39.7109 223.633 39.5895 223.458 39.4382C223.286 39.2891 223.148 39.1293 223.046 38.9588L223.647 38.5369C223.715 38.6264 223.801 38.7287 223.906 38.8438C224.01 38.9609 224.153 39.0621 224.334 39.1474C224.517 39.2347 224.757 39.2784 225.053 39.2784C225.45 39.2784 225.777 39.1825 226.034 38.9908C226.292 38.799 226.421 38.4986 226.421 38.0895V37.0923H226.357C226.302 37.1818 226.223 37.2926 226.121 37.4247C226.021 37.5547 225.876 37.6708 225.686 37.7731C225.499 37.8732 225.245 37.9233 224.925 37.9233C224.529 37.9233 224.173 37.8295 223.858 37.642C223.545 37.4545 223.296 37.1818 223.113 36.8239C222.932 36.4659 222.842 36.0312 222.842 35.5199C222.842 35.017 222.93 34.5792 223.107 34.2063C223.284 33.8313 223.53 33.5415 223.845 33.337C224.16 33.1303 224.525 33.027 224.938 33.027C225.258 33.027 225.511 33.0803 225.699 33.1868C225.888 33.2912 226.033 33.4105 226.133 33.5447C226.236 33.6768 226.315 33.7855 226.37 33.8707H226.447V33.0909H227.175V38.1406C227.175 38.5625 227.08 38.9055 226.888 39.1697C226.698 39.4361 226.442 39.631 226.121 39.7546C225.801 39.8803 225.445 39.9432 225.053 39.9432ZM225.028 37.2457C225.33 37.2457 225.586 37.1765 225.795 37.038C226.004 36.8995 226.162 36.7003 226.271 36.4403C226.38 36.1804 226.434 35.8693 226.434 35.5071C226.434 35.1534 226.381 34.8413 226.274 34.5707C226.168 34.3001 226.01 34.0881 225.801 33.9347C225.592 33.7812 225.334 33.7045 225.028 33.7045C224.708 33.7045 224.442 33.7855 224.229 33.9474C224.018 34.1094 223.859 34.3267 223.752 34.5994C223.648 34.8722 223.596 35.1747 223.596 35.5071C223.596 35.848 223.649 36.1495 223.756 36.4116C223.864 36.6715 224.024 36.8761 224.235 37.0252C224.448 37.1722 224.712 37.2457 225.028 37.2457ZM228.556 38V33.0909H229.31V38H228.556ZM228.94 32.2727C228.793 32.2727 228.666 32.2227 228.559 32.1225C228.455 32.0224 228.403 31.902 228.403 31.7614C228.403 31.6207 228.455 31.5004 228.559 31.4002C228.666 31.3001 228.793 31.25 228.94 31.25C229.087 31.25 229.212 31.3001 229.317 31.4002C229.423 31.5004 229.477 31.6207 229.477 31.7614C229.477 31.902 229.423 32.0224 229.317 32.1225C229.212 32.2227 229.087 32.2727 228.94 32.2727ZM231.446 35.0469V38H230.692V33.0909H231.42V33.858H231.484C231.599 33.6087 231.774 33.4084 232.009 33.2571C232.243 33.1037 232.545 33.027 232.916 33.027C233.249 33.027 233.539 33.0952 233.789 33.2315C234.038 33.3658 234.232 33.5703 234.37 33.8452C234.509 34.1179 234.578 34.4631 234.578 34.8807V38H233.824V34.9318C233.824 34.5462 233.724 34.2457 233.523 34.0305C233.323 33.8132 233.048 33.7045 232.699 33.7045C232.458 33.7045 232.243 33.7567 232.053 33.8612C231.866 33.9656 231.718 34.1179 231.609 34.3182C231.5 34.5185 231.446 34.7614 231.446 35.0469ZM237.401 38.1151C237.09 38.1151 236.808 38.0565 236.554 37.9393C236.301 37.82 236.099 37.6484 235.95 37.4247C235.801 37.1989 235.726 36.9261 235.726 36.6065C235.726 36.3253 235.782 36.0973 235.893 35.9226C236.003 35.7457 236.151 35.6072 236.337 35.5071C236.522 35.407 236.727 35.3324 236.95 35.2834C237.176 35.2322 237.403 35.1918 237.631 35.1619C237.929 35.1236 238.171 35.0948 238.357 35.0756C238.544 35.0543 238.681 35.0192 238.766 34.9702C238.853 34.9212 238.897 34.8359 238.897 34.7145V34.6889C238.897 34.3736 238.811 34.1286 238.638 33.9538C238.467 33.7791 238.209 33.6918 237.861 33.6918C237.501 33.6918 237.219 33.7706 237.014 33.9283C236.81 34.0859 236.666 34.2543 236.583 34.4332L235.867 34.1776C235.995 33.8793 236.165 33.647 236.378 33.4808C236.594 33.3125 236.828 33.1953 237.081 33.1293C237.337 33.0611 237.589 33.027 237.836 33.027C237.993 33.027 238.174 33.0462 238.379 33.0845C238.586 33.1207 238.785 33.1964 238.977 33.3114C239.171 33.4265 239.331 33.6001 239.459 33.8324C239.587 34.0646 239.651 34.3757 239.651 34.7656V38H238.897V37.3352H238.858C238.807 37.4418 238.722 37.5558 238.603 37.6772C238.483 37.7987 238.325 37.902 238.127 37.9872C237.928 38.0724 237.687 38.1151 237.401 38.1151ZM237.516 37.4375C237.814 37.4375 238.066 37.3789 238.27 37.2617C238.477 37.1445 238.633 36.9933 238.737 36.8079C238.844 36.6225 238.897 36.4276 238.897 36.223V35.5327C238.865 35.571 238.795 35.6062 238.686 35.6381C238.579 35.668 238.456 35.6946 238.315 35.718C238.177 35.7393 238.041 35.7585 237.909 35.7756C237.779 35.7905 237.674 35.8033 237.593 35.8139C237.397 35.8395 237.214 35.881 237.043 35.9386C236.875 35.994 236.738 36.0781 236.634 36.1911C236.532 36.3018 236.481 36.4531 236.481 36.6449C236.481 36.907 236.578 37.1051 236.771 37.2393C236.967 37.3714 237.216 37.4375 237.516 37.4375ZM241.782 31.4545V38H241.028V31.4545H241.782Z" fill="black"/>
<path d="M209.071 70V65.0909H209.799V65.8324H209.851C209.94 65.5895 210.102 65.3924 210.336 65.2411C210.571 65.0898 210.835 65.0142 211.129 65.0142C211.184 65.0142 211.254 65.0153 211.337 65.0174C211.42 65.0195 211.483 65.0227 211.525 65.027V65.794C211.5 65.7876 211.441 65.7781 211.349 65.7653C211.26 65.7504 211.165 65.7429 211.065 65.7429C210.826 65.7429 210.613 65.793 210.426 65.8931C210.24 65.9911 210.093 66.1275 209.985 66.3022C209.878 66.4748 209.825 66.6719 209.825 66.8935V70H209.071ZM214.328 70.1023C213.855 70.1023 213.447 69.9979 213.104 69.7891C212.763 69.5781 212.5 69.2841 212.315 68.907C212.131 68.5277 212.04 68.0866 212.04 67.5838C212.04 67.081 212.131 66.6378 212.315 66.2543C212.5 65.8686 212.758 65.5682 213.088 65.353C213.42 65.1357 213.808 65.027 214.251 65.027C214.507 65.027 214.76 65.0696 215.009 65.1548C215.258 65.2401 215.485 65.3786 215.69 65.5703C215.894 65.7599 216.057 66.0114 216.179 66.3246C216.3 66.6378 216.361 67.0234 216.361 67.4815V67.8011H212.577V67.1491H215.594C215.594 66.8722 215.538 66.625 215.428 66.4077C215.319 66.1903 215.163 66.0188 214.961 65.8931C214.761 65.7674 214.524 65.7045 214.251 65.7045C213.951 65.7045 213.691 65.7791 213.472 65.9283C213.254 66.0753 213.087 66.267 212.97 66.5036C212.853 66.7401 212.794 66.9936 212.794 67.2642V67.6989C212.794 68.0696 212.858 68.3839 212.986 68.6417C213.116 68.8974 213.296 69.0923 213.526 69.2266C213.756 69.3587 214.023 69.4247 214.328 69.4247C214.526 69.4247 214.705 69.397 214.865 69.3416C215.027 69.2841 215.167 69.1989 215.284 69.0859C215.401 68.9709 215.492 68.8281 215.555 68.6577L216.284 68.8622C216.207 69.1094 216.079 69.3267 215.897 69.5142C215.716 69.6996 215.493 69.8445 215.226 69.9489C214.96 70.0511 214.661 70.1023 214.328 70.1023ZM221.373 65.0909L219.558 70H218.791L216.975 65.0909H217.793L219.149 69.0028H219.2L220.555 65.0909H221.373ZM224.251 70.1023C223.778 70.1023 223.37 69.9979 223.027 69.7891C222.686 69.5781 222.423 69.2841 222.238 68.907C222.054 68.5277 221.963 68.0866 221.963 67.5838C221.963 67.081 222.054 66.6378 222.238 66.2543C222.423 65.8686 222.681 65.5682 223.011 65.353C223.343 65.1357 223.731 65.027 224.174 65.027C224.43 65.027 224.682 65.0696 224.932 65.1548C225.181 65.2401 225.408 65.3786 225.613 65.5703C225.817 65.7599 225.98 66.0114 226.102 66.3246C226.223 66.6378 226.284 67.0234 226.284 67.4815V67.8011H222.5V67.1491H225.517C225.517 66.8722 225.461 66.625 225.35 66.4077C225.242 66.1903 225.086 66.0188 224.884 65.8931C224.684 65.7674 224.447 65.7045 224.174 65.7045C223.874 65.7045 223.614 65.7791 223.394 65.9283C223.177 66.0753 223.01 66.267 222.893 66.5036C222.776 66.7401 222.717 66.9936 222.717 67.2642V67.6989C222.717 68.0696 222.781 68.3839 222.909 68.6417C223.039 68.8974 223.219 69.0923 223.449 69.2266C223.679 69.3587 223.946 69.4247 224.251 69.4247C224.449 69.4247 224.628 69.397 224.788 69.3416C224.95 69.2841 225.089 69.1989 225.207 69.0859C225.324 68.9709 225.414 68.8281 225.478 68.6577L226.207 68.8622C226.13 69.1094 226.001 69.3267 225.82 69.5142C225.639 69.6996 225.415 69.8445 225.149 69.9489C224.883 70.0511 224.583 70.1023 224.251 70.1023ZM227.431 70V65.0909H228.16V65.8324H228.211C228.3 65.5895 228.462 65.3924 228.697 65.2411C228.931 65.0898 229.195 65.0142 229.489 65.0142C229.545 65.0142 229.614 65.0153 229.697 65.0174C229.78 65.0195 229.843 65.0227 229.886 65.027V65.794C229.86 65.7876 229.801 65.7781 229.71 65.7653C229.62 65.7504 229.526 65.7429 229.425 65.7429C229.187 65.7429 228.974 65.793 228.786 65.8931C228.601 65.9911 228.454 66.1275 228.345 66.3022C228.239 66.4748 228.185 66.6719 228.185 66.8935V70H227.431ZM234.257 66.1903L233.579 66.3821C233.537 66.2692 233.474 66.1594 233.391 66.0529C233.31 65.9442 233.199 65.8548 233.058 65.7844C232.918 65.7141 232.738 65.679 232.518 65.679C232.218 65.679 231.968 65.7482 231.767 65.8867C231.569 66.0231 231.47 66.1967 231.47 66.4077C231.47 66.5952 231.538 66.7433 231.675 66.8519C231.811 66.9606 232.024 67.0511 232.314 67.1236L233.042 67.3026C233.481 67.4091 233.808 67.5721 234.024 67.7915C234.239 68.0089 234.346 68.2891 234.346 68.6321C234.346 68.9134 234.265 69.1648 234.104 69.3864C233.944 69.608 233.72 69.7827 233.432 69.9105C233.145 70.0384 232.81 70.1023 232.429 70.1023C231.928 70.1023 231.514 69.9936 231.186 69.7763C230.857 69.5589 230.65 69.2415 230.562 68.8239L231.278 68.6449C231.346 68.9091 231.475 69.1072 231.665 69.2393C231.857 69.3714 232.107 69.4375 232.416 69.4375C232.768 69.4375 233.047 69.3629 233.253 69.2138C233.462 69.0625 233.567 68.8814 233.567 68.6705C233.567 68.5 233.507 68.3572 233.388 68.2422C233.268 68.125 233.085 68.0376 232.838 67.9801L232.02 67.7884C231.57 67.6818 231.24 67.5167 231.029 67.293C230.82 67.0671 230.716 66.7848 230.716 66.446C230.716 66.169 230.794 65.924 230.949 65.7109C231.107 65.4979 231.321 65.3306 231.591 65.2092C231.864 65.0877 232.173 65.027 232.518 65.027C233.004 65.027 233.386 65.1335 233.663 65.3466C233.942 65.5597 234.14 65.8409 234.257 66.1903ZM237.54 70.1023C237.067 70.1023 236.659 69.9979 236.316 69.7891C235.975 69.5781 235.712 69.2841 235.527 68.907C235.343 68.5277 235.252 68.0866 235.252 67.5838C235.252 67.081 235.343 66.6378 235.527 66.2543C235.712 65.8686 235.97 65.5682 236.3 65.353C236.632 65.1357 237.02 65.027 237.463 65.027C237.719 65.027 237.972 65.0696 238.221 65.1548C238.47 65.2401 238.697 65.3786 238.902 65.5703C239.106 65.7599 239.269 66.0114 239.391 66.3246C239.512 66.6378 239.573 67.0234 239.573 67.4815V67.8011H235.789V67.1491H238.806C238.806 66.8722 238.75 66.625 238.64 66.4077C238.531 66.1903 238.375 66.0188 238.173 65.8931C237.973 65.7674 237.736 65.7045 237.463 65.7045C237.163 65.7045 236.903 65.7791 236.684 65.9283C236.466 66.0753 236.299 66.267 236.182 66.5036C236.065 66.7401 236.006 66.9936 236.006 67.2642V67.6989C236.006 68.0696 236.07 68.3839 236.198 68.6417C236.328 68.8974 236.508 69.0923 236.738 69.2266C236.968 69.3587 237.235 69.4247 237.54 69.4247C237.738 69.4247 237.917 69.397 238.077 69.3416C238.239 69.2841 238.379 69.1989 238.496 69.0859C238.613 68.9709 238.703 68.8281 238.767 68.6577L239.496 68.8622C239.419 69.1094 239.29 69.3267 239.109 69.5142C238.928 69.6996 238.705 69.8445 238.438 69.9489C238.172 70.0511 237.872 70.1023 237.54 70.1023ZM242.574 70.1023C242.165 70.1023 241.804 69.9989 241.49 69.7923C241.177 69.5835 240.932 69.2894 240.755 68.9102C240.578 68.5288 240.49 68.0781 240.49 67.5582C240.49 67.0426 240.578 66.5952 240.755 66.2159C240.932 65.8366 241.178 65.5437 241.494 65.337C241.809 65.1303 242.173 65.027 242.587 65.027C242.906 65.027 243.159 65.0803 243.344 65.1868C243.532 65.2912 243.674 65.4105 243.772 65.5447C243.872 65.6768 243.95 65.7855 244.006 65.8707H244.07V63.4545H244.824V70H244.095V69.2457H244.006C243.95 69.3352 243.871 69.4482 243.769 69.5845C243.667 69.7187 243.521 69.8391 243.331 69.9457C243.142 70.0501 242.889 70.1023 242.574 70.1023ZM242.676 69.4247C242.979 69.4247 243.234 69.3459 243.443 69.1882C243.652 69.0284 243.811 68.8079 243.919 68.5266C244.028 68.2433 244.082 67.9162 244.082 67.5455C244.082 67.179 244.029 66.8583 243.923 66.5835C243.816 66.3065 243.658 66.0913 243.45 65.9379C243.241 65.7823 242.983 65.7045 242.676 65.7045C242.356 65.7045 242.09 65.7866 241.877 65.9506C241.666 66.1126 241.507 66.3331 241.401 66.6122C241.296 66.8892 241.244 67.2003 241.244 67.5455C241.244 67.8949 241.298 68.2124 241.404 68.4979C241.513 68.7812 241.673 69.0071 241.883 69.1754C242.097 69.3416 242.361 69.4247 242.676 69.4247Z" fill="black"/>
<path d="M207.884 102V97.0909H208.638V102H207.884ZM208.268 96.2727C208.121 96.2727 207.994 96.2227 207.887 96.1225C207.783 96.0224 207.731 95.902 207.731 95.7614C207.731 95.6207 207.783 95.5004 207.887 95.4002C207.994 95.3001 208.121 95.25 208.268 95.25C208.415 95.25 208.54 95.3001 208.645 95.4002C208.751 95.5004 208.805 95.6207 208.805 95.7614C208.805 95.902 208.751 96.0224 208.645 96.1225C208.54 96.2227 208.415 96.2727 208.268 96.2727ZM210.02 102V97.0909H210.749V97.8324H210.8C210.889 97.5895 211.051 97.3924 211.286 97.2411C211.52 97.0898 211.784 97.0142 212.078 97.0142C212.134 97.0142 212.203 97.0153 212.286 97.0174C212.369 97.0195 212.432 97.0227 212.474 97.027V97.794C212.449 97.7876 212.39 97.7781 212.299 97.7653C212.209 97.7504 212.114 97.7429 212.014 97.7429C211.776 97.7429 211.563 97.793 211.375 97.8931C211.19 97.9911 211.043 98.1275 210.934 98.3022C210.827 98.4748 210.774 98.6719 210.774 98.8935V102H210.02ZM213.369 102V97.0909H214.097V97.8324H214.148C214.238 97.5895 214.4 97.3924 214.634 97.2411C214.869 97.0898 215.133 97.0142 215.427 97.0142C215.482 97.0142 215.551 97.0153 215.635 97.0174C215.718 97.0195 215.78 97.0227 215.823 97.027V97.794C215.798 97.7876 215.739 97.7781 215.647 97.7653C215.558 97.7504 215.463 97.7429 215.363 97.7429C215.124 97.7429 214.911 97.793 214.724 97.8931C214.538 97.9911 214.391 98.1275 214.283 98.3022C214.176 98.4748 214.123 98.6719 214.123 98.8935V102H213.369ZM218.626 102.102C218.153 102.102 217.745 101.998 217.402 101.789C217.061 101.578 216.798 101.284 216.613 100.907C216.429 100.528 216.338 100.087 216.338 99.5838C216.338 99.081 216.429 98.6378 216.613 98.2543C216.798 97.8686 217.056 97.5682 217.386 97.353C217.718 97.1357 218.106 97.027 218.549 97.027C218.805 97.027 219.057 97.0696 219.307 97.1548C219.556 97.2401 219.783 97.3786 219.988 97.5703C220.192 97.7599 220.355 98.0114 220.477 98.3246C220.598 98.6378 220.659 99.0234 220.659 99.4815V99.8011H216.875V99.1491H219.892C219.892 98.8722 219.836 98.625 219.725 98.4077C219.617 98.1903 219.461 98.0188 219.259 97.8931C219.059 97.7674 218.822 97.7045 218.549 97.7045C218.249 97.7045 217.989 97.7791 217.769 97.9283C217.552 98.0753 217.385 98.267 217.268 98.5036C217.151 98.7401 217.092 98.9936 217.092 99.2642V99.6989C217.092 100.07 217.156 100.384 217.284 100.642C217.414 100.897 217.594 101.092 217.824 101.227C218.054 101.359 218.321 101.425 218.626 101.425C218.824 101.425 219.003 101.397 219.163 101.342C219.325 101.284 219.464 101.199 219.582 101.086C219.699 100.971 219.789 100.828 219.853 100.658L220.582 100.862C220.505 101.109 220.376 101.327 220.195 101.514C220.014 101.7 219.79 101.844 219.524 101.949C219.258 102.051 218.958 102.102 218.626 102.102ZM222.56 95.4545V102H221.806V95.4545H222.56ZM226 102.102C225.527 102.102 225.119 101.998 224.776 101.789C224.435 101.578 224.172 101.284 223.987 100.907C223.803 100.528 223.712 100.087 223.712 99.5838C223.712 99.081 223.803 98.6378 223.987 98.2543C224.172 97.8686 224.43 97.5682 224.76 97.353C225.092 97.1357 225.48 97.027 225.923 97.027C226.179 97.027 226.432 97.0696 226.681 97.1548C226.93 97.2401 227.157 97.3786 227.362 97.5703C227.566 97.7599 227.729 98.0114 227.851 98.3246C227.972 98.6378 228.033 99.0234 228.033 99.4815V99.8011H224.249V99.1491H227.266C227.266 98.8722 227.21 98.625 227.099 98.4077C226.991 98.1903 226.835 98.0188 226.633 97.8931C226.433 97.7674 226.196 97.7045 225.923 97.7045C225.623 97.7045 225.363 97.7791 225.144 97.9283C224.926 98.0753 224.759 98.267 224.642 98.5036C224.525 98.7401 224.466 98.9936 224.466 99.2642V99.6989C224.466 100.07 224.53 100.384 224.658 100.642C224.788 100.897 224.968 101.092 225.198 101.227C225.428 101.359 225.695 101.425 226 101.425C226.198 101.425 226.377 101.397 226.537 101.342C226.699 101.284 226.838 101.199 226.956 101.086C227.073 100.971 227.163 100.828 227.227 100.658L227.956 100.862C227.879 101.109 227.75 101.327 227.569 101.514C227.388 101.7 227.164 101.844 226.898 101.949C226.632 102.051 226.332 102.102 226 102.102ZM233.045 97.0909L231.23 102H230.462L228.647 97.0909H229.465L230.82 101.003H230.872L232.227 97.0909H233.045ZM235.336 102.115C235.025 102.115 234.742 102.056 234.489 101.939C234.235 101.82 234.034 101.648 233.885 101.425C233.735 101.199 233.661 100.926 233.661 100.607C233.661 100.325 233.716 100.097 233.827 99.9226C233.938 99.7457 234.086 99.6072 234.271 99.5071C234.457 99.407 234.661 99.3324 234.885 99.2834C235.111 99.2322 235.338 99.1918 235.566 99.1619C235.864 99.1236 236.106 99.0948 236.291 99.0756C236.479 99.0543 236.615 99.0192 236.7 98.9702C236.788 98.9212 236.831 98.8359 236.831 98.7145V98.6889C236.831 98.3736 236.745 98.1286 236.572 97.9538C236.402 97.7791 236.143 97.6918 235.796 97.6918C235.436 97.6918 235.153 97.7706 234.949 97.9283C234.744 98.0859 234.601 98.2543 234.517 98.4332L233.802 98.1776C233.929 97.8793 234.1 97.647 234.313 97.4808C234.528 97.3125 234.762 97.1953 235.016 97.1293C235.272 97.0611 235.523 97.027 235.77 97.027C235.928 97.027 236.109 97.0462 236.314 97.0845C236.52 97.1207 236.72 97.1964 236.911 97.3114C237.105 97.4265 237.266 97.6001 237.394 97.8324C237.522 98.0646 237.586 98.3757 237.586 98.7656V102H236.831V101.335H236.793C236.742 101.442 236.657 101.556 236.537 101.677C236.418 101.799 236.259 101.902 236.061 101.987C235.863 102.072 235.621 102.115 235.336 102.115ZM235.451 101.438C235.749 101.438 236 101.379 236.205 101.262C236.412 101.145 236.567 100.993 236.672 100.808C236.778 100.623 236.831 100.428 236.831 100.223V99.5327C236.799 99.571 236.729 99.6062 236.62 99.6381C236.514 99.668 236.39 99.6946 236.25 99.718C236.111 99.7393 235.976 99.7585 235.844 99.7756C235.714 99.7905 235.608 99.8033 235.527 99.8139C235.331 99.8395 235.148 99.881 234.978 99.9386C234.809 99.994 234.673 100.078 234.569 100.191C234.466 100.302 234.415 100.453 234.415 100.645C234.415 100.907 234.512 101.105 234.706 101.239C234.902 101.371 235.15 101.438 235.451 101.438ZM239.717 99.0469V102H238.962V97.0909H239.691V97.858H239.755C239.87 97.6087 240.045 97.4084 240.279 97.2571C240.513 97.1037 240.816 97.027 241.187 97.027C241.519 97.027 241.81 97.0952 242.059 97.2315C242.309 97.3658 242.502 97.5703 242.641 97.8452C242.779 98.1179 242.849 98.4631 242.849 98.8807V102H242.094V98.9318C242.094 98.5462 241.994 98.2457 241.794 98.0305C241.594 97.8132 241.319 97.7045 240.969 97.7045C240.729 97.7045 240.513 97.7567 240.324 97.8612C240.136 97.9656 239.988 98.1179 239.88 98.3182C239.771 98.5185 239.717 98.7614 239.717 99.0469ZM246.362 97.0909V97.7301H243.818V97.0909H246.362ZM244.559 95.9148H245.314V100.594C245.314 100.807 245.345 100.967 245.406 101.073C245.47 101.178 245.551 101.248 245.649 101.284C245.749 101.318 245.855 101.335 245.966 101.335C246.049 101.335 246.117 101.331 246.17 101.322C246.223 101.312 246.266 101.303 246.298 101.297L246.451 101.974C246.4 101.994 246.329 102.013 246.237 102.032C246.146 102.053 246.03 102.064 245.889 102.064C245.676 102.064 245.467 102.018 245.262 101.926C245.06 101.835 244.892 101.695 244.758 101.508C244.625 101.32 244.559 101.084 244.559 100.798V95.9148Z" fill="black"/>
</svg>
